<?xml version="1.0" encoding="utf-8"?>
<!-- Generator: Adobe Illustrator 25.0.1, SVG Export Plug-In . SVG Version: 6.00 Build 0)  -->
<svg version="1.1" id="C-6" xmlns="http://www.w3.org/2000/svg" xmlns:xlink="http://www.w3.org/1999/xlink" x="0px" y="0px"
	 viewBox="0 0 1920 1080" style="enable-background:new 0 0 1920 1080;" xml:space="preserve">
<style type="text/css">
	.st0{fill:none;stroke:#4C4C4C;stroke-miterlimit:10;}
</style>
<image style="overflow:visible;" width="3509" height="2480" xlink:href="93CCC6C3.jpg"  transform="matrix(0.5586 0 0 0.5586 -19.9246 -153.0222)">
</image>
<polygon id="outline" class="st0" points="226.39,640.96 226.39,336.81 1729.12,336.95 1729.12,640.96 "/>
<rect id="C6-01" x="226.39" y="333.28" class="st0" width="115.3" height="303.84"/>
<rect id="C6-02" x="341.69" y="333.28" class="st0" width="115.02" height="303.84"/>
<rect id="C6-03" x="456.71" y="333.28" class="st0" width="115.47" height="303.84"/>
<rect id="C6-04" x="573.03" y="333.28" class="st0" width="115.84" height="303.84"/>
<rect id="C6-05" x="688.88" y="333.28" class="st0" width="114.74" height="303.84"/>
<rect id="C6-06" x="803.46" y="333.28" class="st0" width="114.41" height="303.84"/>
<rect id="C6-07" x="918.88" y="333.28" class="st0" width="116.64" height="303.84"/>
<rect id="C6-08" x="1035.52" y="333.28" class="st0" width="116.16" height="303.84"/>
<rect id="C6-09" x="1151.68" y="333.28" class="st0" width="114.61" height="306.24"/>
<rect id="C6-10" x="1267.15" y="333.28" class="st0" width="114.93" height="306.24"/>
<rect id="C6-11" x="1382.08" y="333.28" class="st0" width="116.64" height="306.24"/>
<rect id="C6-12" x="1498.72" y="333.28" class="st0" width="113.17" height="306.24"/>
<rect id="C6-13" x="1611.93" y="333.28" class="st0" width="117.19" height="306.24"/>
</svg>
