<?xml version="1.0" encoding="utf-8"?>
<!-- Generator: Adobe Illustrator 25.0.1, SVG Export Plug-In . SVG Version: 6.00 Build 0)  -->
<svg version="1.1" id="C-11" xmlns="http://www.w3.org/2000/svg" xmlns:xlink="http://www.w3.org/1999/xlink" x="0px" y="0px"
	 viewBox="0 0 863 575.8" style="enable-background:new 0 0 863 575.8;" xml:space="preserve">
<style type="text/css">
	.st0{fill:none;stroke:#4C4C4C;stroke-miterlimit:10;}
</style>
<image style="overflow:visible;enable-background:new    ;" width="3509" height="2480" xlink:href="C11.jpg"  transform="matrix(0.24 0 0 0.24 8 -5)">
</image>
<polygon id="outline" class="st0" points="37.48,408 37.48,71.4 791.44,71.56 791.44,408 "/>
<rect id="C11-21" x="37.48" y="71.4" class="st0" width="65.52" height="336.6"/>
<rect id="C11-22" x="103.48" y="71.4" class="st0" width="60.84" height="336.6"/>
<rect id="C11-23" x="164.48" y="71.4" class="st0" width="65.52" height="336.6"/>
<rect id="C11-24" x="230.48" y="71.4" class="st0" width="60.84" height="336.6"/>
<rect id="C11-25" x="290.48" y="71.4" class="st0" width="63.89" height="336.6"/>
<rect id="C11-26" x="354.84" y="71.4" class="st0" width="59.33" height="336.6"/>
<rect id="C11-27" x="414.32" y="71.4" class="st0" width="63.89" height="336.6"/>
<rect id="C11-28" x="478.67" y="71.4" class="st0" width="59.33" height="336.6"/>
<rect id="C11-29" x="539.48" y="71.4" class="st0" width="63.89" height="336.6"/>
<rect id="C11-30" x="603.84" y="71.4" class="st0" width="59.33" height="336.6"/>
<rect id="C11-31" x="663.32" y="71.4" class="st0" width="63.89" height="336.6"/>
<rect id="C11-32" x="727.67" y="71.4" class="st0" width="63.77" height="336.6"/>
</svg>
