<?xml version="1.0" encoding="utf-8"?>
<!-- Generator: Adobe Illustrator 25.0.1, SVG Export Plug-In . SVG Version: 6.00 Build 0)  -->
<svg version="1.1" id="C-4" xmlns="http://www.w3.org/2000/svg" xmlns:xlink="http://www.w3.org/1999/xlink" x="0px" y="0px"
	 viewBox="0 0 2795.04 2445.12" style="enable-background:new 0 0 2795.04 2445.12;" xml:space="preserve">
<style type="text/css">
	.st0{fill:none;stroke:#4C4C4C;stroke-miterlimit:10;}
</style>
<image style="overflow:visible;" width="3300" height="2550" xlink:href="C-4.jpg"  transform="matrix(1 0 0 1 -335.44 -59.8)">
</image>
<polygon id="outline" class="st0" points="427.64,2058.88 427.64,2032.96 502.04,2032.96 502.04,2058.88 651.8,2058.88 
	651.8,2033.44 726.68,2033.44 726.68,2058.88 878.36,2058.88 878.36,2035.36 949.4,2035.36 949.4,2058.88 1103,2058.88 
	1103,2035.84 1176.92,2035.84 1176.92,2058.88 1328.12,2058.88 1328.12,2033.44 1402.04,2033.44 1402.04,2058.88 1553.24,2058.88 
	1553.24,2034.88 1627.64,2034.88 1627.64,2058.88 1778.84,2058.88 1778.84,2033.44 1852.76,2033.44 1852.76,2058.88 
	2003.48,2058.88 2003.48,2034.4 2077.4,2034.4 2077.4,2058.88 2228.12,2058.88 2228.12,2032.48 2301.56,2033.44 2301.56,2058.88 
	2453.48,2058.88 2453.48,2032.96 2509.64,2032.96 2509.64,1145.2 267.56,1145.2 262.52,2058.88 "/>
<polygon id="C4-01" class="st0" points="262.36,2030.96 262.36,2059.04 428.68,2059.04 428.68,2025.92 491.32,2025.92 
	489.16,1146.8 262.36,1146.8 "/>
<polygon id="C4-02" class="st0" points="715.24,2028.8 653.32,2032.4 653.32,2055.44 505,2055.44 505,2028.8 491.32,2028.8 
	489.16,1146.8 715.24,1146.8 "/>
<polygon id="C4-03" class="st0" points="717.36,2030.96 717.36,2059.04 883.68,2059.04 883.68,2025.92 946.32,2025.92 
	944.16,1146.8 717.36,1146.8 "/>
<polygon id="C4-04" class="st0" points="1170.24,2032.76 1105.09,2032.59 1106.2,2057.24 953.2,2059.04 953.2,2030.24 
	946.32,2028.8 944.16,1146.8 1170.24,1146.8 "/>
<polygon id="C4-05" class="st0" points="1393.24,2032.76 1328.09,2032.59 1329.2,2057.24 1176.2,2059.04 1176.2,2030.24 
	1169.32,2028.8 1167.16,1146.8 1393.24,1146.8 "/>
<polygon id="C4-06" class="st0" points="1616.24,2032.76 1551.09,2032.59 1552.2,2057.24 1399.2,2059.04 1399.2,2030.24 
	1392.32,2028.8 1390.16,1146.8 1616.24,1146.8 "/>
<polygon id="C4-07" class="st0" points="1841.24,2032.76 1776.09,2032.59 1777.2,2057.24 1624.2,2059.04 1624.2,2030.24 
	1617.32,2028.8 1615.16,1146.8 1841.24,1146.8 "/>
<polygon id="C4-08" class="st0" points="2064.24,2032.76 1999.09,2032.59 2000.2,2057.24 1847.2,2059.04 1847.2,2030.24 
	1840.32,2028.8 1838.16,1146.8 2064.24,1146.8 "/>
<polygon id="C4-09" class="st0" points="2287.24,2032.76 2222.09,2032.59 2223.2,2057.24 2070.2,2059.04 2070.2,2030.24 
	2063.32,2028.8 2061.16,1146.8 2287.24,1146.8 "/>
<polygon id="C4-10" class="st0" points="2520.24,2032.76 2453.09,2032.59 2454.24,2057.24 2296.56,2059.04 2296.56,2030.24 
	2289.47,2028.8 2287.24,1146.8 2520.24,1146.8 "/>
</svg>
