<?xml version="1.0" encoding="utf-8"?>
<!-- Generator: Adobe Illustrator 25.0.1, SVG Export Plug-In . SVG Version: 6.00 Build 0)  -->
<svg version="1.1" id="C-11" xmlns="http://www.w3.org/2000/svg" xmlns:xlink="http://www.w3.org/1999/xlink" x="0px" y="0px"
	 viewBox="0 0 842.16 595.2" style="enable-background:new 0 0 842.16 595.2;" xml:space="preserve">
<style type="text/css">
	.st0{fill:none;stroke:#4C4C4C;stroke-miterlimit:10;}
</style>
<image style="overflow:visible;" width="3509" height="2480" xlink:href="C-11 Model.jpg"  transform="matrix(0.24 0 0 0.24 0 0)">
</image>
<polygon id="outline" class="st0" points="106.16,129.32 772.52,128.96 772.52,240.2 726.8,289.52 719.96,289.52 719.24,297.6 
	685.76,297.6 685.4,288.08 677.12,288.08 678.56,384.2 671.72,384.2 671.72,391.76 638.24,391.76 637.88,384.56 624.2,383.12 
	624.56,391.76 590.72,391.76 590.36,383.84 577.04,383.48 577.4,391.76 543.56,391.76 542.84,384.2 529.16,383.84 530.24,391.76 
	495.68,391.76 494.96,383.48 481.64,383.84 482.72,391.76 448.52,391.76 447.8,383.48 434.48,383.84 434.48,391.76 400.64,391.76 
	400.64,383.48 387.32,383.84 387.68,391.76 353.12,391.76 353.12,383.84 339.8,384.2 340.88,391.76 306.32,391.76 306.32,383.48 
	292.64,383.84 293,391.76 258.8,391.76 258.8,384.56 245.12,384.2 245.84,391.76 211.64,391.76 210.92,384.2 197.24,384.92 
	197.6,391.76 164.12,391.76 163.76,383.48 150.08,383.48 150.44,391.76 116.24,391.76 116.96,383.48 106.16,384.56 "/>
<polygon id="C11-21" class="st0" points="106.76,128.72 155.76,128.72 155.28,385.04 150.29,385.04 150.29,392 116.51,392 
	116.27,384.8 106.76,384.8 "/>
<polygon id="C11-22" class="st0" points="155.76,128.72 203.24,128.72 202.78,385.04 197.94,385.04 197.94,392 164.12,392 
	164,384.8 155.76,384.8 "/>
<polygon id="C11-23" class="st0" points="202.76,128.72 250.52,128.72 250.06,385.04 245.19,385.04 245.19,391.16 211.64,391.28 
	211.4,384.8 202.76,384.8 "/>
<polygon id="C11-24" class="st0" points="250.52,128.72 297.8,128.72 297.34,385.04 292.52,385.04 292.52,391.04 258.26,391.28 
	258.45,385.19 250.06,385.04 "/>
<polygon id="C11-25" class="st0" points="296.76,128.72 344.52,128.72 344.06,385.04 340.25,385.04 340.16,391.16 305.64,391.28 
	305.4,384.8 296.76,384.8 "/>
<polygon id="C11-26" class="st0" points="344.76,128.72 392.72,128.72 392.25,385.04 388.59,385.04 388.49,391.28 353.67,391.28 
	353.71,385.14 344.29,385.04 "/>
<polygon id="C11-27" class="st0" points="391.76,128.72 439.52,128.72 439.06,385.04 435.25,385.04 435.16,391.16 400.64,391.28 
	400.4,384.8 391.76,384.8 "/>
<polygon id="C11-28" class="st0" points="439.53,128.72 487.72,128.72 487.25,385.04 483.57,385.04 483.47,391.28 448.48,391.28 
	448.52,385.14 439.06,385.04 "/>
<polygon id="C11-29" class="st0" points="487.76,128.72 535.52,128.72 535.06,385.04 531.25,385.04 531.16,391.16 496.64,391.28 
	496.4,384.8 487.76,384.8 "/>
<polygon id="C11-30" class="st0" points="535.5,128.72 580.52,128.72 580.08,385.04 576.64,385.04 576.55,391.28 543.86,391.28 
	543.9,385.14 535.06,385.04 "/>
<polygon id="C11-31" class="st0" points="579.76,128.72 630.07,128.72 629.59,385.04 625.58,385.04 625.48,391.16 589.11,391.28 
	588.86,384.8 579.76,384.8 "/>
<polygon id="C11-32" class="st0" points="630.05,128.72 677.48,128.72 677.02,385.04 673.39,385.04 673.3,391.28 638.86,391.28 
	638.9,385.14 629.59,385.04 "/>
<polyline id="C11-33_2_" class="st0" points="724.52,128.72 677.48,128.72 677.19,288.8 685.22,288.8 685.22,295.64 719.42,295.64 
	719.42,287.9 724.52,287.72 724.52,128.72 "/>
<polygon id="C11-34" class="st0" points="772.28,129.92 772.28,240.8 726.92,288.8 724.52,288.8 724.52,128.72 "/>
</svg>
