<?xml version="1.0" encoding="utf-8"?>
<!-- Generator: Adobe Illustrator 25.0.1, SVG Export Plug-In . SVG Version: 6.00 Build 0)  -->
<svg version="1.1" id="C-8" xmlns="http://www.w3.org/2000/svg" xmlns:xlink="http://www.w3.org/1999/xlink" x="0px" y="0px"
	 viewBox="0 0 1920 1080" style="enable-background:new 0 0 1920 1080;" xml:space="preserve">
<style type="text/css">
	.st0{fill:none;stroke:#4C4C4C;stroke-miterlimit:10;}
</style>
<image style="overflow:visible;" width="3509" height="2480" xlink:href="EE1D78CE.jpg"  transform="matrix(0.5885 0 0 0.5885 -72.48 -190.166)">
</image>
<polygon id="outline" class="st0" points="140.78,643.52 140.78,315 1785.27,315.16 1785.27,643.52 "/>
<rect id="C8-01" x="140.78" y="315" class="st0" width="126.18" height="328.52"/>
<rect id="C8-02" x="266.96" y="315" class="st0" width="125.87" height="328.52"/>
<rect id="C8-03" x="392.83" y="315" class="st0" width="126.36" height="328.52"/>
<rect id="C8-04" x="520.12" y="315" class="st0" width="126.77" height="328.52"/>
<rect id="C8-05" x="646.9" y="315" class="st0" width="125.57" height="328.52"/>
<rect id="C8-06" x="772.29" y="315" class="st0" width="125.2" height="328.52"/>
<rect id="C8-07" x="898.6" y="315" class="st0" width="127.65" height="328.52"/>
<rect id="C8-08" x="1026.24" y="315" class="st0" width="127.12" height="328.52"/>
<rect id="C8-09" x="1153.36" y="315" class="st0" width="125.42" height="329"/>
<rect id="C8-10" x="1279.72" y="315" class="st0" width="125.77" height="329"/>
<rect id="C8-11" x="1405.49" y="315" class="st0" width="123.19" height="329"/>
<rect id="C8-12" x="1528.68" y="316.9" class="st0" width="128.3" height="327.09"/>
<rect id="C8-13" x="1657.03" y="316.9" class="st0" width="128.25" height="327.09"/>
</svg>
