<?xml version="1.0" encoding="utf-8"?>
<!-- Generator: Adobe Illustrator 25.0.1, SVG Export Plug-In . SVG Version: 6.00 Build 0)  -->
<svg version="1.1" id="C-9" xmlns="http://www.w3.org/2000/svg" xmlns:xlink="http://www.w3.org/1999/xlink" x="0px" y="0px"
	 viewBox="0 0 758.49 424.53" style="enable-background:new 0 0 758.49 424.53;" xml:space="preserve">
<style type="text/css">
	.st0{fill:none;stroke:#4C4C4C;stroke-miterlimit:10;}
</style>
<image style="overflow:visible;" width="3509" height="2480" xlink:href="C-9.jpg"  transform="matrix(0.24 0 0 0.24 -46.4717 -69.2264)">
</image>
<polygon id="outline" class="st0" points="692.45,103.65 42.05,103.65 42.05,278.13 52.85,278.13 53.09,285.57 72.29,285.57 
	72.05,278.61 85.97,278.37 85.97,285.57 104.69,285.57 104.93,278.13 117.65,278.37 118.13,285.57 137.33,285.57 137.09,277.89 
	150.29,278.13 150.53,285.57 169.73,285.57 169.49,278.85 182.93,278.61 183.17,285.57 201.89,285.57 201.89,278.85 215.57,278.85 
	215.57,285.57 234.77,285.57 234.77,278.37 247.73,278.37 247.73,285.57 266.93,285.57 266.93,278.13 279.65,278.13 279.65,285.57 
	298.85,285.57 298.85,278.13 312.29,278.13 312.29,285.57 331.97,285.57 331.97,278.13 345.17,278.13 345.17,285.57 364.85,285.57 
	364.85,278.37 377.33,278.37 377.33,285.57 397.01,285.57 397.01,278.37 409.73,278.37 409.73,285.57 429.17,285.57 428.93,278.13 
	442.61,278.13 442.61,285.57 461.81,285.57 461.81,278.61 474.53,278.61 474.53,285.57 493.73,285.57 493.73,278.85 506.45,278.85 
	506.45,285.57 526.13,285.57 526.13,278.85 539.09,278.85 539.09,285.57 558.77,285.57 558.77,278.61 571.97,278.61 571.97,285.57 
	590.93,285.57 590.93,277.89 604.37,277.89 604.37,285.57 623.81,285.57 623.81,278.61 637.25,278.61 637.25,285.57 656.21,285.57 
	656.21,278.37 670.13,278.37 670.13,285.57 689.09,285.57 689.09,278.13 692.45,278.13 "/>
<polygon id="C9-21" class="st0" points="42.05,104.13 75.17,104.13 75.17,278.37 72.29,278.37 72.29,285.57 53.09,285.57 
	52.85,278.61 42.05,278.61 "/>
<polygon id="C9-22" class="st0" points="75.05,104.13 108.17,104.13 108.17,278.37 105.29,278.37 105.29,285.57 86.09,285.57 
	85.85,278.61 75.05,278.61 "/>
<polygon id="C9-23" class="st0" points="108.17,104.13 140.17,104.13 140.17,278.37 137.39,278.37 137.39,285.57 118.83,285.57 
	118.6,278.61 108.17,278.61 "/>
<polygon id="C9-24" class="st0" points="140.17,104.13 172.17,104.13 172.17,278.37 169.39,278.37 169.39,285.57 150.83,285.57 
	150.6,278.61 140.17,278.61 "/>
<polygon id="C9-25" class="st0" points="172.17,104.13 205.17,104.13 205.17,278.37 202.3,278.37 202.3,285.57 183.17,285.57 
	182.93,278.61 172.17,278.61 "/>
<polygon id="C9-26" class="st0" points="205.17,104.13 237.17,104.13 237.17,278.37 234.39,278.37 234.39,285.57 215.83,285.57 
	215.6,278.61 205.17,278.61 "/>
<polygon id="C9-27" class="st0" points="237.17,104.13 270.17,104.13 270.17,278.37 267.3,278.37 267.3,285.57 248.17,285.57 
	247.93,278.61 237.17,278.61 "/>
<polygon id="C9-28" class="st0" points="270.17,104.13 302.17,104.13 302.17,278.37 299.39,278.37 299.39,285.57 280.83,285.57 
	280.6,278.61 270.17,278.61 "/>
<polygon id="C9-29" class="st0" points="302.17,104.13 335.17,104.13 335.17,278.37 332.3,278.37 332.3,285.57 313.17,285.57 
	312.93,278.61 302.17,278.61 "/>
<polygon id="C9-30" class="st0" points="335.17,104.13 367.17,104.13 367.17,278.37 364.39,278.37 364.39,285.57 345.83,285.57 
	345.6,278.61 335.17,278.61 "/>
<polygon id="C9-31" class="st0" points="367.17,104.13 399.17,104.13 399.17,278.37 396.39,278.37 396.39,285.57 377.83,285.57 
	377.6,278.61 367.17,278.61 "/>
<polygon id="C9-32" class="st0" points="399.17,104.13 432.17,104.13 432.17,278.37 429.3,278.37 429.3,285.57 410.17,285.57 
	409.93,278.61 399.17,278.61 "/>
<polygon id="C9-33" class="st0" points="432.17,104.13 465.17,104.13 465.17,278.37 462.3,278.37 462.3,285.57 443.17,285.57 
	442.93,278.61 432.17,278.61 "/>
<polygon id="C9-34" class="st0" points="465.17,104.13 497.17,104.13 497.17,278.37 494.39,278.37 494.39,285.57 475.83,285.57 
	475.6,278.61 465.17,278.61 "/>
<polygon id="C9-35" class="st0" points="497.17,104.13 529.49,104.13 529.49,278.37 526.68,278.37 526.68,285.57 507.94,285.57 
	507.71,278.61 497.17,278.61 "/>
<polygon id="C9-36" class="st0" points="529.49,104.13 562.17,104.13 562.17,278.37 559.33,278.37 559.33,285.57 540.38,285.57 
	540.14,278.61 529.49,278.61 "/>
<polygon id="C9-37" class="st0" points="562.17,104.13 594.17,104.13 594.17,278.37 591.39,278.37 591.39,285.57 572.83,285.57 
	572.6,278.61 562.17,278.61 "/>
<polygon id="C9-38" class="st0" points="594.17,104.13 626.91,104.13 626.91,278.37 624.07,278.37 624.07,285.57 605.08,285.57 
	604.85,278.61 594.17,278.61 "/>
<polygon id="C9-39" class="st0" points="626.91,104.13 659.09,104.13 659.09,278.37 656.29,278.37 656.29,285.57 637.64,285.57 
	637.41,278.61 626.91,278.61 "/>
<polygon id="C9-40" class="st0" points="659.09,104.13 692.45,104.13 692.45,278.37 689.55,278.37 689.55,285.57 670.21,285.57 
	669.97,278.61 659.09,278.61 "/>
</svg>
