<?xml version="1.0" encoding="utf-8"?>
<!-- Generator: Adobe Illustrator 25.0.1, SVG Export Plug-In . SVG Version: 6.00 Build 0)  -->
<svg version="1.1" id="C-12" xmlns="http://www.w3.org/2000/svg" xmlns:xlink="http://www.w3.org/1999/xlink" x="0px" y="0px"
	 viewBox="0 0 792 612" style="enable-background:new 0 0 792 612;" xml:space="preserve">
<style type="text/css">
	.st0{fill:none;stroke:#4C4C4C;stroke-miterlimit:10;}
</style>
<image style="overflow:visible;" width="3300" height="2550" xlink:href="C-12.jpg"  transform="matrix(0.24 0 0 0.24 0 0)">
</image>
<polygon id="outline" class="st0" points="46.6,128.68 51.28,128.68 51.28,121.84 80.08,121.84 80.08,128.68 104.2,128.68 
	104.2,121.84 132.28,121.84 132.28,128.68 139.12,128.68 139.12,121.84 168.28,121.84 168.28,128.68 203.56,128.68 203.56,123.28 
	232.72,121.84 232.72,128.68 238.84,128.68 238.84,121.84 268,121.84 268,128.68 284.2,128.68 284.2,121.84 313,121.84 313,128.68 
	318.76,128.68 318.76,121.84 347.92,121.84 347.92,128.68 364.48,128.68 364.48,121.84 393.64,121.84 393.64,128.68 398.32,128.68 
	398.32,121.84 427.12,121.84 427.12,128.68 444.04,128.68 444.04,121.84 473.2,121.84 473.2,128.68 478.6,128.68 478.6,121.84 
	507.04,121.84 507.04,128.68 523.6,128.68 523.6,121.84 552.76,121.84 552.76,128.68 557.44,128.68 557.44,121.84 586.96,121.84 
	586.96,128.68 603.52,128.68 603.52,121.84 633.4,121.84 633.4,128.68 638.08,128.68 638.08,121.84 666.52,121.84 666.52,128.68 
	683.8,128.68 683.8,121.84 712.24,121.84 712.24,128.68 715.84,128.68 715.84,473.74 710.6,473.92 710.26,480.04 681.82,480.04 
	681.62,473.74 670.28,473.75 670.48,480.04 641.68,480.04 641.88,473.92 630.72,473.75 630.52,480.04 602.62,480.04 602.89,474.01 
	590.94,474.1 591.1,480.04 562.66,480.04 562.48,473.83 550.91,473.93 550.78,480.04 522.52,480.04 522.52,473.74 511.53,473.84 
	511.72,480.04 482.38,480.04 482.17,474.01 471.02,474 471.22,480.04 442.6,480.04 442.51,474.1 431.36,473.76 431.26,480.04 
	403,480.04 403.18,474.01 391.84,473.82 391.84,480.04 363.4,480.04 363.58,474.1 351.7,473.83 351.7,480.04 323.62,480.04 
	323.71,474.11 311.77,474.01 311.56,480.04 283.3,480.04 283.08,473.74 272.5,473.74 272.5,480.04 244.06,480.04 243.86,474.11 
	231.82,473.92 231.82,480.04 203.56,480.04 203.74,474.28 172.96,474.28 172.87,480.04 144.52,480.04 144.52,473.83 133.54,473.92 
	133.53,435.58 130.75,435.58 130.48,442.24 101.86,441.88 101.86,435.85 93.77,435.97 93.94,389.68 90.52,389.68 90.61,396.07 
	62.08,396.34 62.08,390.04 45.7,390.58 "/>
<path id="C12-04" class="st0" d="M45.76,128.68c0,0,5.28,0.48,5.4,0c0.12-0.48,0-6.72,0-6.72h28.32l0.48,6.93h15.12l0.24,260.91
	h-4.68v6.48H62.08v-4.92h-16.2L45.76,128.68z"/>
<polygon id="C12-05" class="st0" points="130.24,435.28 130.24,441.88 101.92,441.88 101.92,435.28 93.64,435.28 95.56,128.89 
	104.08,128.89 103.84,121.96 132.76,122.44 133,128.92 135.28,128.92 135.09,435.28 "/>
<polygon id="C12-06" class="st0" points="135.28,128.92 139.36,128.92 139.43,121.96 167.56,121.96 167.96,128.44 177.43,128.14 
	177.64,474.28 173.59,474.28 173.59,479.76 144.52,480.04 144.27,474.41 135.09,474.52 "/>
<polygon id="C12-07_x2F_08" class="st0" points="231.99,474.31 231.88,480.76 203.92,480.76 203.81,474.28 177.64,474.28 
	177.43,128.14 204.07,128.08 203.92,122.12 232.76,122.5 232.84,128.58 236.32,128.74 236.32,474.22 "/>
<polygon id="C12-09" class="st0" points="272.16,474.24 272.16,480.66 243.9,480.66 243.9,474.24 235.64,474.24 236.32,128.74 
	239.08,128.62 239.01,122.37 267.16,122.2 267.22,128.73 276.52,128.73 276.04,474.4 "/>
<polygon id="C12-10" class="st0" points="276.52,128.73 285.16,128.67 285.16,122.44 312.88,122.44 312.88,128.35 316.6,128.23 
	316.12,474.28 311.43,474.28 311.43,479.76 283.6,480.03 283.6,474.4 276.04,474.4 "/>
<polygon id="C12-11" class="st0" points="351.89,474.24 351.89,480.66 323.84,480.66 323.84,474.24 315.64,474.24 316.31,128.74 
	319.05,128.62 318.98,122.37 346.93,122.2 346.99,128.73 356.22,128.73 355.74,474.4 "/>
<polygon id="C12-12" class="st0" points="356.22,128.73 364.79,128.67 364.79,122.44 392.31,122.44 392.31,128.35 396,128.23 
	395.53,474.28 390.87,474.28 390.87,479.76 363.25,480.03 363.24,474.4 355.74,474.4 "/>
<polygon id="C12-13" class="st0" points="430.5,474.24 430.5,480.66 402.85,480.66 402.85,474.24 394.76,474.24 395.43,128.74 
	398.13,128.62 398.06,122.37 425.61,122.2 425.67,128.73 434.77,128.73 434.3,474.4 "/>
<polygon id="C12-14" class="st0" points="435.03,128.73 443.86,128.67 443.86,122.44 472.2,122.44 472.2,128.35 476,128.23 
	475.51,474.28 470.71,474.28 470.71,479.76 442.27,480.03 442.27,474.4 434.54,474.4 "/>
<polygon id="C12-15" class="st0" points="511.34,474.24 511.34,480.66 482.94,480.66 482.94,474.24 474.64,474.24 475.32,128.74 
	478.1,128.62 478.03,122.37 506.32,122.2 506.38,128.73 515.72,128.73 515.24,474.4 "/>
<polygon id="C12-16" class="st0" points="515.72,128.73 524.41,128.67 524.41,122.44 552.27,122.44 552.27,128.35 556,128.23 
	555.52,474.28 550.8,474.28 550.8,479.76 522.84,480.03 522.84,474.4 515.24,474.4 "/>
<polygon id="C12-17" class="st0" points="590.89,474.24 590.89,480.66 562.84,480.66 562.84,474.24 554.64,474.24 555.31,128.74 
	558.05,128.62 557.98,122.37 585.93,122.2 585.99,128.73 595.22,128.73 594.74,474.4 "/>
<polygon id="C12-18" class="st0" points="595.22,128.73 603.79,128.67 603.79,122.44 632.31,122.44 632.31,128.35 635,128.23 
	634.53,474.28 629.87,474.28 629.87,479.76 602.25,480.03 602.24,474.4 594.74,474.4 "/>
<polygon id="C12-19" class="st0" points="670.89,474.24 670.89,480.66 642.84,480.66 642.84,474.24 634.64,474.24 635.31,128.74 
	638.05,128.62 637.98,122.37 665.93,122.2 665.99,128.73 675.22,128.73 674.74,474.4 "/>
<polygon id="C12-20" class="st0" points="675.22,128.73 683.79,128.67 683.79,122.44 712.31,122.44 712.31,128.35 715,128.23 
	714.53,474.28 709.87,474.28 709.87,479.76 682.25,480.03 682.24,474.4 674.74,474.4 "/>
</svg>
