<?xml version="1.0" encoding="utf-8"?>
<!-- Generator: Adobe Illustrator 25.0.1, SVG Export Plug-In . SVG Version: 6.00 Build 0)  -->
<svg version="1.1" id="Layer_1" xmlns="http://www.w3.org/2000/svg" xmlns:xlink="http://www.w3.org/1999/xlink" x="0px" y="0px"
	 viewBox="0 0 1920 1080" style="enable-background:new 0 0 1920 1080;" xml:space="preserve">
<style type="text/css">
	.st0{fill:none;stroke:#4C4C4C;stroke-miterlimit:10;}
</style>
<image style="overflow:visible;" width="2899" height="1175" xlink:href="C-10 SALE DRAWING.jpg"  transform="matrix(0.6394 0 0 0.6394 33.0933 164.3621)">
</image>
<polygon id="outline" class="st0" points="1762.22,325.56 1762.22,701.11 1123.54,701.11 1123.54,745.56 177.78,745.56 
	177.78,325.56 "/>
<rect id="C10-01" x="177.78" y="325.56" class="st0" width="80" height="420"/>
<rect id="C10-02" x="257.78" y="325.56" class="st0" width="78" height="420"/>
<rect id="C10-03" x="335.78" y="325.56" class="st0" width="77" height="420"/>
<rect id="C10-04" x="412.78" y="325.56" class="st0" width="80" height="420"/>
<rect id="C10-05" x="491.78" y="325.56" class="st0" width="80" height="420"/>
<rect id="C10-06" x="571.78" y="325.56" class="st0" width="78" height="420"/>
<rect id="C10-07" x="649.78" y="325.56" class="st0" width="77" height="420"/>
<rect id="C10-08" x="726.78" y="325.56" class="st0" width="80" height="420"/>
<rect id="C10-09" x="807.78" y="325.56" class="st0" width="80" height="420"/>
<rect id="C10-10" x="887.78" y="325.56" class="st0" width="78" height="420"/>
<rect id="C10-11" x="965.78" y="325.56" class="st0" width="77" height="420"/>
<rect id="C10-12" x="1042.78" y="325.56" class="st0" width="80" height="420"/>
<rect id="C10-13" x="1121.78" y="325.56" class="st0" width="80" height="379.48"/>
<rect id="C10-14" x="1201.78" y="325.56" class="st0" width="78" height="379.48"/>
<rect id="C10-15" x="1279.78" y="325.56" class="st0" width="82.14" height="379.48"/>
<rect id="C10-16" x="1361.92" y="325.56" class="st0" width="77.86" height="379.48"/>
<rect id="C10-17" x="1439.78" y="325.56" class="st0" width="82.14" height="379.48"/>
<rect id="C10-18" x="1521.92" y="325.56" class="st0" width="77.86" height="379.48"/>
<rect id="C10-19" x="1599.78" y="325.56" class="st0" width="82.14" height="379.48"/>
<rect id="C10-20" x="1681.92" y="325.56" class="st0" width="77.86" height="379.48"/>
</svg>
