<?xml version="1.0" encoding="utf-8"?>
<!-- Generator: Adobe Illustrator 25.0.1, SVG Export Plug-In . SVG Version: 6.00 Build 0)  -->
<svg version="1.1" id="C-7" xmlns="http://www.w3.org/2000/svg" xmlns:xlink="http://www.w3.org/1999/xlink" x="0px" y="0px"
	 viewBox="0 0 1920 1080" style="enable-background:new 0 0 1920 1080;" xml:space="preserve">
<style type="text/css">
	.st0{fill:none;stroke:#4C4C4C;stroke-miterlimit:10;}
</style>
<image style="overflow:visible;enable-background:new    ;" width="3300" height="2550" xlink:href="C-7 first floor.jpg"  transform="matrix(0.5037 0 0 0.5037 128.8889 -102.2222)">
</image>
<rect id="outline" x="314.68" y="260.08" class="st0" width="1372.48" height="279.92"/>
<rect id="C7-140" x="314.68" y="260.08" class="st0" width="69.48" height="279.92"/>
<rect id="C7-139" x="383.68" y="260.08" class="st0" width="69.48" height="279.92"/>
<rect id="C7-138" x="452.68" y="260.08" class="st0" width="69.48" height="279.92"/>
<rect id="C7-137" x="522.68" y="260.08" class="st0" width="68.31" height="279.92"/>
<rect id="C7-136" x="590.52" y="260.08" class="st0" width="68.31" height="279.92"/>
<rect id="C7-135" x="658.37" y="260.08" class="st0" width="68.31" height="279.92"/>
<rect id="C7-134" x="726.68" y="260.08" class="st0" width="69.48" height="279.92"/>
<rect id="C7-133" x="795.68" y="260.08" class="st0" width="69.48" height="279.92"/>
<rect id="C7-132" x="864.68" y="260.08" class="st0" width="69.48" height="279.92"/>
<rect id="C7-131" x="933.68" y="260.08" class="st0" width="69.48" height="279.92"/>
<rect id="C7-130" x="1003.68" y="260.08" class="st0" width="68.31" height="279.92"/>
<rect id="C7-129" x="1071.99" y="260.08" class="st0" width="67.84" height="279.92"/>
<rect id="C7-128" x="1139.37" y="260.08" class="st0" width="68.31" height="279.92"/>
<rect id="C7-127" x="1207.68" y="260.08" class="st0" width="69.48" height="279.92"/>
<rect id="C7-126" x="1277.16" y="260.08" class="st0" width="64.6" height="279.92"/>
<rect id="C7-125" x="1341.76" y="260.08" class="st0" width="67.8" height="279.92"/>
<rect id="C7-124" x="1409.56" y="260.08" class="st0" width="71.66" height="279.92"/>
<rect id="C7-123" x="1480.76" y="260.08" class="st0" width="67.62" height="279.92"/>
<rect id="C7-122" x="1548.38" y="260.08" class="st0" width="68.78" height="279.92"/>
<rect id="C7-121" x="1618.38" y="260.08" class="st0" width="68.78" height="279.92"/>
</svg>
