<?xml version="1.0" encoding="utf-8"?>
<!-- Generator: Adobe Illustrator 25.0.1, SVG Export Plug-In . SVG Version: 6.00 Build 0)  -->
<svg version="1.1" id="C-7" xmlns="http://www.w3.org/2000/svg" xmlns:xlink="http://www.w3.org/1999/xlink" x="0px" y="0px"
	 viewBox="0 0 792 612" style="enable-background:new 0 0 792 612;" xml:space="preserve">
<style type="text/css">
	.st0{fill:none;stroke:#4C4C4C;stroke-miterlimit:10;}
</style>
<image style="overflow:visible;" width="3300" height="2550" xlink:href="C-7 ground floor.jpg"  transform="matrix(0.24 0 0 0.24 0 0)">
</image>
<polygon id="C7-40" class="st0" points="68.82,284.77 104.24,284.77 104.2,144.82 67.76,144.67 "/>
<polygon id="C7-39" class="st0" points="136.71,284.77 136.71,145.09 104.24,144.82 104.28,284.77 "/>
<polygon id="C7-38" class="st0" points="138.14,285.27 173.36,285.27 173.36,144.82 136.71,145.09 "/>
<polygon id="C7-37" class="st0" points="173.36,144.82 205.65,144.75 205.65,284.77 173.36,284.77 "/>
<rect id="C7-36" x="205.65" y="144.75" class="st0" width="34.71" height="140.01"/>
<rect id="C7-35" x="240.36" y="145.98" class="st0" width="34.47" height="138.78"/>
<rect id="C7-34" x="274.83" y="145.98" class="st0" width="34.47" height="138.78"/>
<rect id="C7-33" x="309.3" y="145.98" class="st0" width="34.95" height="138.78"/>
<rect id="C7-32" x="344.45" y="145.98" class="st0" width="33.83" height="138.78"/>
<rect id="C7-31" x="378.28" y="145.98" class="st0" width="34.47" height="138.78"/>
<rect id="C7-30" x="412.74" y="145.98" class="st0" width="34.95" height="138.78"/>
<polygon id="C7-29" class="st0" points="483.53,285.27 482.21,145.09 446.97,144.82 447.01,284.77 "/>
<polygon id="C7-28" class="st0" points="483.53,285.27 516.31,285.27 516.31,144.82 482.21,145.09 "/>
<polygon id="C7-27" class="st0" points="516.31,144.82 551.14,144.75 551.14,284.77 516.31,284.77 "/>
<rect id="C7-26" x="551.14" y="144.75" class="st0" width="34.71" height="140.01"/>
<rect id="C7-25" x="585.85" y="145.98" class="st0" width="34.47" height="138.78"/>
<rect id="C7-24" x="620.32" y="145.98" class="st0" width="34.47" height="138.78"/>
<rect id="C7-23" x="654.79" y="145.98" class="st0" width="34.95" height="138.78"/>
<rect id="C7-22" x="689.94" y="145.98" class="st0" width="33.83" height="138.78"/>
<rect id="C7-21" x="723.77" y="145.98" class="st0" width="34.47" height="138.78"/>
<polygon id="outline" class="st0" points="68.01,140.63 93.68,140.63 93.68,144.96 105.13,144.96 105.13,140.63 130.68,140.63 
	130.68,144.96 138.28,144.96 138.28,141.35 162.38,141.35 162.38,144.96 174.67,144.96 174.67,141.35 300.62,141.35 300.62,144.96 
	312.43,144.96 312.43,141.11 369.92,141.11 369.92,144.96 381.13,144.96 381.13,140.63 406.32,140.63 406.32,144.96 419.21,144.96 
	419.21,141.23 444.4,141.23 444.4,144.96 455.97,144.96 455.97,141.11 480.56,141.11 480.56,144.96 488.51,144.96 488.51,140.63 
	512.98,140.63 512.98,144.96 524.67,144.96 524.67,140.99 564.56,140.99 651.34,140.99 651.34,144.96 663.03,144.96 663.03,140.99 
	687.98,140.99 687.98,144.96 696.05,144.96 696.05,141.59 720.16,141.59 720.16,144.96 731.73,144.96 731.73,140.63 758.48,140.63 
	758.48,285.27 68.01,285.27 "/>
</svg>
