<?xml version="1.0" encoding="utf-8"?>
<!-- Generator: Adobe Illustrator 25.0.1, SVG Export Plug-In . SVG Version: 6.00 Build 0)  -->
<svg version="1.1" id="C-7" xmlns="http://www.w3.org/2000/svg" xmlns:xlink="http://www.w3.org/1999/xlink" x="0px" y="0px"
	 viewBox="0 0 3080.16 1814.4" style="enable-background:new 0 0 3080.16 1814.4;" xml:space="preserve">
<style type="text/css">
	.st0{fill:none;stroke:#4C4C4C;stroke-miterlimit:10;}
	.st1{fill:none;}
</style>
<image style="overflow:visible;" width="3300" height="2550" xlink:href="C7-Second-floor.jpg"  transform="matrix(1 0 0 1 -195.88 -439.96)">
</image>
<rect id="C7-241" x="2847.96" y="529.2" class="st0" width="144.72" height="270"/>
<rect id="C7-242" x="2702.96" y="529.2" class="st0" width="144.72" height="270"/>
<rect id="C7-243" x="2558.96" y="529.2" class="st0" width="144.72" height="270"/>
<rect id="C7-244" x="2413.96" y="529.2" class="st0" width="144.72" height="270"/>
<rect id="C7-245" x="2268.96" y="529.2" class="st0" width="144.72" height="270"/>
<rect id="C7-246" x="2121.96" y="529.2" class="st0" width="144.72" height="270"/>
<rect id="C7-247" x="1975.96" y="529.2" class="st0" width="144.72" height="270"/>
<rect id="C7-248" x="1831.96" y="529.2" class="st0" width="144.72" height="270"/>
<rect id="C7-249" x="1686.96" y="529.2" class="st0" width="144.72" height="270"/>
<rect id="C7-250" x="1541.96" y="529.2" class="st0" width="144.72" height="270"/>
<rect id="C7-251" x="1394.96" y="529.2" class="st0" width="144.72" height="270"/>
<rect id="C7-252" x="1252.96" y="529.2" class="st0" width="144.72" height="270"/>
<rect id="C7-253" x="1108.96" y="529.2" class="st0" width="144.72" height="270"/>
<rect id="C7-254" x="963.96" y="529.2" class="st0" width="144.72" height="270"/>
<rect id="C7-255" x="818.96" y="529.2" class="st0" width="144.72" height="270"/>
<rect id="C7-256" x="671.96" y="529.2" class="st0" width="144.72" height="270"/>
<rect id="C7-257" x="526.68" y="529.2" class="st0" width="145.28" height="269"/>
<rect id="C7-258" x="381.96" y="529.2" class="st0" width="144.72" height="270"/>
<rect id="C7-259" x="236.96" y="529.2" class="st0" width="144.72" height="270"/>
<rect id="C7-260" x="91.96" y="529.2" class="st0" width="144.72" height="270"/>
<rect id="C7-261" x="2847.96" y="205.2" class="st0" width="144.72" height="270"/>
<rect id="C7-262" x="2702.96" y="205.2" class="st0" width="144.72" height="270"/>
<rect id="C7-263" x="2558.96" y="205.2" class="st0" width="144.72" height="270"/>
<rect id="C7-264" x="2413.96" y="205.2" class="st0" width="144.72" height="270"/>
<rect id="C7-265" x="2268.96" y="205.2" class="st0" width="144.72" height="270"/>
<rect id="C7-266" x="2178.96" y="205.2" class="st0" width="87.72" height="270"/>
<rect id="C7-267" x="1974.96" y="205.2" class="st0" width="144.72" height="270"/>
<rect id="C7-268" x="1830.96" y="205.2" class="st0" width="144.72" height="270"/>
<rect id="C7-269" x="1685.96" y="205.2" class="st0" width="144.72" height="270"/>
<rect id="C7-270" x="1540.96" y="205.2" class="st0" width="144.72" height="270"/>
<rect id="C7-271" x="1393.96" y="205.2" class="st0" width="144.72" height="270"/>
<rect id="C7-272" x="1253.96" y="205.2" class="st0" width="144.72" height="270"/>
<rect id="C7-273" x="1103.96" y="205.2" class="st0" width="144.72" height="270"/>
<rect id="C7-274" x="958.96" y="205.2" class="st0" width="144.72" height="270"/>
<rect id="C7-275" x="813.96" y="205.2" class="st0" width="87.84" height="270"/>
<rect id="C7-276" x="666.96" y="205.2" class="st0" width="144.72" height="270"/>
<rect id="C7-277" x="526.68" y="205.2" class="st0" width="140.28" height="270"/>
<rect id="C7-278" x="381.96" y="206.2" class="st0" width="144.72" height="270"/>
<rect id="C7-279" x="236.96" y="206.2" class="st0" width="144.72" height="270"/>
<rect id="C7-280" x="91.96" y="206.2" class="st0" width="144.72" height="270"/>
<rect id="outline" x="91.96" y="170.99" class="st1" width="2900.72" height="628.21"/>
</svg>
