<?xml version="1.0" encoding="utf-8"?>
<!-- Generator: Adobe Illustrator 25.0.1, SVG Export Plug-In . SVG Version: 6.00 Build 0)  -->
<svg version="1.1" id="B-7" xmlns="http://www.w3.org/2000/svg" xmlns:xlink="http://www.w3.org/1999/xlink" x="0px" y="0px"
	 viewBox="0 0 1920 1080" style="enable-background:new 0 0 1920 1080;" xml:space="preserve">
<style type="text/css">
	.st0{fill:none;stroke:#4C4C4C;stroke-miterlimit:10;}
</style>
<image style="overflow:visible;" width="3509" height="2480" xlink:href="EAF73083.jpg"  transform="matrix(0.5548 0 0 0.5548 -13.3333 -147.9073)">
</image>
<polygon id="outline" class="st0" points="197.78,641.11 197.78,327.78 1733.33,327.93 1733.33,641.11 "/>
<rect id="B7-26" x="197.78" y="327.78" class="st0" width="117.82" height="310.88"/>
<rect id="B7-25" x="315.6" y="327.78" class="st0" width="117.53" height="310.88"/>
<rect id="B7-24" x="433.13" y="327.78" class="st0" width="117.99" height="310.88"/>
<rect id="B7-23" x="551.99" y="327.78" class="st0" width="118.37" height="310.88"/>
<rect id="B7-22" x="670.37" y="327.78" class="st0" width="117.25" height="310.88"/>
<rect id="B7-21" x="787.46" y="327.78" class="st0" width="116.91" height="310.88"/>
<rect id="B7-20" x="905.4" y="327.78" class="st0" width="119.19" height="310.88"/>
<rect id="B7-19" x="1024.58" y="327.78" class="st0" width="118.7" height="310.88"/>
<rect id="B7-18" x="1143.28" y="327.78" class="st0" width="117.11" height="313.33"/>
<rect id="B7-17" x="1261.27" y="327.78" class="st0" width="117.44" height="313.33"/>
<rect id="B7-16" x="1378.71" y="327.78" class="st0" width="115.03" height="313.33"/>
<rect id="B7-15" x="1493.74" y="329.58" class="st0" width="119.8" height="309.53"/>
<rect id="B7-14" x="1613.59" y="329.58" class="st0" width="119.75" height="309.53"/>
</svg>
