<?xml version="1.0" encoding="utf-8"?>
<!-- Generator: Adobe Illustrator 25.0.1, SVG Export Plug-In . SVG Version: 6.00 Build 0)  -->
<svg version="1.1" id="B-5" xmlns="http://www.w3.org/2000/svg" xmlns:xlink="http://www.w3.org/1999/xlink" x="0px" y="0px"
	 viewBox="0 0 1920 1080" style="enable-background:new 0 0 1920 1080;" xml:space="preserve">
<style type="text/css">
	.st0{fill:none;stroke:#4C4C4C;stroke-miterlimit:10;}
</style>
<image style="overflow:visible;" width="3509" height="2480" xlink:href="../../../AppData/Local/Temp/Rar$DIa0.208/0001.jpg"  transform="matrix(0.561 0 0 0.561 -24.3311 -155.68)">
</image>
<polygon id="outline" class="st0" points="191.92,641.11 191.92,327.78 1737.34,327.93 1737.34,641.11 "/>
<rect id="B5-26" x="191.92" y="327.78" class="st0" width="118.58" height="310.88"/>
<rect id="B5-25" x="310.5" y="327.78" class="st0" width="118.28" height="310.88"/>
<rect id="B5-24" x="428.78" y="327.78" class="st0" width="118.75" height="310.88"/>
<rect id="B5-23" x="548.4" y="327.78" class="st0" width="119.13" height="310.88"/>
<rect id="B5-22" x="667.54" y="327.78" class="st0" width="118" height="310.88"/>
<rect id="B5-21" x="785.39" y="327.78" class="st0" width="117.66" height="310.88"/>
<rect id="B5-20" x="904.08" y="327.78" class="st0" width="119.96" height="310.88"/>
<rect id="B5-19" x="1024.03" y="327.78" class="st0" width="119.46" height="310.88"/>
<rect id="B5-18" x="1143.49" y="327.78" class="st0" width="117.86" height="313.33"/>
<rect id="B5-17" x="1262.24" y="327.78" class="st0" width="118.19" height="313.33"/>
<rect id="B5-16" x="1380.43" y="327.78" class="st0" width="115.77" height="313.33"/>
<rect id="B5-15" x="1496.2" y="329.58" class="st0" width="120.57" height="309.53"/>
<rect id="B5-14" x="1616.82" y="329.58" class="st0" width="120.52" height="309.53"/>
</svg>
