<?xml version="1.0" encoding="utf-8"?>
<!-- Generator: Adobe Illustrator 25.0.1, SVG Export Plug-In . SVG Version: 6.00 Build 0)  -->
<svg version="1.1" id="B4" xmlns="http://www.w3.org/2000/svg" xmlns:xlink="http://www.w3.org/1999/xlink" x="0px" y="0px"
	 viewBox="0 0 3389 1907" style="enable-background:new 0 0 3389 1907;" xml:space="preserve">
<style type="text/css">
	.st0{fill:none;stroke:#353535;stroke-miterlimit:10;}
	.st1{fill:none;stroke:#000000;stroke-width:2;stroke-miterlimit:10;}
</style>
<image style="overflow:visible;" width="3389" height="1907" xlink:href="B4.jpg" >
</image>
<polygon id="outline_3_" class="st0" points="2700.2,1079.4 2731.3,1079.4 2730.5,1098.6 2847.1,1098.6 2847.1,1078 2877,1078.2 
	2877,1098.6 2990.8,1098.6 2990.8,1078.2 3019.4,1078.2 3019.2,1097.1 3137.9,1098.6 3137.9,491.9 1681.8,491.9 1681.8,1077.1 
	1716.3,1077.9 1716.3,1098.6 1831.6,1097.1 1830.9,1078.8 1861.7,1078.8 1861.1,1096.3 1977.8,1098.6 1977.8,1077.1 2003.7,1077.6 
	2004,1098.6 2120.1,1098.6 2120,1080.5 2148.8,1080.5 2148.8,1098.6 2266.7,1098.6 2266.7,1079.4 2293.7,1079.4 2294.8,1098.6 
	2412.8,1098.6 2412.8,1079.4 2441.5,1079.4 2442.6,1098.6 2555.2,1096.7 2555.2,1081.1 2584.1,1080.7 2583.8,1096.7 2701.2,1096.5 
	"/>
<polygon id="B4-01" class="st1" points="1681.8,491.9 1829.2,491.9 1829.2,1072.5 1829.2,1097.4 1716.3,1098.6 1716.3,1077.9 
	1681.8,1077.1 "/>
<polygon id="B4-02" class="st1" points="1827.8,494.9 1972,494.9 1973.8,1097.4 1859,1096.7 1860,1077.3 1827.8,1077.7 "/>
<polygon id="B4-03" class="st1" points="1972,494.9 2117.8,494.9 2120.1,1094.9 2003.7,1094.9 2003.7,1074.2 1973.8,1073.6 "/>
<polygon id="B4-04" class="st1" points="2263.5,494.9 2117.8,494.9 2117.8,1077 2149.8,1077 2148.8,1098.6 2266.7,1097.1 
	2263.5,739.9 "/>
<polygon id="B4-05" class="st1" points="2409.9,494.9 2263.5,491.9 2263.5,1075.9 2293.5,1075.9 2294.6,1094.9 2409.9,1094.9 "/>
<polygon id="B4-06" class="st1" points="2554.5,491.9 2408,491.9 2408,1075.9 2440.7,1075.9 2439.9,1096.7 2557,1096.7 "/>
<polygon id="B4-07" class="st1" points="2552.7,494.9 2700.2,494.9 2702.4,1075.9 2701.3,1098.6 2583.8,1096.7 2583.8,1078.4 
	2554.5,1077.6 "/>
<polygon id="B4-08" class="st1" points="2845.4,494.9 2845.4,1094.9 2731.3,1094.9 2731.3,1075.9 2700.2,1075.9 2700.2,494.9 "/>
<polygon id="B4-09" class="st1" points="2991.9,491.9 2990.8,1097.1 2875.3,1097.1 2875.3,1078.2 2843.9,1078.7 2843.9,491.9 "/>
<polygon id="B4-10" class="st1" points="3136.9,494.9 2989.4,494.9 2990.8,1078.2 3019.4,1078.2 3019.2,1097.1 3136.9,1097.1 "/>
</svg>
