<?xml version="1.0" encoding="utf-8"?>
<!-- Generator: Adobe Illustrator 25.0.1, SVG Export Plug-In . SVG Version: 6.00 Build 0)  -->
<svg version="1.1" id="B2" xmlns="http://www.w3.org/2000/svg" xmlns:xlink="http://www.w3.org/1999/xlink" x="0px" y="0px"
	 viewBox="0 0 3389 2183.5" style="enable-background:new 0 0 3389 2183.5;" xml:space="preserve">
<style type="text/css">
	.st0{fill:none;stroke:#353535;stroke-miterlimit:10;}
	.st1{fill:none;stroke:#000000;stroke-width:2;stroke-miterlimit:10;}
</style>
<image style="overflow:visible;" width="3389" height="1907" xlink:href="B2.jpg"  transform="matrix(1 0 0 1 0 276.48)">
</image>
<polygon id="outline_3_" class="st0" points="1248.4,1355.3 1279.5,1355.3 1279.5,1374.5 1393.6,1374.5 1393.6,1351.8 
	1423.5,1354.1 1423.5,1374.5 1537.6,1374.5 1537.6,1354.1 1567.6,1354.1 1567.6,1374.5 1685.1,1374.5 1685.1,767.8 225.3,767.8 
	225.3,1353 259.8,1353.8 259.8,1374.5 377.4,1374.5 377.4,1354.7 405.6,1354.7 405,1374.5 522,1374.5 522,1353 551.9,1353.5 
	551.9,1374.5 668.3,1374.5 668.3,1356.4 696.5,1356.4 696.5,1374.5 811.7,1374.5 811.7,1355.3 841.7,1355.3 842.8,1374.5 
	958.1,1374.5 958.1,1355.3 986.9,1355.3 988,1374.5 1100.9,1374.5 1100.9,1357 1129.9,1356.6 1129.9,1374.5 1247.4,1374.5 "/>
<polygon id="B2-01" class="st1" points="225.3,770.8 377.4,770.8 377.4,1348.4 377.4,1370.8 259.8,1370.8 259.8,1350.3 
	225.3,1349.5 "/>
<polygon id="B2-02" class="st1" points="376,770.8 520.2,770.8 522,1370.8 405,1370.8 405.6,1351.2 377.4,1351.2 "/>
<polygon id="B2-03" class="st1" points="520.2,770.8 666,770.8 668.3,1370.8 551.9,1370.8 551.9,1350.1 522,1349.5 "/>
<polygon id="B2-04" class="st1" points="811.7,770.8 666,770.8 668.3,1352.9 696.5,1352.9 696.5,1370.8 811.7,1370.8 811.7,1015.8 
	"/>
<polygon id="B2-05" class="st1" points="958.1,770.8 811.7,770.8 811.7,1351.8 841.7,1351.8 842.8,1370.8 958.1,1370.8 "/>
<polygon id="B2-06" class="st1" points="1100.9,770.8 958.1,770.8 958.1,1351.8 986.9,1351.8 988,1370.8 1100.9,1370.8 "/>
<polygon id="B2-07" class="st1" points="1100.9,770.8 1248.4,770.8 1248.4,1351.8 1248.4,1370.8 1132,1370.8 1132,1350.6 
	1100.9,1347.2 "/>
<polygon id="B2-08" class="st1" points="1393.6,770.8 1393.6,1370.8 1279.5,1370.8 1279.5,1351.8 1248.4,1351.8 1248.4,770.8 "/>
<polygon id="B2-09" class="st1" points="1537.6,770.8 1537.6,1370.8 1423.5,1370.8 1423.5,1350.6 1393.6,1348.4 1393.6,770.8 "/>
<polygon id="B2-10" class="st1" points="1685.1,770.8 1537.6,770.8 1537.6,1350.6 1567.6,1350.6 1567.6,1370.8 1685.1,1370.8 "/>
</svg>
