<?xml version="1.0" encoding="utf-8"?>
<!-- Generator: Adobe Illustrator 25.0.1, SVG Export Plug-In . SVG Version: 6.00 Build 0)  -->
<svg version="1.1" id="B-8" xmlns="http://www.w3.org/2000/svg" xmlns:xlink="http://www.w3.org/1999/xlink" x="0px" y="0px"
	 viewBox="0 0 1920 1080" style="enable-background:new 0 0 1920 1080;" xml:space="preserve">
<style type="text/css">
	.st0{fill:none;stroke:#4C4C4C;stroke-miterlimit:10;}
</style>
<image style="overflow:visible;" width="3509" height="2480" xlink:href="74798B98.jpg"  transform="matrix(0.5651 0 0 0.5651 -31.3868 -160.6667)">
</image>
<polygon id="outline" class="st0" points="148.48,463.84 229.6,463.84 229.6,456.64 311.2,456.64 311.2,448.48 394.72,448.48 
	394.72,441.28 477.28,441.28 477.28,433.6 559.84,433.6 559.84,425.92 642.88,425.92 642.88,419.68 724,419.68 724,411.04 
	808,411.04 808,404.8 891.04,404.8 891.04,397.12 974.08,397.12 974.08,389.92 1055.68,389.92 1055.68,382.24 1138.72,382.24 
	1138.72,375.04 1222.72,375.04 1222.72,368.32 1303.36,368.32 1303.36,361.6 1387.36,361.6 1387.36,353.44 1469.44,353.44 
	1469.44,345.76 1552.48,345.76 1552.48,339.04 1634.08,339.04 1634.08,332.32 1717.12,332.32 1717.12,325.12 1802.56,325.12 
	1802.56,624.16 148.48,624.16 "/>
<rect id="B8-20" x="1717.6" y="324.16" class="st0" width="84.83" height="300.96"/>
<rect id="B8-19" x="1634.08" y="332.42" class="st0" width="83.23" height="292.7"/>
<rect id="B8-18" x="1553.44" y="338.56" class="st0" width="80.99" height="286.56"/>
<rect id="B8-17" x="1469.92" y="346.42" class="st0" width="83.52" height="278.7"/>
<rect id="B8-16" x="1386.6" y="354.4" class="st0" width="84.83" height="270.72"/>
<rect id="B8-15" x="1303.08" y="361.83" class="st0" width="83.23" height="263.29"/>
<rect id="B8-14" x="1222.44" y="367.35" class="st0" width="80.99" height="257.77"/>
<rect id="B8-13" x="1138.92" y="374.43" class="st0" width="83.52" height="250.69"/>
<rect id="B8-12" x="1054.92" y="382.72" class="st0" width="83.52" height="242.4"/>
<rect id="B8-11" x="974.6" y="391.36" class="st0" width="80.32" height="233.76"/>
<rect id="B8-10" x="891.08" y="399.29" class="st0" width="83.23" height="225.83"/>
<rect id="B8-09" x="808.48" y="404.03" class="st0" width="82.95" height="221.09"/>
<rect id="B8-08" x="726.92" y="412.48" class="st0" width="83.52" height="212.64"/>
<rect id="B8-07" x="643.6" y="419.68" class="st0" width="84.83" height="205.44"/>
<rect id="B8-06" x="560.08" y="426.24" class="st0" width="83.23" height="198.88"/>
<rect id="B8-05" x="479.44" y="435.04" class="st0" width="80.99" height="190.08"/>
<rect id="B8-04" x="395.92" y="442.72" class="st0" width="83.52" height="182.4"/>
<rect id="B8-03" x="311.92" y="449.44" class="st0" width="83.52" height="175.68"/>
<rect id="B8-02" x="230.92" y="456.64" class="st0" width="83.52" height="168.48"/>
<rect id="B8-01" x="146.92" y="462.85" class="st0" width="83.52" height="162.27"/>
</svg>
