<?xml version="1.0" encoding="utf-8"?>
<!-- Generator: Adobe Illustrator 25.0.1, SVG Export Plug-In . SVG Version: 6.00 Build 0)  -->
<svg version="1.1" id="B3" xmlns="http://www.w3.org/2000/svg" xmlns:xlink="http://www.w3.org/1999/xlink" x="0px" y="0px"
	 viewBox="0 0 2808 2449.4" style="enable-background:new 0 0 2808 2449.4;" xml:space="preserve">
<style type="text/css">
	.st0{fill:none;stroke:#4C4C4C;stroke-miterlimit:10;}
</style>
<image style="overflow:visible;enable-background:new    ;" width="3300" height="2550" xlink:href="B3.jpg"  transform="matrix(1 0 0 1 -296.56 -33.88)">
</image>
<polygon id="B3-20" class="st0" points="297.4,233.3 297.4,205.2 463.7,205.2 463.7,238.3 526.3,238.3 524.2,1117.4 297.4,1117.4 
	"/>
<polygon id="B3-19" class="st0" points="750.2,235.4 688.3,231.8 688.3,208.8 540,208.8 540,235.4 526.3,235.4 524.2,1117.4 
	750.2,1117.4 "/>
<polygon id="B3-18" class="st0" points="752.4,233.3 752.4,205.2 918.7,205.2 918.7,238.3 981.3,238.3 979.2,1117.4 752.4,1117.4 
	"/>
<polygon id="B3-17" class="st0" points="1205.2,231.5 1140.1,231.6 1141.2,207 988.2,205.2 988.2,234 981.3,235.4 979.2,1117.4 
	1205.2,1117.4 "/>
<polygon id="B3-16" class="st0" points="1428.2,231.5 1363.1,231.6 1364.2,207 1211.2,205.2 1211.2,234 1204.3,235.4 1202.2,1117.4 
	1428.2,1117.4 "/>
<polygon id="B3-15" class="st0" points="1651.2,231.5 1586.1,231.6 1587.2,207 1434.2,205.2 1434.2,234 1427.3,235.4 1425.2,1117.4 
	1651.2,1117.4 "/>
<polygon id="B3-14" class="st0" points="1876.2,231.5 1811.1,231.6 1812.2,207 1659.2,205.2 1659.2,234 1652.3,235.4 1650.2,1117.4 
	1876.2,1117.4 "/>
<polygon id="B3-13" class="st0" points="2099.2,231.5 2034.1,231.6 2035.2,207 1882.2,205.2 1882.2,234 1875.3,235.4 1873.2,1117.4 
	2099.2,1117.4 "/>
<polygon id="B3-12" class="st0" points="2322.2,231.5 2257.1,231.6 2258.2,207 2105.2,205.2 2105.2,234 2098.3,235.4 2096.2,1117.4 
	2322.2,1117.4 "/>
<polygon id="B3-11" class="st0" points="2555.2,231.5 2488.1,231.6 2489.2,207 2331.6,205.2 2331.6,234 2324.5,235.4 2322.2,1117.4 
	2555.2,1117.4 "/>
<polygon id="outline" class="st0" points="464.6,207.4 464.6,233.3 539,233.3 539,207.4 688.8,207.4 688.8,232.8 763.7,232.8 
	763.7,207.4 915.4,207.4 915.4,230.9 986.4,230.9 986.4,207.4 1140,207.4 1140,230.4 1213.9,230.4 1213.9,207.4 1365.1,207.4 
	1365.1,232.8 1439,232.8 1439,207.4 1590.2,207.4 1590.2,231.4 1664.6,231.4 1664.6,207.4 1815.8,207.4 1815.8,232.8 1889.8,232.8 
	1889.8,207.4 2040.5,207.4 2040.5,231.8 2114.4,231.8 2114.4,207.4 2265.1,207.4 2265.1,233.8 2338.6,232.8 2338.6,207.4 
	2490.5,207.4 2490.5,233.3 2546.6,233.3 2546.6,1121 304.6,1121 299.5,207.4 "/>
</svg>
