<?xml version="1.0" encoding="utf-8"?>
<!-- Generator: Adobe Illustrator 25.0.1, SVG Export Plug-In . SVG Version: 6.00 Build 0)  -->
<svg version="1.1" id="Layer_1" xmlns="http://www.w3.org/2000/svg" xmlns:xlink="http://www.w3.org/1999/xlink" x="0px" y="0px"
	 viewBox="0 0 2384.2 1684.1" style="enable-background:new 0 0 2384.2 1684.1;" xml:space="preserve">
<style type="text/css">
	.st0{fill:none;stroke:#4C4C4C;stroke-miterlimit:10;}
</style>
<image style="overflow:visible;" width="9934" height="7017" xlink:href="D7.jpg"  transform="matrix(0.24 0 0 0.24 0 0)">
</image>
<polygon id="D7-27" class="st0" points="1912.2,765.9 1780.8,764.4 1780.8,228 1845.7,228 1845.7,222.3 1903.2,222.3 1903.2,228.8 
	1914,228.8 "/>
<polygon id="D7-28" class="st0" points="1649.4,764.4 1780.8,764.4 1780.8,228 1710.9,228 1710.9,222.3 1653,222.3 1653,227.3 
	1649.4,227.3 "/>
<polygon id="D7-29" class="st0" points="1520.5,229.8 1556.5,229.8 1556.5,222.3 1614.8,222.3 1614.8,229.8 1649.4,229.8 
	1649.4,764.4 1517.6,764.4 "/>
<polygon id="D7-30" class="st0" points="1387.5,231.5 1398.8,231.3 1398.8,222.3 1457.1,222.3 1457.1,231.8 1520.5,231.8 
	1517.6,764.4 1386.6,764.4 "/>
<polygon id="D7-31" class="st0" points="1258.5,231.8 1294.9,232 1294.9,222.3 1350.7,222.3 1350.7,229.8 1386.6,229.8 
	1386.6,764.4 1258.5,764.4 "/>
<polygon id="D7-32" class="st0" points="1125.5,231.5 1136.8,231.3 1136.8,222.3 1195.1,222.3 1195.1,231.8 1258.5,231.8 
	1258.5,764.4 1124.6,764.4 "/>
<polygon id="D7-33" class="st0" points="993,231.8 1030.4,232 1030.4,222.3 1087.8,222.3 1087.8,229.8 1124.6,229.8 1124.6,764.4 
	993,764.4 "/>
<polygon id="D7-34" class="st0" points="861.4,231 873.9,231 873.9,222.3 931.5,222.3 931.5,231 993,231 993,764.4 861.4,764.4 "/>
<polygon id="D7-35" class="st0" points="730.9,229.6 804.3,229.6 804.3,222.3 861.4,222.3 861.4,764.4 728.5,764.4 "/>
<polygon id="D7-36" class="st0" points="599.4,230.6 607.5,230.6 607.5,222.3 666.1,222.3 666.1,230.6 730.9,230.6 730.9,764.4 
	599.4,764.4 "/>
<polygon id="D7-37" class="st0" points="469.3,229.1 506.7,229.1 506.7,222.3 564.3,222.3 564.3,229.1 599.4,229.1 599.4,764.4 
	466.4,764.4 "/>
<polygon id="D7-38" class="st0" points="335.4,230.1 348.3,230.1 348.3,222.3 404.5,222.3 404.5,228.2 469.3,228.2 469.3,764.4 
	335.4,764.4 "/>
<polygon id="D7-39" class="st0" points="204.3,230.6 243.7,230.6 243.7,222.3 301.8,222.3 301.8,230.6 335.4,230.6 335.4,764.4 
	204.3,764.4 "/>
<polygon id="D7-40" class="st0" points="72.3,229.6 84.3,229.6 84.3,222.3 142.4,222.3 142.4,229.6 204.3,229.6 204.3,764.4 
	72.3,764.4 "/>
<path id="outline" class="st0" d="M1908.9,762.5H72.1V229.6h12.2v-7.7h58.6v8.6h102.2v-8.6h56.2v7.2h46.1v-7.2H406v8.2h99.4v-8.2
	h59.5v7.7H607v-7.7h58.1v6.2h140.2v-6.2h57.1v6.7H873v-6.7h57.6v6.7h100.8l0.5-6.7h58.1v5.8h45.1v-5.8h57v6.7h102.3v-6.7h56.6v6.2
	h48v-6.2h58.1v5.8c0,0,101.8,0.5,101.8,0s0-5.8,0-5.8h57.6v8.2h35.5v-8.2h59.5v6.2h134.4v-6.2h59.5v6.2h8.6v534.4H1908.9z"/>
</svg>
