<?xml version="1.0" encoding="utf-8"?>
<!-- Generator: Adobe Illustrator 25.0.1, SVG Export Plug-In . SVG Version: 6.00 Build 0)  -->
<svg version="1.1" id="D-10" xmlns="http://www.w3.org/2000/svg" xmlns:xlink="http://www.w3.org/1999/xlink" x="0px" y="0px"
	 viewBox="0 0 735 328.8" style="enable-background:new 0 0 735 328.8;" xml:space="preserve">
<style type="text/css">
	.st0{fill:none;stroke:#4C4C4C;stroke-miterlimit:10;}
</style>
<image style="overflow:visible;" width="735" height="329" xlink:href="D-10.jpg"  transform="matrix(1 0 0 1 1 -0.1)">
</image>
<polygon id="outline" class="st0" points="58.76,45.36 706,45.36 706,217.5 702.16,217.5 702.16,226.6 683.59,226.6 683.59,217.9 
	669.19,217.9 669.19,226.6 650.7,226.6 650.7,218 637.74,218 637.74,226.6 618.69,226.6 618.69,218.39 605.25,218.39 605.25,227 
	586.12,227 586.12,217.8 573.24,217.8 573.24,227 554.11,227 554.11,218.1 540.67,218.1 540.67,227 521.7,227 521.7,218.19 
	508.58,218.19 508.58,227 489.45,227 489.45,218.1 476.25,218.1 476.25,227 457.2,227 457.2,218 443.84,218 443.84,227 424.95,227 
	424.95,218.49 411.75,218.49 411.75,227 392.63,227 392.63,218.1 379.58,218.1 379.58,227 360.7,227 360.7,218.39 346.93,218.39 
	346.93,227 327.89,227 327.89,218.1 314.84,218.1 314.84,227 295.72,227 295.72,218 282.51,218 282.51,227 263.63,227 263.63,217.7 
	250.34,217.7 250.34,227 231.22,227 231.22,218.1 217.93,218.1 217.93,227 198.89,227 198.89,218 185.76,218 185.76,227 166.88,227 
	166.88,217.8 153.35,217.8 153.35,227 134.47,227 134.47,217.6 121.26,217.6 121.26,227 102.14,227 102.14,218.29 88.69,218.29 
	88.69,227 69.81,227 69.81,218.29 58.28,218.29 "/>
<polygon id="D10-01" class="st0" points="91.63,218.73 88.39,218.63 88.39,227 69.17,227 69.17,218.04 58.28,218.04 58.28,45.36 
	91.63,45.36 "/>
<polyline id="D10-02" class="st0" points="123.57,218.43 123.26,45.36 91.63,45.36 91.63,218.73 101.19,218.7 101.19,227 
	120.41,227 120.41,218.43 123.57,218.43 "/>
<polygon id="D10-03" class="st0" points="156.56,218.73 153.32,218.63 153.32,227 134.11,227 134.14,218.73 123.57,218.43 
	123.22,45.36 156.56,45.36 "/>
<polygon id="D10-04" class="st0" points="188.59,218.73 185.34,218.63 185.34,227 166.13,227 166.13,218.7 156.56,218.73 
	156.56,45.36 188.2,45.36 "/>
<polygon id="D10-05" class="st0" points="221.5,218.73 218.26,218.63 218.26,227 199.04,227 199.04,218.04 188.15,218.04 
	188.15,45.36 221.5,45.36 "/>
<polyline id="D10-06" class="st0" points="253.44,218.43 253.13,45.36 221.5,45.36 221.5,218.73 231.07,218.7 231.07,227 
	250.28,227 250.28,218.43 253.44,218.43 "/>
<polygon id="D10-07" class="st0" points="285.43,218.73 282.19,218.63 282.19,227 262.98,227 263.02,218.73 252.44,218.43 
	252.09,45.36 285.43,45.36 "/>
<polygon id="D10-08" class="st0" points="317.46,218.73 314.21,218.63 314.21,227 295,227 295,218.7 285.43,218.73 285.43,45.36 
	317.07,45.36 "/>
<polygon id="D10-09" class="st0" points="348.59,218.73 345.54,218.63 345.54,227 327.5,227 327.5,218.04 317.27,218.04 
	317.27,45.36 348.59,45.36 "/>
<polyline id="D10-10" class="st0" points="381.54,218.43 381.23,45.36 349.59,45.36 349.59,218.73 359.16,218.7 359.16,227 
	378.37,227 378.37,218.43 381.54,218.43 "/>
<polygon id="D10-11" class="st0" points="414.52,218.73 411.28,218.63 411.28,227 392.07,227 392.11,218.73 381.54,218.43 
	381.18,45.36 414.52,45.36 "/>
<polygon id="D10-12" class="st0" points="446.55,218.73 443.31,218.63 443.31,227 424.09,227 424.09,218.7 414.52,218.73 
	414.52,45.36 446.16,45.36 "/>
<polygon id="D10-13" class="st0" points="479.46,218.73 476.22,218.63 476.22,227 457,227 457,218.04 446.12,218.04 446.12,45.36 
	479.46,45.36 "/>
<polyline id="D10-14" class="st0" points="511.41,218.43 511.1,45.36 479.46,45.36 479.46,218.73 489.03,218.7 489.03,227 
	508.24,227 508.24,218.43 511.41,218.43 "/>
<polygon id="D10-15" class="st0" points="542.64,218.73 539.57,218.63 539.57,227 521.37,227 521.4,218.73 511.39,218.43 
	511.05,45.36 542.64,45.36 "/>
<polygon id="D10-16" class="st0" points="576.42,218.73 573.18,218.63 573.18,227 553.96,227 553.96,218.7 544.39,218.73 
	544.39,45.36 576.03,45.36 "/>
<polygon id="D10-17" class="st0" points="608.44,218.73 605.31,218.63 605.31,227 586.75,227 586.75,218.04 576.23,218.04 
	576.23,45.36 608.44,45.36 "/>
<polyline id="D10-18" class="st0" points="640.39,218.43 640.08,45.36 608.44,45.36 608.44,218.73 618.01,218.7 618.01,227 
	637.22,227 637.22,218.43 640.39,218.43 "/>
<polygon id="D10-19" class="st0" points="673.38,218.73 670.13,218.63 670.13,227 650.92,227 650.96,218.73 640.39,218.43 
	640.03,45.36 673.38,45.36 "/>
<polygon id="D10-20" class="st0" points="706,218.73 702.7,218.63 702.7,227 683.12,227 683.12,218.7 673.38,218.73 673.38,45.36 
	705.61,45.36 "/>
</svg>
