<?xml version="1.0" encoding="utf-8"?>
<!-- Generator: Adobe Illustrator 25.0.1, SVG Export Plug-In . SVG Version: 6.00 Build 0)  -->
<svg version="1.1" id="D-12" xmlns="http://www.w3.org/2000/svg" xmlns:xlink="http://www.w3.org/1999/xlink" x="0px" y="0px"
	 viewBox="0 0 830 458" style="enable-background:new 0 0 830 458;" xml:space="preserve">
<style type="text/css">
	.st0{fill:none;stroke:#353535;stroke-miterlimit:10;}
	.st1{fill:none;stroke:#4C4C4C;stroke-width:2;stroke-miterlimit:10;}
</style>
<image style="overflow:visible;" width="3509" height="2480" xlink:href="D-12.jpg"  transform="matrix(0.24 0 0 0.24 -6 -62)">
</image>
<path id="outline" class="st0" d="M70.28,315.36h10.08v6.12h34.56v-6.12h10.44v6.12h34.2v-6.12h9.72v6.12h34.56v-6.12h9.36v6.12
	h35.28v-6.12h9.72v6.12h34.92v-6.12h10.08v6.12h33.84v-6.12h9.72v6.12c0,0,34.92,1.08,35.28,0c0.36-1.08,0-6.12,0-6.12h9.72v6.6
	h34.56v-6.6h9v6.6h34.92v-6.6h9.72v6.6h34.92v-6.6h9.72v6.6h34.92v-6.6h9.36v6.6h34.92v-6.6h9.36v6.6h34.92v-6.6h10.08v6.6h35.28
	v-6.6h9.36v6.6h34.92L737,83.16H70.28V315.36z"/>
<polygon id="D12-06" class="st1" points="69.67,83.76 114.78,83.76 114.78,311.57 114.78,321.38 80.22,321.86 80.22,315.7 
	69.67,315.38 "/>
<polygon id="D12-07" class="st1" points="114.35,83.94 158.48,83.94 159.03,321.38 123.9,321.11 124.2,313.46 114.35,313.62 "/>
<polygon id="D12-08" class="st1" points="158.48,83.94 203.1,83.94 203.81,320.4 168.18,320.4 168.18,315.24 159.03,315 "/>
<polygon id="D12-09" class="st1" points="247.7,83.94 203.1,83.94 203.1,315.34 212.9,315.34 212.59,321.86 248.67,321.27 
	247.7,180.5 "/>
<polygon id="D12-10" class="st1" points="292.5,83.94 248.67,83.68 247.7,314.91 256.88,314.91 257.21,320.4 292.5,320.4 "/>
<polygon id="D12-11" class="st1" points="336.76,83.76 291.92,83.76 291.92,314.91 301.93,314.91 301.68,322.11 337.52,322.11 "/>
<polygon id="D12-12" class="st1" points="336.21,83.94 381.35,83.94 381.98,314.91 381.68,321.86 346.4,321.86 346.64,315.72 
	337.52,315.6 "/>
<polygon id="D12-13" class="st1" points="425.79,83.94 425.79,320.4 390.87,320.4 390.87,314.91 381.35,314.91 381.35,83.94 "/>
<polygon id="D12-14" class="st1" points="470.62,83.76 470.29,322.27 434.94,322.27 434.94,314.82 425.33,315.01 425.33,83.76 "/>
<polygon id="D12-15" class="st1" points="515,83.94 469.86,83.94 470.29,314.82 479.04,314.82 478.98,321.27 515,321.27 "/>
<polygon id="D12-16" class="st1" points="558.76,83.76 513.92,83.76 513.92,315.84 523.93,315.91 523.68,322.11 559.52,322.11 "/>
<polygon id="D12-17" class="st1" points="558.21,83.94 603.35,83.94 604.02,312.91 603.68,321.86 567.72,321.11 567.72,313.9 
	558.76,313.58 "/>
<polygon id="D12-18" class="st1" points="647.79,83.94 647.79,320.4 612.87,320.4 612.87,315.91 603.35,315.91 603.35,83.94 "/>
<polygon id="D12-19" class="st1" points="692.62,83.76 692.29,322.27 656.94,322.27 656.94,314.82 647.33,315.01 647.33,83.76 "/>
<polygon id="D12-20" class="st1" points="737,83.94 691.86,83.94 692.29,314.82 701.04,314.82 700.98,321.27 737,321.27 "/>
</svg>
