<?xml version="1.0" encoding="utf-8"?>
<!-- Generator: Adobe Illustrator 25.0.1, SVG Export Plug-In . SVG Version: 6.00 Build 0)  -->
<svg version="1.1" id="D-9" xmlns="http://www.w3.org/2000/svg" xmlns:xlink="http://www.w3.org/1999/xlink" x="0px" y="0px"
	 viewBox="0 0 813 351" style="enable-background:new 0 0 813 351;" xml:space="preserve">
<style type="text/css">
	.st0{fill:none;stroke:#4C4C4C;stroke-miterlimit:10;}
</style>
<image style="overflow:visible;" width="3509" height="2480" xlink:href="../../Downloads/0001.jpg"  transform="matrix(0.24 0 0 0.24 -16 -94)">
</image>
<polygon id="outline" class="st0" points="21.76,81.76 749.68,81.76 749.68,238.36 745.36,238.36 745.36,246.64 724.48,246.64 
	724.48,238.72 708.28,238.72 708.28,246.64 687.49,246.64 687.49,238.81 672.91,238.81 672.91,246.64 651.49,246.64 651.49,239.17 
	636.37,239.17 636.37,247 614.86,247 614.86,238.63 600.37,238.63 600.37,247 578.86,247 578.86,238.9 563.74,238.9 563.74,247 
	542.41,247 542.41,238.99 527.65,238.99 527.65,247 506.14,247 506.14,238.9 491.29,238.9 491.29,247 469.87,247 469.87,238.81 
	454.84,238.81 454.84,247 433.6,247 433.6,239.26 418.75,239.26 418.75,247 397.24,247 397.24,238.9 382.57,238.9 382.57,247 
	361.33,247 361.33,239.17 345.85,239.17 345.85,247 324.43,247 324.43,238.9 309.76,238.9 309.76,247 288.25,247 288.25,238.81 
	273.4,238.81 273.4,247 252.16,247 252.16,238.54 237.22,238.54 237.22,247 215.71,247 215.71,238.9 200.77,238.9 200.77,247 
	179.35,247 179.35,238.81 164.59,238.81 164.59,247 143.35,247 143.35,238.63 128.14,238.63 128.14,247 106.9,247 106.9,238.45 
	92.05,238.45 92.05,247 70.54,247 70.54,239.08 55.42,239.08 55.42,247 34.18,247 34.18,239.08 21.22,239.08 "/>
<polygon id="D9-21" class="st0" points="59.36,239.35 55.72,239.26 55.72,246.88 34.12,246.88 34.12,238.72 21.88,238.72 
	21.88,81.52 59.36,81.52 "/>
<polyline id="D9-22" class="st0" points="95.28,239.08 94.93,81.52 59.36,81.52 59.36,239.35 70.12,239.32 70.12,246.88 
	91.72,246.88 91.72,239.08 95.28,239.08 "/>
<polygon id="D9-23" class="st0" points="132.36,239.35 128.72,239.26 128.72,246.88 107.12,246.88 107.16,239.35 95.28,239.08 
	94.88,81.52 132.36,81.52 "/>
<polygon id="D9-24" class="st0" points="168.36,239.35 164.72,239.26 164.72,246.88 143.12,246.88 143.12,239.32 132.36,239.35 
	132.36,81.52 167.93,81.52 "/>
<polygon id="D9-25" class="st0" points="205.36,239.35 201.72,239.26 201.72,246.88 180.12,246.88 180.12,238.72 167.88,238.72 
	167.88,81.52 205.36,81.52 "/>
<polyline id="D9-26" class="st0" points="241.28,239.08 240.93,81.52 205.36,81.52 205.36,239.35 216.12,239.32 216.12,246.88 
	237.72,246.88 237.72,239.08 241.28,239.08 "/>
<polygon id="D9-27" class="st0" points="278.36,239.35 274.72,239.26 274.72,246.88 253.12,246.88 253.16,239.35 241.28,239.08 
	240.88,81.52 278.36,81.52 "/>
<polygon id="D9-28" class="st0" points="314.36,239.35 310.72,239.26 310.72,246.88 289.12,246.88 289.12,239.32 278.36,239.35 
	278.36,81.52 313.93,81.52 "/>
<polygon id="D9-29" class="st0" points="349.36,239.35 345.94,239.26 345.94,246.88 325.65,246.88 325.65,238.72 314.16,238.72 
	314.16,81.52 349.36,81.52 "/>
<polyline id="D9-30" class="st0" points="385.28,239.08 384.93,81.52 349.36,81.52 349.36,239.35 360.12,239.32 360.12,246.88 
	381.72,246.88 381.72,239.08 385.28,239.08 "/>
<polygon id="D9-31" class="st0" points="422.36,239.35 418.72,239.26 418.72,246.88 397.12,246.88 397.16,239.35 385.28,239.08 
	384.88,81.52 422.36,81.52 "/>
<polygon id="D9-32" class="st0" points="458.36,239.35 454.72,239.26 454.72,246.88 433.12,246.88 433.12,239.32 422.36,239.35 
	422.36,81.52 457.93,81.52 "/>
<polygon id="D9-33" class="st0" points="495.36,239.35 491.72,239.26 491.72,246.88 470.12,246.88 470.12,238.72 457.88,238.72 
	457.88,81.52 495.36,81.52 "/>
<polyline id="D9-34" class="st0" points="531.28,239.08 530.93,81.52 495.36,81.52 495.36,239.35 506.12,239.32 506.12,246.88 
	527.72,246.88 527.72,239.08 531.28,239.08 "/>
<polygon id="D9-35" class="st0" points="568.36,239.35 564.72,239.26 564.72,246.88 543.12,246.88 543.16,239.35 531.28,239.08 
	530.88,81.52 568.36,81.52 "/>
<polygon id="D9-36" class="st0" points="604.36,239.35 600.72,239.26 600.72,246.88 579.12,246.88 579.12,239.32 568.36,239.35 
	568.36,81.52 603.93,81.52 "/>
<polygon id="D9-37" class="st0" points="640.36,239.35 636.84,239.26 636.84,246.88 615.98,246.88 615.98,238.72 604.16,238.72 
	604.16,81.52 640.36,81.52 "/>
<polyline id="D9-38" class="st0" points="676.28,239.08 675.93,81.52 640.36,81.52 640.36,239.35 651.12,239.32 651.12,246.88 
	672.72,246.88 672.72,239.08 676.28,239.08 "/>
<polygon id="D9-39" class="st0" points="713.36,239.35 709.72,239.26 709.72,246.88 688.12,246.88 688.16,239.35 676.28,239.08 
	675.88,81.52 713.36,81.52 "/>
<polygon id="D9-40" class="st0" points="750.04,239.35 746.33,239.26 746.33,246.88 724.32,246.88 724.32,239.32 713.36,239.35 
	713.36,81.52 749.6,81.52 "/>
</svg>
