<?xml version="1.0" encoding="utf-8"?>
<!-- Generator: Adobe Illustrator 25.0.1, SVG Export Plug-In . SVG Version: 6.00 Build 0)  -->
<svg version="1.1" xmlns="http://www.w3.org/2000/svg" xmlns:xlink="http://www.w3.org/1999/xlink" x="0px" y="0px"
	 viewBox="0 0 723.76 496.04" style="enable-background:new 0 0 723.76 496.04;" xml:space="preserve">
<style type="text/css">
	.st0{display:none;fill:none;stroke:#4C4C4C;stroke-miterlimit:10;}
	.st1{fill:none;stroke:#4C4C4C;stroke-miterlimit:10;}
</style>
<g id="C-5">
	
		<image style="overflow:visible;" width="3509" height="2480" xlink:href="8AB129A0.jpg"  transform="matrix(0.24 0 0 0.24 -60.604 -62.8515)">
	</image>
	<polygon id="outline" class="st0" points="55.82,86.63 274.34,87.17 274.34,96.17 677.36,95.81 677.54,214.79 55.82,214.79 	"/>
	<rect id="C5-21" x="645.2" y="96.11" class="st0" width="31.68" height="118.8"/>
	<rect id="C5-22" x="614.2" y="96.11" class="st0" width="31" height="118.8"/>
	<rect id="C5-23" x="582.2" y="96.11" class="st0" width="32" height="118.8"/>
	<rect id="C5-24" x="551.2" y="96.11" class="st0" width="31" height="118.8"/>
	<rect id="C5-25" x="520.19" y="96.11" class="st0" width="31" height="118.8"/>
	<rect id="C5-26" x="489.85" y="96.11" class="st0" width="30.34" height="118.8"/>
	<rect id="C5-27" x="458.54" y="96.11" class="st0" width="31.32" height="118.8"/>
	<rect id="C5-28" x="428.2" y="96.11" class="st0" width="30.34" height="118.8"/>
	<rect id="C5-29" x="396.6" y="96.11" class="st0" width="31.59" height="118.8"/>
	<rect id="C5-30" x="365.69" y="96.11" class="st0" width="30.92" height="118.8"/>
	<rect id="C5-31" x="333.77" y="96.11" class="st0" width="31.91" height="118.8"/>
	<rect id="C5-32" x="303.68" y="96.11" class="st0" width="31.32" height="118.8"/>
	<rect id="C5-33" x="273.45" y="96.11" class="st0" width="29.41" height="118.8"/>
	<rect id="C5-35" x="210.45" y="87.71" class="st0" width="32" height="127.2"/>
	<rect id="C5-34" x="242.45" y="87.71" class="st0" width="31" height="127.2"/>
	<rect id="C5-36" x="180.45" y="86.97" class="st0" width="30" height="127.93"/>
	<rect id="C5-37" x="149.42" y="86.82" class="st0" width="31.04" height="128.09"/>
	<rect id="C5-38" x="118.28" y="86.82" class="st0" width="30.18" height="128.13"/>
	<rect id="C5-39" x="87.2" y="86.74" class="st0" width="30.26" height="128.17"/>
	<rect id="C5-40" x="56" y="87.71" class="st0" width="31.46" height="127.2"/>
</g>
<g id="D6">
	<rect id="outline_1_" x="55.84" y="222.11" class="st1" width="621.7" height="164.4"/>
	<rect id="D6-20" x="645.8" y="223.31" class="st1" width="31.73" height="163.2"/>
	<rect id="D6-19" x="614.75" y="223.31" class="st1" width="31.05" height="163.2"/>
	<rect id="D6-18" x="582.7" y="223.31" class="st1" width="32.05" height="163.2"/>
	<rect id="D6-17" x="551.65" y="223.31" class="st1" width="31.05" height="163.2"/>
	<rect id="D6-16" x="520.6" y="223.31" class="st1" width="31.06" height="163.2"/>
	<rect id="D6-15" x="490.21" y="223.31" class="st1" width="30.39" height="163.2"/>
	<rect id="D6-14" x="458.84" y="223.31" class="st1" width="31.37" height="163.2"/>
	<rect id="D6-13" x="428.45" y="223.31" class="st1" width="30.39" height="163.2"/>
	<rect id="D6-12" x="396.8" y="223.31" class="st1" width="31.65" height="163.2"/>
	<rect id="D6-11" x="365.84" y="223.31" class="st1" width="30.97" height="163.2"/>
	<rect id="D6-10" x="333.87" y="223.31" class="st1" width="31.96" height="163.2"/>
	<rect id="D6-09" x="302.91" y="223.31" class="st1" width="30.97" height="163.2"/>
	<rect id="D6-08" x="273.45" y="223.31" class="st1" width="29.46" height="163.2"/>
	<rect id="D6-07" x="242.8" y="223.31" class="st1" width="30.65" height="163.2"/>
	<rect id="D6-06" x="211.75" y="223.31" class="st1" width="31.05" height="163.2"/>
	<rect id="D6-05" x="179.7" y="223.31" class="st1" width="32.05" height="163.2"/>
	<rect id="D6-04" x="148.65" y="223.31" class="st1" width="31.05" height="163.2"/>
	<rect id="D6-03" x="117.6" y="223.31" class="st1" width="31.06" height="163.2"/>
	<rect id="D6-02" x="87.21" y="223.31" class="st1" width="30.39" height="163.2"/>
	<rect id="D6-01" x="55.84" y="223.31" class="st1" width="31.37" height="163.2"/>
</g>
</svg>
