<?xml version="1.0" encoding="utf-8"?>
<!-- Generator: Adobe Illustrator 25.0.1, SVG Export Plug-In . SVG Version: 6.00 Build 0)  -->
<svg version="1.1" id="D-5" xmlns="http://www.w3.org/2000/svg" xmlns:xlink="http://www.w3.org/1999/xlink" x="0px" y="0px"
	 viewBox="0 0 718 481" style="enable-background:new 0 0 718 481;" xml:space="preserve">
<style type="text/css">
	.st0{fill:none;stroke:#4C4C4C;stroke-miterlimit:10;}
</style>
<image style="overflow:visible;enable-background:new    ;" width="3300" height="2550" xlink:href="D-5 2nd floor.jpg"  transform="matrix(0.24 0 0 0.24 -58 -71)">
</image>
<rect id="D5-240" x="29.5" y="81.8" class="st0" width="33" height="135.1"/>
<rect id="D5-239" x="62.5" y="81.8" class="st0" width="32.6" height="135.1"/>
<rect id="D5-238" x="95.1" y="81.8" class="st0" width="33.4" height="135.1"/>
<rect id="D5-237" x="128.5" y="81.8" class="st0" width="32.6" height="135.1"/>
<rect id="D5-236" x="161.1" y="81.8" class="st0" width="34.4" height="135.1"/>
<rect id="D5-235" x="195.5" y="81.8" class="st0" width="32.6" height="135.1"/>
<rect id="D5-234" x="228.1" y="81.8" class="st0" width="33.4" height="135.1"/>
<rect id="D5-233" x="261.5" y="81.8" class="st0" width="32.6" height="135.1"/>
<rect id="D5-232" x="294.5" y="81.8" class="st0" width="33" height="135.1"/>
<rect id="D5-231" x="327.5" y="81.8" class="st0" width="32.6" height="135.1"/>
<rect id="D5-230" x="360.1" y="81.8" class="st0" width="33.4" height="135.1"/>
<rect id="D5-229" x="393.5" y="81.8" class="st0" width="32.6" height="135.1"/>
<rect id="D5-228" x="426.1" y="81.8" class="st0" width="34.4" height="135.1"/>
<rect id="D5-227" x="460.5" y="81.8" class="st0" width="32.6" height="135.1"/>
<rect id="D5-226" x="493.1" y="81.8" class="st0" width="33.4" height="135.1"/>
<rect id="D5-225" x="526.5" y="81.8" class="st0" width="32.6" height="135.1"/>
<rect id="D5-224" x="559.1" y="81.8" class="st0" width="32.7" height="135.1"/>
<rect id="D5-223" x="591.8" y="81.8" class="st0" width="33.1" height="135.1"/>
<rect id="D5-222" x="624.9" y="81.8" class="st0" width="32.9" height="135.1"/>
<rect id="D5-221" x="657.8" y="81.8" class="st0" width="34.3" height="135.1"/>
<polygon id="outline" class="st0" points="692.1,217 29.5,217 29.5,81.8 692.1,81.8 "/>
</svg>
