<?xml version="1.0" encoding="utf-8"?>
<!-- Generator: Adobe Illustrator 25.0.1, SVG Export Plug-In . SVG Version: 6.00 Build 0)  -->
<svg version="1.1" id="D-5" xmlns="http://www.w3.org/2000/svg" xmlns:xlink="http://www.w3.org/1999/xlink" x="0px" y="0px"
	 viewBox="0 0 1920 1080" style="enable-background:new 0 0 1920 1080;" xml:space="preserve">
<style type="text/css">
	.st0{fill:none;stroke:#4C4C4C;stroke-miterlimit:10;}
</style>
<image style="overflow:visible;" width="3300" height="2550" xlink:href="D-5.jpg"  transform="matrix(0.4928 0 0 0.4928 146.9086 -88.2979)">
</image>
<rect id="outline_2_" x="325.84" y="264" class="st0" width="1343.52" height="276"/>
<rect id="D5-140" x="325.84" y="264" class="st0" width="68.01" height="276"/>
<rect id="D5-139" x="393.38" y="264" class="st0" width="68.01" height="276"/>
<rect id="D5-138" x="460.93" y="264" class="st0" width="68.01" height="276"/>
<rect id="D5-137" x="529.45" y="264" class="st0" width="66.87" height="276"/>
<rect id="D5-136" x="595.86" y="264" class="st0" width="66.87" height="276"/>
<rect id="D5-135" x="662.27" y="264" class="st0" width="66.87" height="276"/>
<rect id="D5-134" x="729.15" y="264" class="st0" width="68.01" height="276"/>
<rect id="D5-133" x="796.69" y="264" class="st0" width="68.01" height="276"/>
<rect id="D5-132" x="864.23" y="264" class="st0" width="68.01" height="276"/>
<rect id="D5-131" x="931.78" y="264" class="st0" width="65.82" height="276"/>
<rect id="D5-130" x="997.6" y="264" class="st0" width="66.47" height="276"/>
<rect id="D5-129" x="1064.07" y="264" class="st0" width="69.52" height="276"/>
<rect id="D5-128" x="1133.12" y="264" class="st0" width="66.87" height="276"/>
<rect id="D5-127" x="1200" y="264" class="st0" width="64.87" height="276"/>
<rect id="D5-126" x="1264.87" y="264" class="st0" width="66.38" height="276"/>
<rect id="D5-125" x="1333.25" y="264" class="st0" width="66.37" height="276"/>
<rect id="D5-124" x="1397.62" y="264" class="st0" width="70.15" height="276"/>
<rect id="D5-123" x="1467.32" y="264" class="st0" width="66.2" height="276"/>
<rect id="D5-122" x="1533.51" y="264" class="st0" width="67.32" height="276"/>
<rect id="D5-121" x="1602.04" y="264" class="st0" width="67.32" height="276"/>
</svg>
