<?xml version="1.0" encoding="utf-8"?>
<!-- Generator: Adobe Illustrator 25.0.1, SVG Export Plug-In . SVG Version: 6.00 Build 0)  -->
<svg version="1.1" id="Layer_1" xmlns="http://www.w3.org/2000/svg" xmlns:xlink="http://www.w3.org/1999/xlink" x="0px" y="0px"
	 viewBox="0 0 1920 1066" style="enable-background:new 0 0 1920 1066;" xml:space="preserve">
<style type="text/css">
	.st0{display:none;fill:none;stroke:#4C4C4C;stroke-width:0.5941;stroke-miterlimit:5.9414;}
	.st1{fill:none;stroke:#4C4C4C;stroke-width:0.5941;stroke-miterlimit:5.9414;}
</style>
<g id="Layer_3">
	
		<image style="overflow:visible;" width="3300" height="2550" xlink:href="D-7 ground floor edited.jpg"  transform="matrix(0.5428 0 0 0.5428 64.4533 -159.0133)">
	</image>
	<polygon id="outline_2_" class="st0" points="226.5,158 284.2,158 284.2,168.1 310,168.1 310,158 367.4,158 367.4,168.1 
		384.5,168.1 384.5,159.6 438.7,159.6 438.7,168.1 466.4,168.1 466.4,159.6 749.7,159.6 749.7,168.1 776.2,168.1 776.2,159.1 
		905.6,159.1 905.6,168.1 930.8,168.1 930.8,158 987.4,158 987.4,168.1 1016.4,168.1 1016.4,159.4 1073.1,159.4 1073.1,168.1 
		1099.1,168.1 1099.1,159.1 1154.4,159.1 1154.4,168.1 1172.3,168.1 1172.3,158 1227.3,158 1227.3,168.1 1253.6,168.1 1253.6,158.8 
		1343.3,158.8 1538.5,158.8 1538.5,168.1 1564.8,168.1 1564.8,158.8 1620.9,158.8 1620.9,168.1 1639.1,168.1 1639.1,160.2 
		1693.3,160.2 1693.3,168.1 1719.3,168.1 1719.3,158 1779.5,158 1779.5,498 226.5,498 	"/>
	<polygon id="D7-40" class="st1" points="228.7,486.2 302.8,486.2 302.7,157.2 226.5,156.9 	"/>
	<polygon id="D7-39" class="st1" points="381.6,486.2 381.6,157.9 302.8,157.2 302.8,486.2 	"/>
	<polygon id="D7-38" class="st1" points="381.6,486.2 458.3,486.2 458.3,157.2 381.6,157.9 	"/>
	<polygon id="D7-37" class="st1" points="458.3,157.2 536.6,157.1 536.6,486.2 458.3,486.2 	"/>
	<rect id="D7-36" x="536.6" y="157.1" class="st1" width="78.1" height="329.1"/>
	<rect id="D7-35" x="614.7" y="160" class="st1" width="77.5" height="326.2"/>
	<rect id="D7-34" x="692.2" y="160" class="st1" width="77.5" height="326.2"/>
	<rect id="D7-33" x="769.8" y="160" class="st1" width="78.6" height="326.2"/>
	<rect id="D7-32" x="848.8" y="160" class="st1" width="76.1" height="326.2"/>
	<rect id="D7-31" x="924.9" y="160" class="st1" width="77.5" height="326.2"/>
	<rect id="D7-30" x="1002.4" y="160" class="st1" width="78.6" height="326.2"/>
	<polygon id="D7-29" class="st1" points="1161.6,487.4 1158.7,161.7 1080.9,161.1 1080.9,486.2 	"/>
	<polygon id="D7-28" class="st1" points="1161.6,487.4 1235.4,487.4 1235.4,161.1 1158.7,161.7 	"/>
	<polygon id="D7-27" class="st1" points="1235.4,160.1 1313.7,160 1313.7,486.2 1235.4,486.2 	"/>
	<rect id="D7-26" x="1313.7" y="160" class="st1" width="78.1" height="326.2"/>
	<rect id="D7-25" x="1391.8" y="160" class="st1" width="77.5" height="326.2"/>
	<rect id="D7-24" x="1469.3" y="160" class="st1" width="77.5" height="326.2"/>
	<rect id="D7-23" x="1546.8" y="160" class="st1" width="78.6" height="326.2"/>
	<polygon id="D7-22A" class="st1" points="1702,169.4 1695.5,169.4 1695.5,160 1664.3,160 1664.3,486.2 1702,486.2 	"/>
	<polygon id="D7-22B" class="st1" points="1623.6,169.8 1637.9,169.8 1637.9,160 1664.3,160 1664.3,486.2 1624.6,486.2 	"/>
	<rect id="D7-21" x="1702" y="160" class="st1" width="77.5" height="326.2"/>
</g>
</svg>
