<?xml version="1.0" encoding="utf-8"?>
<!-- Generator: Adobe Illustrator 25.0.1, SVG Export Plug-In . SVG Version: 6.00 Build 0)  -->
<svg version="1.1" id="D-7" xmlns="http://www.w3.org/2000/svg" xmlns:xlink="http://www.w3.org/1999/xlink" x="0px" y="0px"
	 viewBox="0 0 1920 1080" style="enable-background:new 0 0 1920 1080;" xml:space="preserve">
<style type="text/css">
	.st0{fill:none;stroke:#4C4C4C;stroke-miterlimit:10;}
</style>
<image style="overflow:visible;" width="3300" height="2550" xlink:href="D-7.jpg"  transform="matrix(0.5453 0 0 0.5453 36.2776 -192.24)">
</image>
<rect id="outline_2_" x="238.72" y="198.16" class="st0" width="1484.64" height="304.84"/>
<rect id="D7-140" x="238.72" y="198.16" class="st0" width="75.15" height="304.84"/>
<rect id="D7-139" x="313.35" y="198.16" class="st0" width="75.15" height="304.84"/>
<rect id="D7-138" x="388" y="198.16" class="st0" width="75.15" height="304.84"/>
<rect id="D7-137" x="463.72" y="198.16" class="st0" width="73.89" height="304.84"/>
<rect id="D7-136" x="537.1" y="198.16" class="st0" width="73.89" height="304.84"/>
<rect id="D7-135" x="610.49" y="198.16" class="st0" width="73.89" height="304.84"/>
<rect id="D7-134" x="684.39" y="198.16" class="st0" width="75.15" height="304.84"/>
<rect id="D7-133" x="759.03" y="198.16" class="st0" width="75.15" height="304.84"/>
<rect id="D7-132" x="833.66" y="198.16" class="st0" width="75.15" height="304.84"/>
<rect id="D7-131" x="908.31" y="198.16" class="st0" width="72.73" height="304.84"/>
<rect id="D7-130" x="981.04" y="198.16" class="st0" width="73.45" height="304.84"/>
<rect id="D7-129" x="1054.49" y="198.16" class="st0" width="76.82" height="304.84"/>
<rect id="D7-128" x="1130.79" y="198.16" class="st0" width="73.89" height="304.84"/>
<rect id="D7-127" x="1204.7" y="198.16" class="st0" width="71.68" height="304.84"/>
<rect id="D7-126" x="1276.38" y="198.16" class="st0" width="73.35" height="304.84"/>
<rect id="D7-125" x="1351.95" y="198.16" class="st0" width="73.34" height="304.84"/>
<rect id="D7-124" x="1423.08" y="198.16" class="st0" width="77.52" height="304.84"/>
<rect id="D7-123" x="1500.1" y="198.16" class="st0" width="73.15" height="304.84"/>
<rect id="D7-122" x="1573.24" y="198.16" class="st0" width="74.39" height="304.84"/>
<rect id="D7-121" x="1648.97" y="198.16" class="st0" width="74.39" height="304.84"/>
</svg>
