<?xml version="1.0" encoding="utf-8"?>
<!-- Generator: Adobe Illustrator 25.0.1, SVG Export Plug-In . SVG Version: 6.00 Build 0)  -->
<svg version="1.1" xmlns="http://www.w3.org/2000/svg" xmlns:xlink="http://www.w3.org/1999/xlink" x="0px" y="0px"
	 viewBox="0 0 3154 2550" style="enable-background:new 0 0 3154 2550;" xml:space="preserve">
<style type="text/css">
	.st0{display:none;}
	.st1{display:inline;fill:none;stroke:#4C4C4C;stroke-width:0.5941;stroke-miterlimit:5.9414;}
	.st2{fill:none;stroke:#4C4C4C;stroke-width:0.5941;stroke-miterlimit:5.9414;}
</style>
<g id="Layer_1" class="st0">
	
		<image style="display:inline;overflow:visible;enable-background:new    ;" width="3300" height="2550" xlink:href="C-7 ground floor.jpg"  transform="matrix(0.5212 0 0 0.5107 644 616.8483)">
	</image>
	<polygon id="C7-40" class="st1" points="800.27,1224.93 876.9,1224.93 876.82,925.95 798,925.63 	"/>
	<polygon id="C7-39" class="st1" points="947.14,1224.93 947.14,926.53 876.9,925.95 876.99,1224.93 	"/>
	<polygon id="C7-38" class="st1" points="950.21,1226 1026.41,1226 1026.41,925.95 947.14,926.53 	"/>
	<polygon id="C7-37" class="st1" points="1026.41,925.95 1096.25,925.8 1096.25,1224.93 1026.41,1224.93 	"/>
	<rect id="C7-36" x="1096.25" y="925.8" class="st1" width="75.08" height="299.11"/>
	<rect id="C7-35" x="1171.33" y="928.43" class="st1" width="74.56" height="296.48"/>
	<rect id="C7-34" x="1245.88" y="928.43" class="st1" width="74.56" height="296.48"/>
	<rect id="C7-33" x="1320.44" y="928.43" class="st1" width="75.6" height="296.48"/>
	<rect id="C7-32" x="1396.47" y="928.43" class="st1" width="73.17" height="296.48"/>
	<rect id="C7-31" x="1469.62" y="928.43" class="st1" width="74.56" height="296.48"/>
	<rect id="C7-30" x="1544.18" y="928.43" class="st1" width="75.6" height="296.48"/>
	<polygon id="C7-29" class="st1" points="1697.29,1226 1694.42,926.53 1618.22,925.95 1618.3,1224.93 	"/>
	<polygon id="C7-28" class="st1" points="1697.29,1226 1768.2,1226 1768.2,925.95 1694.42,926.53 	"/>
	<polygon id="C7-27" class="st1" points="1768.2,925.95 1843.53,925.8 1843.53,1224.93 1768.2,1224.93 	"/>
	<rect id="C7-26" x="1843.53" y="925.8" class="st1" width="75.08" height="299.11"/>
	<rect id="C7-25" x="1918.61" y="928.43" class="st1" width="74.56" height="296.48"/>
	<rect id="C7-24" x="1993.17" y="928.43" class="st1" width="74.56" height="296.48"/>
	<rect id="C7-23" x="2067.72" y="928.43" class="st1" width="75.6" height="296.48"/>
	<rect id="C7-22" x="2143.75" y="928.43" class="st1" width="73.17" height="296.48"/>
	<rect id="C7-21" x="2216.92" y="928.43" class="st1" width="74.56" height="296.48"/>
	<polygon id="outline" class="st1" points="798.54,917 854.06,917 854.06,926.25 878.83,926.25 878.83,917 934.09,917 
		934.09,926.25 950.53,926.25 950.53,918.54 1002.66,918.54 1002.66,926.25 1029.24,926.25 1029.24,918.54 1301.67,918.54 
		1301.67,926.25 1327.21,926.25 1327.21,918.03 1451.56,918.03 1451.56,926.25 1475.81,926.25 1475.81,917 1530.29,917 
		1530.29,926.25 1558.17,926.25 1558.17,918.28 1612.66,918.28 1612.66,926.25 1637.68,926.25 1637.68,918.03 1690.87,918.03 
		1690.87,926.25 1708.07,926.25 1708.07,917 1760.99,917 1760.99,926.25 1786.28,926.25 1786.28,917.77 1872.56,917.77 
		2060.26,917.77 2060.26,926.25 2085.55,926.25 2085.55,917.77 2139.51,917.77 2139.51,926.25 2156.97,926.25 2156.97,919.05 
		2209.09,919.05 2209.09,926.25 2234.12,926.25 2234.12,917 2292,917 2292,1226 798.54,1226 	"/>
</g>
<g id="Layer_2" class="st0">
	
		<image style="display:inline;overflow:visible;enable-background:new    ;" width="3300" height="2550" xlink:href="F-6 ground floor.jpg"  transform="matrix(0.4498 0 0 0.4374 747.583 710.0902)">
	</image>
	<polygon id="F6-01" class="st1" points="883.18,1281.07 944.39,1281.07 944.39,1539.92 881.31,1540.28 	"/>
	<polygon id="F6-02" class="st1" points="1010.09,1281.07 1010.09,1539.37 944.39,1539.92 944.39,1281.07 	"/>
	<polygon id="F6-03" class="st1" points="1012.53,1280.16 1073.74,1280.16 1073.74,1539.92 1010.09,1539.37 	"/>
	<polygon id="F6-04" class="st1" points="1073.74,1539.92 1138.7,1540.1 1138.7,1281.07 1073.74,1281.07 	"/>
	<rect id="F6-05" x="1138.7" y="1281.07" class="st1" width="64.77" height="259.03"/>
	<rect id="F6-06" x="1203.65" y="1281.07" class="st1" width="64.39" height="256.85"/>
	<rect id="F6-07" x="1267.86" y="1281.07" class="st1" width="64.39" height="256.85"/>
	<rect id="F6-08" x="1332.26" y="1281.07" class="st1" width="65.33" height="256.85"/>
	<rect id="F6-09" x="1397.96" y="1281.07" class="st1" width="63.08" height="256.85"/>
	<rect id="F6-10" x="1461.04" y="1281.07" class="st1" width="64.39" height="256.85"/>
	<rect id="F6-11" x="1525.44" y="1281.07" class="st1" width="65.33" height="256.85"/>
	<polygon id="F6-12" class="st1" points="1657.6,1280.16 1654.98,1539.37 1589.27,1539.92 1589.27,1281.07 	"/>
	<polygon id="F6-13" class="st1" points="1657.6,1280.16 1718.62,1280.16 1718.62,1539.92 1654.98,1539.37 	"/>
	<polygon id="F6-14" class="st1" points="1718.62,1539.92 1783.77,1540.1 1783.77,1281.07 1718.62,1281.07 	"/>
	<rect id="F6-15" x="1783.77" y="1281.07" class="st1" width="64.77" height="259.03"/>
	<rect id="F6-16" x="1848.53" y="1281.07" class="st1" width="64.39" height="256.85"/>
	<rect id="F6-17" x="1912.93" y="1281.07" class="st1" width="64.39" height="256.85"/>
	<rect id="F6-18" x="1977.14" y="1281.07" class="st1" width="65.33" height="256.85"/>
	<rect id="F6-19" x="2042.84" y="1281.07" class="st1" width="63.08" height="256.85"/>
	<rect id="F6-20" x="2105.93" y="1281.07" class="st1" width="64.39" height="256.85"/>
	<polygon id="outline_1_" class="st1" points="881.87,1547.75 929.79,1547.75 929.79,1539.74 951.13,1539.74 951.13,1547.75 
		998.86,1547.75 998.86,1539.74 1013.09,1539.74 1013.09,1546.29 1058.02,1546.29 1058.02,1539.74 1081.04,1539.74 1081.04,1546.29 
		1316.16,1546.29 1316.16,1539.74 1338.06,1539.74 1338.06,1546.84 1445.51,1546.84 1445.51,1539.74 1466.29,1539.74 
		1466.29,1547.75 1513.46,1547.75 1513.46,1539.74 1537.42,1539.74 1537.42,1546.66 1584.4,1546.66 1584.4,1539.74 1606.12,1539.74 
		1606.12,1546.84 1651.98,1546.84 1651.98,1539.74 1666.77,1539.74 1666.77,1547.75 1712.45,1547.75 1712.45,1539.74 
		1734.35,1539.74 1734.35,1547.02 1808.85,1547.02 1970.77,1547.02 1970.77,1539.74 1992.67,1539.74 1992.67,1547.02 
		2039.1,1547.02 2039.1,1539.74 2054.26,1539.74 2054.26,1545.93 2099.19,1545.93 2099.19,1539.74 2120.9,1539.74 2120.9,1547.75 
		2170.69,1547.75 2170.69,1280.16 881.87,1280.16 	"/>
</g>
<g id="Layer_3" class="st0">
	
		<image style="display:inline;overflow:visible;" width="3300" height="2550" xlink:href="D-7 ground floor.jpg"  transform="matrix(0.4582 0 0 0.4447 748 701)">
	</image>
	<polygon id="D7-40" class="st1" points="884,1232.06 951.4,1232.06 951.32,969.28 882,969 	"/>
	<polygon id="D7-39" class="st1" points="1013.17,1232.06 1013.17,969.79 951.4,969.28 951.47,1232.06 	"/>
	<polygon id="D7-38" class="st1" points="1015.87,1233 1082.89,1233 1082.89,969.28 1013.17,969.79 	"/>
	<polygon id="D7-37" class="st1" points="1082.89,969.28 1144.32,969.15 1144.32,1232.06 1082.89,1232.06 	"/>
	<rect id="D7-36" x="1144.32" y="969.15" class="st1" width="66.03" height="262.89"/>
	<rect id="D7-35" x="1210.35" y="971.46" class="st1" width="65.57" height="260.58"/>
	<rect id="D7-34" x="1275.92" y="971.46" class="st1" width="65.57" height="260.58"/>
	<rect id="D7-33" x="1341.5" y="971.46" class="st1" width="66.49" height="260.58"/>
	<rect id="D7-32" x="1408.37" y="971.46" class="st1" width="64.36" height="260.58"/>
	<rect id="D7-31" x="1472.7" y="971.46" class="st1" width="65.57" height="260.58"/>
	<rect id="D7-30" x="1538.28" y="971.46" class="st1" width="66.49" height="260.58"/>
	<polygon id="D7-29" class="st1" points="1672.95,1233 1670.42,969.79 1603.4,969.28 1603.47,1232.06 	"/>
	<polygon id="D7-28" class="st1" points="1672.95,1233 1735.31,1233 1735.31,969.28 1670.42,969.79 	"/>
	<polygon id="D7-27" class="st1" points="1735.31,969.28 1801.56,969.15 1801.56,1232.06 1735.31,1232.06 	"/>
	<rect id="D7-26" x="1801.56" y="969.15" class="st1" width="66.03" height="262.89"/>
	<rect id="D7-25" x="1867.6" y="971.46" class="st1" width="65.57" height="260.58"/>
	<rect id="D7-24" x="1933.17" y="971.46" class="st1" width="65.57" height="260.58"/>
	<rect id="D7-23" x="1998.74" y="971.46" class="st1" width="66.49" height="260.58"/>
	<rect id="D7-22" x="2065.61" y="971.46" class="st1" width="64.36" height="260.58"/>
	<rect id="D7-21" x="2129.97" y="971.46" class="st1" width="65.57" height="260.58"/>
	<polygon id="outline_2_" class="st1" points="883,961 931.74,961 931.74,969.14 953.48,969.14 953.48,961 1001.99,961 
		1001.99,969.14 1016.42,969.14 1016.42,962.35 1062.18,962.35 1062.18,969.14 1085.52,969.14 1085.52,962.35 1324.66,962.35 
		1324.66,969.14 1347.08,969.14 1347.08,961.9 1456.24,961.9 1456.24,969.14 1477.52,969.14 1477.52,961 1525.35,961 
		1525.35,969.14 1549.83,969.14 1549.83,962.13 1597.65,962.13 1597.65,969.14 1619.62,969.14 1619.62,961.9 1666.31,961.9 
		1666.31,969.14 1681.41,969.14 1681.41,961 1727.87,961 1727.87,969.14 1750.06,969.14 1750.06,961.68 1825.8,961.68 
		1990.57,961.68 1990.57,969.14 2012.77,969.14 2012.77,961.68 2060.14,961.68 2060.14,969.14 2075.46,969.14 2075.46,962.81 
		2121.22,962.81 2121.22,969.14 2143.19,969.14 2143.19,961 2194,961 2194,1233 883,1233 	"/>
</g>
<g id="Layer_4">
	
		<image style="overflow:visible;" width="3300" height="2550" xlink:href="D-8-ground-floor.jpg"  transform="matrix(1 0 0 1 -146 0)">
	</image>
	<polygon id="D8-01" class="st2" points="151.16,1310.06 287.17,1310.06 287.17,1894.32 147,1895.14 	"/>
	<polygon id="D8-02" class="st2" points="433.17,1310.06 433.17,1893.09 287.17,1894.32 287.17,1310.06 	"/>
	<polygon id="D8-03" class="st2" points="438.57,1308 574.59,1308 574.59,1894.32 433.17,1893.09 	"/>
	<polygon id="D8-04" class="st2" points="574.59,1894.32 718.92,1894.73 718.92,1310.06 574.59,1310.06 	"/>
	<rect id="D8-05" x="718.92" y="1310.06" class="st2" width="143.92" height="584.68"/>
	<rect id="D8-06" x="863.25" y="1310.06" class="st2" width="143.08" height="579.74"/>
	<rect id="D8-07" x="1005.92" y="1310.06" class="st2" width="143.08" height="579.74"/>
	<rect id="D8-08" x="1149" y="1310.06" class="st2" width="145.16" height="579.74"/>
	<rect id="D8-09" x="1295" y="1310.06" class="st2" width="140.17" height="579.74"/>
	<rect id="D8-10" x="1435.17" y="1310.06" class="st2" width="143.08" height="579.74"/>
	<rect id="D8-11" x="1578.25" y="1310.06" class="st2" width="145.16" height="579.74"/>
	<polygon id="D8-12" class="st2" points="1871.91,1308 1866.08,1893.09 1720.09,1894.32 1720.09,1310.06 	"/>
	<polygon id="D8-13" class="st2" points="1871.91,1308 2007.5,1308 2007.5,1894.32 1866.08,1893.09 	"/>
	<polygon id="D8-14" class="st2" points="2007.5,1894.32 2152.25,1894.73 2152.25,1310.06 2007.5,1310.06 	"/>
	<rect id="D8-15" x="2152.25" y="1310.06" class="st2" width="143.92" height="584.68"/>
	<rect id="D8-16" x="2296.17" y="1310.06" class="st2" width="143.08" height="579.74"/>
	<rect id="D8-17" x="2439.25" y="1310.06" class="st2" width="143.08" height="579.74"/>
	<rect id="D8-18" x="2581.92" y="1310.06" class="st2" width="145.16" height="579.74"/>
	<rect id="D8-19" x="2727.91" y="1310.06" class="st2" width="140.17" height="579.74"/>
	<rect id="D8-20" x="2868.08" y="1310.06" class="st2" width="143.08" height="579.74"/>
	<polygon id="outline_3_" class="st2" points="148.25,1912 254.73,1912 254.73,1893.91 302.15,1893.91 302.15,1912 408.21,1912 
		408.21,1893.91 439.82,1893.91 439.82,1908.71 539.65,1908.71 539.65,1893.91 590.81,1893.91 590.81,1908.71 1113.23,1908.71 
		1113.23,1893.91 1161.9,1893.91 1161.9,1909.94 1400.65,1909.94 1400.65,1893.91 1446.82,1893.91 1446.82,1912 1551.63,1912 
		1551.63,1893.91 1604.87,1893.91 1604.87,1909.53 1709.27,1909.53 1709.27,1893.91 1757.52,1893.91 1757.52,1909.94 
		1859.43,1909.94 1859.43,1893.91 1892.29,1893.91 1892.29,1912 1993.78,1912 1993.78,1893.91 2042.44,1893.91 2042.44,1910.36 
		2207.99,1910.36 2567.78,1910.36 2567.78,1893.91 2616.44,1893.91 2616.44,1910.36 2719.59,1910.36 2719.59,1893.91 
		2753.28,1893.91 2753.28,1907.89 2853.11,1907.89 2853.11,1893.91 2901.36,1893.91 2901.36,1912 3012,1912 3012,1308 148.25,1308 	
		"/>
</g>
</svg>
