<?xml version="1.0" encoding="utf-8"?>
<!-- Generator: Adobe Illustrator 25.0.1, SVG Export Plug-In . SVG Version: 6.00 Build 0)  -->
<svg version="1.1" id="D-8" xmlns="http://www.w3.org/2000/svg" xmlns:xlink="http://www.w3.org/1999/xlink" x="0px" y="0px"
	 viewBox="0 0 1920 1080" style="enable-background:new 0 0 1920 1080;" xml:space="preserve">
<style type="text/css">
	.st0{fill:none;stroke:#4C4C4C;stroke-miterlimit:10;}
</style>
<image style="overflow:visible;" width="3300" height="2550" xlink:href="D-8 first floor.jpg"  transform="matrix(0.5804 0 0 0.5804 2.3529 -200)">
</image>
<rect id="outline_1_" x="220" y="603.52" class="st0" width="1572.48" height="324"/>
<rect id="D8-101" x="220" y="603.52" class="st0" width="79.6" height="324"/>
<rect id="D8-102" x="299.06" y="603.52" class="st0" width="79.6" height="324"/>
<rect id="D8-103" x="378.11" y="603.52" class="st0" width="79.6" height="324"/>
<rect id="D8-104" x="458.3" y="603.52" class="st0" width="78.27" height="324"/>
<rect id="D8-105" x="536.04" y="603.52" class="st0" width="78.27" height="324"/>
<rect id="D8-106" x="613.77" y="603.52" class="st0" width="78.27" height="324"/>
<rect id="D8-107" x="692.03" y="603.52" class="st0" width="79.6" height="324"/>
<rect id="D8-108" x="771.09" y="603.52" class="st0" width="79.6" height="324"/>
<rect id="D8-109" x="850.15" y="603.52" class="st0" width="79.6" height="324"/>
<rect id="D8-110" x="929.2" y="603.52" class="st0" width="79.6" height="324"/>
<rect id="D8-111" x="1006.23" y="603.52" class="st0" width="77.79" height="324"/>
<rect id="D8-112" x="1084.03" y="603.52" class="st0" width="81.37" height="324"/>
<rect id="D8-113" x="1164.86" y="603.52" class="st0" width="78.27" height="324"/>
<rect id="D8-114" x="1239.87" y="603.52" class="st0" width="79.18" height="324"/>
<rect id="D8-115" x="1322.74" y="603.52" class="st0" width="74.02" height="324"/>
<rect id="D8-116" x="1396.75" y="603.52" class="st0" width="77.69" height="324"/>
<rect id="D8-117" x="1474.44" y="603.52" class="st0" width="82.1" height="324"/>
<rect id="D8-118" x="1556.01" y="603.52" class="st0" width="77.48" height="324"/>
<rect id="D8-119" x="1633.47" y="603.52" class="st0" width="78.8" height="324"/>
<rect id="D8-120" x="1713.68" y="603.52" class="st0" width="78.8" height="324"/>
</svg>
