<?xml version="1.0" encoding="utf-8"?>
<!-- Generator: Adobe Illustrator 25.0.1, SVG Export Plug-In . SVG Version: 6.00 Build 0)  -->
<svg version="1.1" id="D-7" xmlns="http://www.w3.org/2000/svg" xmlns:xlink="http://www.w3.org/1999/xlink" x="0px" y="0px"
	 viewBox="0 0 2294.4 1622.64" style="enable-background:new 0 0 2294.4 1622.64;" xml:space="preserve">
<style type="text/css">
	.st0{fill:none;stroke:#4C4C4C;stroke-miterlimit:10;}
</style>
<image style="overflow:visible;" width="9560" height="6761" xlink:href="D7- 2ND FLOOR.jpg"  transform="matrix(0.24 0 0 0.24 0 0)">
</image>
<rect id="D7-254" x="1703.07" y="277.1" class="st0" width="115.92" height="466.67"/>
<rect id="D7-253" x="1590.77" y="277.1" class="st0" width="112.3" height="466.67"/>
<rect id="D7-252" x="1473.82" y="277.1" class="st0" width="116.96" height="466.67"/>
<rect id="D7-251" x="1359.41" y="277.1" class="st0" width="114.44" height="466.67"/>
<rect id="D7-250" x="1241.27" y="277.1" class="st0" width="118.1" height="466.67"/>
<rect id="D7-249" x="1126.86" y="277.1" class="st0" width="114.44" height="466.67"/>
<rect id="D7-248" x="1018" y="277.1" class="st0" width="108.86" height="466.67"/>
<rect id="D7-247" x="904.74" y="277.1" class="st0" width="113.26" height="466.67"/>
<rect id="D7-246" x="790" y="277.1" class="st0" width="114.74" height="466.67"/>
<rect id="D7-245" x="671.57" y="277.1" class="st0" width="118.43" height="466.67"/>
<rect id="D7-244" x="556.83" y="277.1" class="st0" width="114.74" height="466.67"/>
<rect id="D7-243" x="442.09" y="277.1" class="st0" width="114.78" height="466.67"/>
<rect id="D7-242" x="329.79" y="277.1" class="st0" width="112.3" height="466.67"/>
<rect id="D7-241" x="213.87" y="277.1" class="st0" width="115.92" height="466.67"/>
<rect id="outline_1_" x="213.87" y="277.1" class="st0" width="1605.13" height="466.67"/>
</svg>
