<?xml version="1.0" encoding="utf-8"?>
<!-- Generator: Adobe Illustrator 25.0.1, SVG Export Plug-In . SVG Version: 6.00 Build 0)  -->
<svg version="1.1" id="D-7" xmlns="http://www.w3.org/2000/svg" xmlns:xlink="http://www.w3.org/1999/xlink" x="0px" y="0px"
	 viewBox="0 0 2384.16 1684.08" style="enable-background:new 0 0 2384.16 1684.08;" xml:space="preserve">
<style type="text/css">
	.st0{fill:none;stroke:#4C4C4C;stroke-miterlimit:10;}
</style>
<image style="overflow:visible;" width="9934" height="7017" xlink:href="D7-1ST FLOOR.jpg"  transform="matrix(0.24 0 0 0.24 0 0)">
</image>
<rect id="outline_1_" x="77.71" y="230.6" class="st0" width="1834.45" height="540"/>
<rect id="D7-127" x="1784.72" y="231.6" class="st0" width="127.44" height="540"/>
<rect id="D7-128" x="1651.33" y="231.6" class="st0" width="133.39" height="540"/>
<rect id="D7-129" x="1517.67" y="231.6" class="st0" width="133.67" height="540"/>
<rect id="D7-130" x="1386.91" y="231.6" class="st0" width="130.79" height="540"/>
<rect id="D7-131" x="1260.92" y="231.6" class="st0" width="125.95" height="540"/>
<rect id="D7-132" x="1125.92" y="231.6" class="st0" width="135" height="540"/>
<rect id="D7-133" x="996.73" y="231.6" class="st0" width="129.19" height="540"/>
<rect id="D7-134" x="867.28" y="231.6" class="st0" width="129.44" height="540"/>
<rect id="D7-135" x="736.15" y="231.6" class="st0" width="131.13" height="540"/>
<rect id="D7-136" x="600.8" y="231.6" class="st0" width="135.36" height="540"/>
<rect id="D7-137" x="469.67" y="231.6" class="st0" width="131.13" height="540"/>
<rect id="D7-138" x="338.53" y="231.6" class="st0" width="131.17" height="540"/>
<rect id="D7-139" x="210.19" y="231.6" class="st0" width="128.34" height="540"/>
<rect id="D7-140" x="77.71" y="231.6" class="st0" width="132.48" height="540"/>
</svg>
