<?xml version="1.0" encoding="utf-8"?>
<!-- Generator: Adobe Illustrator 25.0.1, SVG Export Plug-In . SVG Version: 6.00 Build 0)  -->
<svg version="1.1" id="Layer_1" xmlns="http://www.w3.org/2000/svg" xmlns:xlink="http://www.w3.org/1999/xlink" x="0px" y="0px"
	 viewBox="0 0 3075.84 1723.68" style="enable-background:new 0 0 3075.84 1723.68;" xml:space="preserve">
<style type="text/css">
	.st0{fill:none;}
	.st1{fill:none;stroke:#4C4C4C;stroke-miterlimit:10;}
</style>
<image style="overflow:visible;" width="3300" height="2550" xlink:href="D8-Second-floor.jpg"  transform="matrix(1 0 0 1 -192.88 -491.8)">
</image>
<rect id="outline" x="91.96" y="861.99" class="st0" width="2900.72" height="628.21"/>
<rect id="C8-240" x="96.36" y="861.84" class="st1" width="144.73" height="278.65"/>
<rect id="C8-239" x="241.37" y="861.84" class="st1" width="144.73" height="278.65"/>
<rect id="C8-238" x="386.38" y="861.84" class="st1" width="144.73" height="278.65"/>
<rect id="C8-237" x="531.1" y="862.87" class="st1" width="145.29" height="277.62"/>
<rect id="C8-236" x="676.39" y="861.84" class="st1" width="144.73" height="278.65"/>
<rect id="C8-235" x="823.4" y="861.84" class="st1" width="144.73" height="278.65"/>
<rect id="C8-234" x="968.41" y="861.84" class="st1" width="144.73" height="278.65"/>
<rect id="C8-233" x="1113.42" y="861.84" class="st1" width="144.73" height="278.65"/>
<rect id="C8-232" x="1257.42" y="861.84" class="st1" width="144.73" height="278.65"/>
<rect id="C8-231" x="1399.43" y="861.84" class="st1" width="144.73" height="278.65"/>
<rect id="C8-230" x="1546.44" y="861.84" class="st1" width="144.73" height="278.65"/>
<rect id="C8-229" x="1691.45" y="861.84" class="st1" width="144.73" height="278.65"/>
<rect id="C8-228" x="1836.46" y="861.84" class="st1" width="144.73" height="278.65"/>
<rect id="C8-227" x="1980.46" y="861.84" class="st1" width="144.73" height="278.65"/>
<rect id="C8-226" x="2126.47" y="861.84" class="st1" width="144.73" height="278.65"/>
<rect id="C8-225" x="2272.48" y="861.84" class="st1" width="144.73" height="278.65"/>
<rect id="C8-224" x="2417.49" y="861.84" class="st1" width="144.73" height="278.65"/>
<rect id="C8-223" x="2560.5" y="861.84" class="st1" width="144.73" height="278.65"/>
<rect id="C8-222" x="2707.5" y="861.84" class="st1" width="144.73" height="278.65"/>
<rect id="C8-221" x="2852.51" y="861.84" class="st1" width="144.73" height="278.65"/>
<rect id="C8-220" x="2852.51" y="1189.14" class="st1" width="144.73" height="307.74"/>
<rect id="C8-219" x="2707.5" y="1189.14" class="st1" width="144.73" height="307.74"/>
<rect id="C8-218" x="2563.5" y="1189.14" class="st1" width="144.73" height="307.74"/>
<rect id="C8-217" x="2418.49" y="1189.14" class="st1" width="144.73" height="307.74"/>
<rect id="C8-216" x="2273.48" y="1189.14" class="st1" width="144.73" height="307.74"/>
<rect id="C8-215" x="2183.48" y="1189.14" class="st1" width="87.72" height="307.74"/>
<rect id="C8-214" x="1979.46" y="1189.14" class="st1" width="144.73" height="307.74"/>
<rect id="C8-213" x="1835.46" y="1189.14" class="st1" width="144.73" height="307.74"/>
<rect id="C8-212" x="1690.45" y="1189.14" class="st1" width="144.73" height="307.74"/>
<rect id="C8-211" x="1545.44" y="1189.14" class="st1" width="144.73" height="307.74"/>
<rect id="C8-210" x="1398.43" y="1189.14" class="st1" width="144.73" height="307.74"/>
<rect id="C8-209" x="1258.42" y="1189.14" class="st1" width="144.73" height="307.74"/>
<rect id="C8-208" x="1108.42" y="1189.14" class="st1" width="144.73" height="307.74"/>
<rect id="C8-207" x="963.41" y="1189.14" class="st1" width="144.73" height="307.74"/>
<rect id="C8-206" x="818.4" y="1189.14" class="st1" width="87.84" height="307.74"/>
<rect id="C8-205" x="671.39" y="1189.14" class="st1" width="144.73" height="307.74"/>
<rect id="C8-204" x="531.1" y="1189.14" class="st1" width="140.29" height="307.74"/>
<rect id="C8-203" x="386.38" y="1188" class="st1" width="144.73" height="307.74"/>
<rect id="C8-202" x="241.37" y="1188" class="st1" width="144.73" height="307.74"/>
<rect id="C8-201" x="96.36" y="1188" class="st1" width="144.73" height="307.74"/>
</svg>
