<?xml version="1.0" encoding="utf-8"?>
<!-- Generator: Adobe Illustrator 25.0.1, SVG Export Plug-In . SVG Version: 6.00 Build 0)  -->
<svg version="1.1" id="A-6" xmlns="http://www.w3.org/2000/svg" xmlns:xlink="http://www.w3.org/1999/xlink" x="0px" y="0px"
	 viewBox="0 0 794 375" style="enable-background:new 0 0 794 375;" xml:space="preserve">
<style type="text/css">
	.st0{fill:none;stroke:#4C4C4C;stroke-miterlimit:10;}
</style>
<image style="overflow:visible;" width="3088" height="1231" xlink:href="IMAGES/A6.jpg"  transform="matrix(0.24 0 0 0.24 27.94 42)">
</image>
<polygon id="A6-20_2_" class="st0" points="661.55,228.56 685.55,228.56 685.55,224.47 692.44,224.47 692.07,103.71 662.05,103.71 
	"/>
<polygon id="A6-19" class="st0" points="631.85,229.04 655.32,229.04 655.32,225.3 661.55,225.21 662.55,104.24 632.26,104.24 "/>
<polygon id="A6-18" class="st0" points="621.41,228.56 621.41,224.63 631.81,224.3 631.83,104.24 602.56,104.24 601.84,228.56 "/>
<polygon id="A6-17" class="st0" points="572.68,228.56 589.18,228.56 589.18,224.63 601.84,224.63 602.56,104.24 572.68,104.24 "/>
<polygon id="A6-16" class="st0" points="543.61,228.56 543.61,224.17 543.61,104.24 572.68,104.24 572.68,224.78 565.28,224.93 
	565.11,228.56 "/>
<polygon id="A6-15" class="st0" points="513.87,104.24 543.61,104.24 543.61,224.93 536.54,224.93 536.37,228.56 513.87,228.56 "/>
<polygon id="A6-14" class="st0" points="483.8,104.24 513.87,104.24 513.87,224.78 506.14,224.78 506.14,228.56 484.06,228.56 "/>
<polygon id="A6-13" class="st0" points="454.57,104.24 483.8,104.24 484.3,224.93 475.91,224.93 475.91,228.56 454.57,228.56 "/>
<polygon id="A6-12" class="st0" points="425.34,104.24 425.17,228.56 447.01,228.56 447.01,224.47 454.57,224.47 454.57,104.24 "/>
<polygon id="A6-11" class="st0" points="425.18,224.32 417.94,224.47 417.94,228.56 395.11,228.56 394.6,104.24 425.34,104.24 "/>
<polygon id="A6-10" class="st0" points="352.55,229.56 376.55,229.56 376.55,225.47 383.44,225.47 383.07,104.71 353.05,104.71 "/>
<polygon id="A6-09" class="st0" points="322.86,230.04 346.32,230.04 346.32,226.3 352.55,226.21 353.55,105.24 323.26,105.24 "/>
<polygon id="A6-08" class="st0" points="312.41,229.56 312.41,225.63 322.81,225.3 322.83,105.24 293.56,105.24 292.84,229.56 "/>
<polygon id="A6-07" class="st0" points="263.68,229.56 280.18,229.56 280.18,225.63 292.84,225.63 293.56,105.24 263.68,105.24 "/>
<polygon id="A6-06" class="st0" points="234.61,229.56 234.61,225.17 234.61,105.24 263.68,105.24 263.68,225.78 256.28,225.93 
	256.11,229.56 "/>
<polygon id="A6-05" class="st0" points="204.87,105.24 234.61,105.24 234.61,225.93 227.54,225.93 227.37,229.56 204.87,229.56 "/>
<polygon id="A6-04" class="st0" points="174.8,105.24 204.87,105.24 204.87,225.78 197.14,225.78 197.14,229.56 175.06,229.56 "/>
<polygon id="A6-03" class="st0" points="145.57,105.24 174.8,105.24 175.3,225.93 166.91,225.93 166.91,229.56 145.57,229.56 "/>
<polygon id="A6-02" class="st0" points="116.34,105.24 116.17,229.56 138.01,229.56 138.01,225.47 145.57,225.47 145.57,105.24 "/>
<polygon id="A6-01" class="st0" points="116.18,225.32 108.94,225.47 108.94,229.56 86.11,229.56 85.6,105.24 116.34,105.24 "/>
<polygon id="outline_2_" class="st0" points="528.04,104.72 616.63,104.72 691.6,104.72 691.6,225.66 684.17,225.76 684.17,229.4 
	661.73,229.4 661.73,225.15 654.7,224.99 654.7,229.4 631.68,229.4 631.68,225.46 625.55,225.36 625.55,229.4 602.22,229.4 
	602.22,225.36 595.3,225.36 595.3,229.4 573.17,229.4 573.17,225.25 566.04,225.25 566.04,229.4 542.91,229.4 542.91,225.56 
	535.89,225.56 535.89,229.4 513.45,229.4 513.45,225.36 506.84,225.36 506.84,229.4 483.51,229.2 483.51,225.36 476.69,225.46 
	476.69,229.2 454.25,229.2 454.25,225.46 447.34,225.36 447.34,229.2 425.21,229.2 425.21,225.15 418.08,225.15 418.08,229.2 
	394.95,229.2 395.56,104.72 "/>
<polygon id="outline_1_" class="st0" points="219.04,104.72 307.63,104.72 382.6,104.72 382.6,225.66 375.17,225.76 375.17,229.4 
	352.73,229.4 352.73,225.15 345.7,224.99 345.7,229.4 322.68,229.4 322.68,225.46 316.55,225.36 316.55,229.4 293.22,229.4 
	293.22,225.36 286.3,225.36 286.3,229.4 264.17,229.4 264.17,225.25 257.04,225.25 257.04,229.4 233.91,229.4 233.91,225.56 
	226.89,225.56 226.89,229.4 204.45,229.4 204.45,225.36 197.84,225.36 197.84,229.4 174.51,229.2 174.51,225.36 167.69,225.46 
	167.69,229.2 145.25,229.2 145.25,225.46 138.34,225.36 138.34,229.2 116.21,229.2 116.21,225.15 109.08,225.15 109.08,229.2 
	85.95,229.2 86.56,104.72 "/>
</svg>
