<?xml version="1.0" encoding="utf-8"?>
<!-- Generator: Adobe Illustrator 25.0.1, SVG Export Plug-In . SVG Version: 6.00 Build 0)  -->
<svg version="1.1" id="A-12" xmlns="http://www.w3.org/2000/svg" xmlns:xlink="http://www.w3.org/1999/xlink" x="0px" y="0px"
	 viewBox="0 0 1170.24 613.68" style="enable-background:new 0 0 1170.24 613.68;" xml:space="preserve">
<style type="text/css">
	.st0{fill:none;stroke:#4C4C4C;stroke-miterlimit:10;}
</style>
<image style="overflow:visible;" width="4876" height="2557" xlink:href="A 12.jpg"  transform="matrix(0.24 0 0 0.24 0 0)">
</image>
<polygon id="outline_2_" class="st0" points="55.78,97.46 1115.8,95.53 1115.8,484.64 1102.48,484.46 1102.48,500.84 
	1007.62,500.84 1007.44,484.46 983.5,484.64 983.5,500.84 888.99,500.84 888.63,484.44 867.04,484.28 866.5,500.84 771.39,500.84 
	771.68,484.63 749.5,484.82 748.96,500.84 654.28,500.84 654.1,484.64 632.5,484.64 632.32,500.84 537.28,500.84 537.64,484.64 
	515.32,484.82 515.14,500.84 420.46,500.84 420.1,484.82 398.14,484.82 398.14,500.84 303.46,500.84 302.92,485 282.04,484.82 
	281.5,500.84 186.46,500.84 186.64,485.18 164.5,485.18 164.14,500.84 69.1,500.84 68.92,484.82 55.78,484.6 "/>
<polygon id="A11-01" class="st0" points="177.36,96.96 56.8,96.96 56.05,484.46 69.28,484.46 69.37,500.93 164.34,501.61 
	164.32,484.46 177.36,484.55 "/>
<polygon id="A11-01_1_" class="st0" points="295.36,96.96 177.8,96.96 177.36,484.55 186.03,484.64 186.03,501.41 281.86,501.61 
	281.86,484.82 294.36,484.55 "/>
<polygon id="A11-01_3_" class="st0" points="412.36,96.96 295.77,96.96 294.36,484.55 303.57,484.55 303.57,501.41 398.59,501.6 
	398.59,484.55 411.65,484.58 "/>
<polygon id="A11-01_2_" class="st0" points="527.2,96.96 412.36,96.96 411.65,484.58 420.1,484.64 420.1,501.2 515.62,501.14 
	515.44,484.88 527.2,484.84 "/>
<polygon id="A11-01_7_" class="st0" points="644.36,96.96 527.8,96.96 527.05,484.46 537.28,484.46 537.37,500.93 632.34,501.61 
	632.32,484.46 644.36,484.55 "/>
<polygon id="A11-01_6_" class="st0" points="761.36,96.96 644.8,96.96 644.36,484.55 655.03,484.64 655.03,501.41 749.86,501.61 
	749.86,484.82 761.36,484.55 "/>
<polygon id="A11-01_5_" class="st0" points="879.65,96.96 761.77,96.96 761.36,484.55 771.57,484.55 771.57,501.41 866.59,501.6 
	866.59,484.55 879.65,484.58 "/>
<polygon id="A11-01_4_" class="st0" points="998.2,96.82 879.65,96.98 879.65,484.58 888.1,484.64 888.1,501.2 984.62,501.14 
	984.44,484.88 998.2,484.84 "/>
<polygon id="A11-01_8_" class="st0" points="1117.2,96.82 998.65,96.98 998.65,484.58 1007.1,484.64 1007.1,501.2 1103.62,501.14 
	1103.44,484.88 1117.2,484.84 "/>
</svg>
