<?xml version="1.0" encoding="utf-8"?>
<!-- Generator: Adobe Illustrator 25.0.1, SVG Export Plug-In . SVG Version: 6.00 Build 0)  -->
<svg version="1.1" id="A-14" xmlns="http://www.w3.org/2000/svg" xmlns:xlink="http://www.w3.org/1999/xlink" x="0px" y="0px"
	 viewBox="0 0 842.16 595.2" style="enable-background:new 0 0 842.16 595.2;" xml:space="preserve">
<style type="text/css">
	.st0{fill:none;stroke:#4C4C4C;stroke-miterlimit:10;}
</style>
<image style="overflow:visible;" width="3509" height="2480" xlink:href="A 14.jpg"  transform="matrix(0.24 0 0 0.24 0 0)">
</image>
<polygon id="outline_2_" class="st0" points="674.87,356.92 381.08,356.42 68.36,357.86 68.36,214.82 76.28,214.82 76.28,208.34 
	102.02,208.34 101.66,214.46 111.74,214.46 111.92,208.34 137.3,208.34 137.12,214.64 147.2,214.46 146.56,208.34 172.76,208.34 
	172.58,214.64 182.3,214.46 182.48,208.34 208.22,208.34 208.04,214.46 217.76,214.64 217.76,208.34 242.96,208.34 243.32,214.46 
	252.5,214.46 252.68,208.34 279.32,208.34 279.32,214.64 287.78,214.64 287.78,208.34 312.98,208.34 313.16,214.64 328.73,214.64 
	328.64,209.06 353.48,209.24 353.48,214.58 363.74,214.82 363.56,209.33 388.85,209.33 388.76,214.82 398.84,214.82 398.78,209.34 
	424.16,209.34 424.07,214.64 434.06,214.64 434.06,209.34 459.44,209.34 459.44,214.73 469.43,214.55 469.34,208.34 494.9,208.34 
	495.08,214.64 503.98,214.73 504.07,208.34 529.54,208.34 529.36,214.46 539.36,214.46 539.44,208.7 564.53,208.79 564.74,214.64 
	574.79,214.55 574.79,209.24 600.17,209.33 600.17,214.82 609.98,214.73 610.07,209.24 635.36,209.24 635.45,215 645.26,215.18 
	645.26,209.15 670.37,209.24 670.37,215.09 680.36,215.09 680.36,209.15 705.74,209.24 705.74,215.18 709.79,215.09 709.79,209.42 
	734.81,209.33 734.81,215.18 744.98,215.09 744.98,209.24 770,209.24 770,214.46 776.21,214.37 776.21,218.24 675.71,355.71 "/>
<polygon id="A14-20" class="st0" points="104.93,357.63 68.55,357.68 68.51,213.92 75.8,213.92 75.8,208.88 101.05,208.88 
	100.98,214.52 104.93,214.76 "/>
<polygon id="A14-19" class="st0" points="140.67,357.63 104.79,357.68 104.93,214.76 111.5,214.52 111.5,209.26 136.7,209.5 
	136.7,214.64 140.33,215.05 "/>
<polygon id="A14-18" class="st0" points="175.4,357.63 141.03,357.68 140.33,215.05 147.28,215 147.28,208.88 172.53,208.88 
	172.47,214.89 175.76,214.91 "/>
<polygon id="A14-17" class="st0" points="211.14,357.63 176.27,357.68 175.76,214.91 181.97,214.92 181.97,209.26 207.18,209.5 
	207.18,214.3 211.46,214.38 "/>
<polygon id="A14-16" class="st0" points="246.88,357.63 211.51,357.68 211.06,214.37 216.75,214.42 216.75,208.88 243,208.88 
	242.94,213.89 245.84,213.92 "/>
<polygon id="A14-15" class="st0" points="281.62,357.63 246.74,357.68 245.84,213.92 252.44,213.92 252.44,209.26 277.64,209.5 
	277.64,213.94 281.59,213.97 "/>
<polygon id="A14-14" class="st0" points="316.52,357.64 281.59,357.68 281.59,213.97 287.92,213.92 287.92,208.88 313.44,208.88 
	313.38,214.4 316.52,214.4 "/>
<polygon id="A14-13" class="st0" points="356.89,357.68 316.52,357.64 316.52,214.4 328.76,214.4 328.92,209.26 354.12,209.5 
	354.12,214.3 356.89,214.37 "/>
<polygon id="A14-12" class="st0" points="392.6,357.68 356.89,357.68 356.89,214.37 363.44,214.4 363.68,209.28 388.35,209.5 
	388.35,213.94 392.19,214 "/>
<polygon id="A14-11" class="st0" points="427.4,357.63 392.6,357.68 392.19,214 397.93,213.92 397.93,208.88 424.18,208.88 
	424.12,213.89 427.76,213.93 "/>
<polygon id="A14-10" class="st0" points="462.68,357.68 426.92,357.68 427.76,213.93 433.62,213.92 433.62,209.26 458.83,209.5 
	458.83,214.3 462.68,214.4 "/>
<polygon id="A14-09" class="st0" points="498.35,357.63 462.68,357.68 462.68,214.4 468.4,214.42 468.4,208.88 494.65,208.88 
	494.59,213.89 498.35,213.92 "/>
<polygon id="A14-08" class="st0" points="533.27,357.63 498.35,357.63 498.35,213.92 504.1,213.92 504.09,209.26 529.29,209.5 
	529.29,213.94 533.13,214 "/>
<polygon id="A14-07" class="st0" points="569,357.63 533.24,357.68 533.2,213.92 539.57,213.92 539.57,208.88 565.09,208.88 
	565.03,213.89 568.82,213.92 "/>
<polygon id="A14-06" class="st0" points="604,357.63 568.95,357.68 568.91,213.92 575.15,213.92 575.15,208.88 600.17,208.88 
	600.11,213.89 603.82,213.92 "/>
<polygon id="A14-05" class="st0" points="638.42,357.63 604.24,357.68 604.2,213.92 610.29,213.92 610.29,208.88 634.69,208.88 
	634.63,213.89 638.24,213.92 "/>
<polygon id="A14-04" class="st0" points="674.06,357.63 638.47,357.68 638.42,213.92 644.76,213.92 644.76,208.88 670.17,208.88 
	670.11,213.89 673.88,213.92 "/>
<polygon id="A14-03" class="st0" points="674.84,213.8 680.36,213.8 680.36,209.36 705.8,209.36 705.8,214.28 709.52,214.28 
	709.16,310.04 674.84,357.68 "/>
<polygon id="A14-02" class="st0" points="734.72,209.36 734.72,214.16 738.92,214.16 738.92,269.48 709.16,310.04 709.52,209.36 "/>
<polygon id="A14-01" class="st0" points="769.88,209.36 744.68,209.36 744.68,214.28 738.92,214.16 738.92,269.48 776.12,217.4 
	776.12,214.04 770,214.04 "/>
</svg>
