<?xml version="1.0" encoding="utf-8"?>
<!-- Generator: Adobe Illustrator 25.0.1, SVG Export Plug-In . SVG Version: 6.00 Build 0)  -->
<svg version="1.1" id="Layer_1" xmlns="http://www.w3.org/2000/svg" xmlns:xlink="http://www.w3.org/1999/xlink" x="0px" y="0px"
	 viewBox="0 0 792 612" style="enable-background:new 0 0 792 612;" xml:space="preserve">
<style type="text/css">
	.st0{fill:none;stroke:#4C4C4C;stroke-miterlimit:10;}
</style>
<image style="overflow:visible;" width="3300" height="2550" xlink:href="A-15.jpg"  transform="matrix(0.24 0 0 0.24 0 0)">
</image>
<polygon id="outline" class="st0" points="73.6,144.16 710.8,144.88 710.8,391.84 698.56,391.84 698.8,400 654.64,400 654.88,391.6 
	637.84,391.84 637.6,400 593.68,400 593.44,391.36 564.4,391.6 564.4,400 520.24,400 520.48,391.6 490.96,391.36 491.44,400 
	447.52,400 447.28,391.6 430,391.6 430.24,400 386.08,400 385.84,391.36 368.8,391.6 369.28,400 325.36,400 324.88,391.36 
	308.08,391.12 307.84,400 263.92,400 263.92,391.12 247.12,391.12 246.88,400 203.2,400 202.96,391.12 185.68,391.12 185.92,400 
	142.48,400 142.24,391.6 126.16,391.6 126.16,400 82.24,400 82.72,391.36 73.6,391.36 "/>
<polygon id="A15-10" class="st0" points="711.52,143 649.18,143 649.18,390.93 655.52,391.1 655.39,400 700.5,400 700.5,392.01 
	711.52,392.01 "/>
<polygon id="A15-09" class="st0" points="649.02,143 588.18,143 588.18,390.93 594.37,391.1 594.24,400 638.27,400 638.27,392.01 
	649.02,392.01 "/>
<polygon id="A15-08" class="st0" points="587.68,143 514.64,143 514.48,391.62 520.58,391.66 520.54,399.62 565.12,400.01 
	564.88,391.12 587.68,391.12 "/>
<polygon id="A15-07" class="st0" points="514.2,143 441.49,143 441.02,392.06 447.88,392.1 447.72,400 491.73,400 491.73,391.7 
	514.48,391.62 "/>
<polygon id="A15-06" class="st0" points="441.02,143 380.18,143 380.18,390.93 386.37,391.1 386.24,400 430.27,400 430.27,392.01 
	441.02,392.01 "/>
<polygon id="A15-05" class="st0" points="379.8,143 319.36,143 319.36,391.17 325.03,391.16 324.91,400 368.81,400 368.81,391.01 
	380.18,390.88 "/>
<polygon id="A15-04" class="st0" points="318.97,143 258.35,143 258.16,391.05 264.47,391.1 264.34,400 307.56,400 307.56,391.01 
	319.36,391.01 "/>
<polygon id="A15-03" class="st0" points="257.97,143 197.44,143 197.44,391.11 203.12,391.1 202.99,400 246.89,400 246.89,391.01 
	258.16,391 "/>
<polygon id="A15-02" class="st0" points="197.05,143 136.25,143 136.08,391.17 142.12,391.1 141.99,400 185.54,400 185.54,391.01 
	197.44,391.06 "/>
<polygon id="A15-01" class="st0" points="135.91,143 73.52,143 73.12,391.06 81.89,391.1 81.76,400 126.34,400 126.34,391.01 
	136.12,391.12 "/>
</svg>
