<?xml version="1.0" encoding="utf-8"?>
<!-- Generator: Adobe Illustrator 25.0.1, SVG Export Plug-In . SVG Version: 6.00 Build 0)  -->
<svg version="1.1" xmlns="http://www.w3.org/2000/svg" xmlns:xlink="http://www.w3.org/1999/xlink" x="0px" y="0px"
	 viewBox="0 0 842.16 595.2" style="enable-background:new 0 0 842.16 595.2;" xml:space="preserve">
<style type="text/css">
	.st0{fill:none;stroke:#353535;stroke-miterlimit:10;}
	.st1{fill:none;stroke:#000000;stroke-width:2;stroke-miterlimit:10;}
	.st2{fill:#FFFFFF;}
	.st3{display:none;}
	.st4{fill:none;stroke:#4C4C4C;stroke-miterlimit:10;}
</style>
<g id="A-1">
	<image style="overflow:visible;" width="3509" height="2480" xlink:href="C44252C9.jpg"  transform="matrix(0.24 0 0 0.24 0 0)">
	</image>
	<polygon id="outline_3_" class="st0" points="335.34,335.12 341.82,335.12 341.82,339.14 365.58,339.14 365.58,334.4 
		371.82,334.88 371.82,339.14 395.58,339.14 395.58,334.88 401.82,334.88 401.82,339.14 426.3,339.14 426.3,212.48 122.22,212.48 
		122.22,334.64 129.42,334.82 129.42,339.14 153.9,339.14 153.9,335 159.78,335 159.66,339.14 184.02,339.14 184.02,334.64 
		190.26,334.76 190.26,339.14 214.5,339.14 214.5,335.36 220.38,335.36 220.38,339.14 244.38,339.14 244.38,335.12 250.62,335.12 
		250.86,339.14 274.86,339.14 274.86,335.12 280.86,335.12 281.1,339.14 304.62,339.14 304.62,335.48 310.65,335.39 310.65,339.14 
		335.13,339.14 	"/>
	<polygon id="A1-01" class="st1" points="121.56,212.96 153.24,212.96 153.24,334.88 153.24,339.62 128.76,339.62 128.76,335.3 
		121.56,335.12 	"/>
	<polygon id="A1-02" class="st1" points="152.96,212.96 183,212.96 183.36,339.62 159,339.62 159.12,335.48 153.24,335.48 	"/>
	<polygon id="A1-03" class="st1" points="183,212.96 213.36,212.96 213.84,339.62 189.6,339.62 189.6,335.24 183.36,335.12 	"/>
	<polygon id="A1-04" class="st1" points="243.72,212.96 213.36,212.96 213.84,335.84 219.72,335.84 219.72,339.62 243.72,339.62 
		243.72,264.68 	"/>
	<polygon id="A1-05" class="st1" points="274.2,212.96 243.72,212.96 243.72,335.6 249.96,335.6 250.2,339.62 274.2,339.62 	"/>
	<polygon id="A1-06" class="st1" points="303.96,212.96 274.2,212.96 274.2,335.6 280.2,335.6 280.44,339.62 303.96,339.62 	"/>
	<polygon id="A1-07" class="st1" points="303.96,212.96 334.68,212.96 334.68,335.6 334.68,339.62 310.44,339.62 310.44,335.36 
		303.96,334.64 	"/>
	<polygon id="A1-08" class="st1" points="364.92,212.96 364.92,339.62 341.16,339.62 341.16,335.6 334.68,335.6 334.68,212.96 	"/>
	<polygon id="A1-09" class="st1" points="394.92,212.96 394.92,339.62 371.16,339.62 371.16,335.36 364.92,334.88 364.92,212.96 	
		"/>
	<polygon id="A1-10" class="st1" points="425.64,212.96 394.92,212.96 394.92,335.36 401.16,335.36 401.16,339.62 425.64,339.62 	
		"/>
	<rect x="479.6" y="350.47" class="st2" width="153.81" height="26.8"/>
</g>
<g id="A-2" class="st3">
	<polygon id="outline" class="st4" points="455.82,213.08 728.88,212.72 728.88,339.44 704.13,339.44 704.04,335.39 698.64,335.3 
		698.55,339.44 674.43,339.44 674.34,335.21 668.4,335.3 668.49,339.44 644.28,339.44 644.37,335.39 638.16,335.3 638.16,339.44 
		613.68,339.44 613.68,335.12 608.01,335.3 607.83,339.44 583.35,339.44 583.53,335.21 577.41,335.3 577.41,339.44 553.2,339.44 
		553.2,334.94 547.08,335.12 547.26,339.44 522.69,339.44 522.78,335.21 516.66,335.21 516.66,339.44 492.81,339.44 492.81,335.21 
		486.6,335.12 486.6,339.44 462.21,339.44 462.21,334.94 456.18,334.85 456.18,339.44 431.88,339.44 431.88,335.48 425.67,335.48 
		425.67,213.08 	"/>
	<polygon id="A2-01" class="st4" points="426.36,213.92 455.16,213.92 455.16,339.68 432.12,339.68 432.12,335.36 425.58,335.12 	
		"/>
	<polygon id="A2-02" class="st4" points="456,213.92 486.42,213.92 486.42,339.68 462.3,339.68 462.3,335.48 455.16,335.48 	"/>
	<polygon id="A2-03" class="st4" points="516.48,213.92 486.42,213.92 486.42,335.84 492.36,335.84 492.54,339.68 516.48,339.68 	
		"/>
	<polygon id="A2-04" class="st4" points="546.54,213.9 547.44,339.68 522.78,339.68 522.78,335.3 516.48,334.94 516.48,213.92 	"/>
	<polygon id="A2-05" class="st4" points="576.96,213.08 546.54,213.08 547.41,335.48 553.2,335.48 553.56,339.68 577.68,339.68 	"/>
	<polygon id="A2-06" class="st4" points="607.38,213.08 576.96,213.08 577.68,335.3 583.44,335.3 583.8,339.68 607.38,339.68 	"/>
	<polygon id="A2-07" class="st4" points="637.62,213.08 638.16,339.68 613.68,339.68 613.68,334.94 607.38,335.12 607.38,213.08 	
		"/>
	<polygon id="A2-08" class="st4" points="668.22,213.08 668.58,339.68 644.28,339.68 644.28,335.48 638.14,335.48 637.62,213.08 	
		"/>
	<polygon id="A2-09" class="st4" points="698.64,213.08 698.82,339.68 674.34,339.68 674.34,335.12 668.58,335.12 668.22,213.08 	
		"/>
	<polygon id="A2-10" class="st4" points="729.42,335.66 728.34,335.66 728.34,339.68 704.04,339.68 704.04,335.48 698.81,335.48 
		698.64,213.08 729.42,213.08 	"/>
	
		<image style="overflow:visible;" width="482" height="189" xlink:href="../0001.jpg"  transform="matrix(0.24 0 0 0.24 376.32 344.4087)">
	</image>
</g>
</svg>
