<?xml version="1.0" encoding="utf-8"?>
<!-- Generator: Adobe Illustrator 25.0.1, SVG Export Plug-In . SVG Version: 6.00 Build 0)  -->
<svg version="1.1" id="A8" xmlns="http://www.w3.org/2000/svg" xmlns:xlink="http://www.w3.org/1999/xlink" x="0px" y="0px"
	 viewBox="0 0 842.16 595.2" style="enable-background:new 0 0 842.16 595.2;" xml:space="preserve">
<style type="text/css">
	.st0{fill:none;stroke:#4C4C4C;stroke-miterlimit:10;}
</style>
<image style="overflow:visible;" width="3509" height="2480" xlink:href="IMAGES/A8.jpg"  transform="matrix(0.24 0 0 0.24 0 0)">
</image>
<polygon id="outline" class="st0" points="641,393.68 629.96,393.68 629.96,402.32 588.92,402.32 588.92,394.28 573.08,394.28 
	573.08,402.32 532.4,402.32 532.4,394.52 516.32,394.52 516.32,402.32 475.88,402.32 475.88,394.4 460.04,394.4 460.04,402.32 
	419.72,402.32 419.72,394.16 403.64,394.28 403.64,402.32 363.2,402.32 363.2,394.28 347.24,394.28 347.24,402.32 306.68,402.32 
	306.68,394.28 290.6,394.4 290.6,402.32 250.16,402.32 250.16,394.16 211.04,394.28 211.04,402.32 170.6,402.32 170.6,394.4 
	163.16,394.4 163.04,105.8 641.72,105.8 641.72,393.64 "/>
<polygon id="A8-10" class="st0" points="641.48,106.64 583.16,106.64 582.8,394.22 589.04,394.27 588.92,402.2 629.42,402.2 
	629.42,394.16 641.48,394.16 "/>
<polygon id="A8-11" class="st0" points="583.48,106.64 527.16,106.64 526.8,394.22 532.04,394.27 531.92,402.2 572.42,402.2 
	572.42,394.16 583.48,394.16 "/>
<polygon id="A8-12" class="st0" points="527.48,106.64 471.16,106.64 470.8,394.22 476.04,394.27 475.92,402.2 516.42,402.2 
	516.42,394.16 527.48,394.16 "/>
<polygon id="A8-13" class="st0" points="470.48,106.64 414.16,106.64 413.8,394.22 419.04,394.27 418.92,402.2 459.42,402.2 
	459.42,394.16 470.48,394.16 "/>
<polygon id="A8-14" class="st0" points="414.48,106.64 358.16,106.64 357.8,394.22 363.04,394.27 362.92,402.2 403.42,402.2 
	403.42,394.16 414.48,394.16 "/>
<polygon id="A8-15" class="st0" points="357.48,106.64 301.16,106.64 300.8,394.22 306.04,394.27 305.92,402.2 346.42,402.2 
	346.42,394.16 357.48,394.16 "/>
<polygon id="A8-16" class="st0" points="301.48,106.64 245.16,106.64 244.8,394.22 250.04,394.27 249.92,402.2 290.42,402.2 
	290.42,394.16 301.48,394.16 "/>
<polygon id="A8-17" class="st0" points="245.48,106.64 164.28,106.64 163.76,394.22 171.32,394.27 171.14,402.2 229.53,402.2 
	229.53,394.16 245.48,394.16 "/>
</svg>
