<?xml version="1.0" encoding="utf-8"?>
<!-- Generator: Adobe Illustrator 25.0.1, SVG Export Plug-In . SVG Version: 6.00 Build 0)  -->
<svg version="1.1" id="A-13" xmlns="http://www.w3.org/2000/svg" xmlns:xlink="http://www.w3.org/1999/xlink" x="0px" y="0px"
	 viewBox="0 0 871.7 448.11" style="enable-background:new 0 0 871.7 448.11;" xml:space="preserve">
<style type="text/css">
	.st0{fill:none;stroke:#4C4C4C;stroke-miterlimit:10;}
</style>
<image style="overflow:visible;" width="3300" height="2550" xlink:href="A-13.jpg"  transform="matrix(0.24 0 0 0.24 43.6226 -79.1132)">
</image>
<polygon id="outline" class="st0" points="153.22,124.33 153.22,267.37 161.14,267.37 161.14,273.85 186.88,273.85 186.52,267.73 
	196.6,267.73 196.78,273.85 222.16,273.85 221.98,267.55 232.06,267.73 232.42,273.85 257.62,273.85 257.44,267.55 267.16,267.73 
	267.34,273.85 293.08,273.85 292.9,267.73 302.62,267.55 302.62,273.85 328.72,273.85 328.18,267.73 338.26,267.73 338.44,273.85 
	364.18,273.85 364.18,267.55 373.72,267.55 374.08,273.85 399.64,273.85 399.46,267.55 409.18,267.55 409.54,273.85 434.92,273.85 
	434.92,267.55 444.46,267.73 445,273.85 470.38,273.85 470.2,267.37 480.1,267.37 480.64,273.85 506.02,273.85 505.93,267.55 
	515.92,267.55 515.92,273.85 541.3,273.85 541.3,267.46 551.29,267.64 551.2,273.85 576.76,273.85 576.94,267.55 586.84,267.46 
	586.93,273.85 612.4,273.85 612.22,267.73 621.22,267.73 621.31,273.85 646.96,273.85 646.6,267.55 653.17,267.64 751.54,128.65 
	751.54,124.33 465.94,125.77 "/>
<polygon id="A13-21" class="st0" points="190.26,125.26 154.12,125.21 154.08,268.94 161.32,268.94 161.32,273.98 186.4,273.98 
	186.34,268.97 190.08,268.94 "/>
<polygon id="A13-22" class="st0" points="225.76,125.26 190.12,125.21 190.26,268.94 196.78,268.94 196.78,273.6 221.81,273.37 
	221.81,268.93 225.63,268.87 "/>
<polygon id="A13-23" class="st0" points="261.26,125.26 226.12,125.21 226.08,268.94 233.32,268.94 233.32,273.98 258.4,273.98 
	258.34,268.97 261.08,268.94 "/>
<polygon id="A13-24" class="st0" points="296.76,125.26 261.12,125.21 261.26,268.94 267.78,268.94 267.78,273.6 293.81,273.37 
	293.81,268.57 297.08,268.48 "/>
<polygon id="A13-25" class="st0" points="332.26,125.26 297.12,125.21 296.68,268.49 303.32,268.45 303.32,273.98 328.4,273.98 
	328.34,268.97 332.08,268.94 "/>
<polygon id="A13-26" class="st0" points="367.76,125.26 332.12,125.21 332.26,268.94 338.78,268.94 338.78,273.6 363.81,273.37 
	363.81,268.93 367.63,268.87 "/>
<polygon id="A13-27" class="st0" points="403.26,125.26 367.74,125.21 367.69,268.94 375.02,268.94 375.02,273.98 400.37,273.98 
	400.31,268.97 403.08,268.94 "/>
<polygon id="A13-28" class="st0" points="438.43,125.26 403.12,125.21 403.26,268.94 409.78,268.94 409.78,273.6 435.81,273.37 
	435.81,268.57 438.56,268.49 "/>
<polygon id="A13-29" class="st0" points="473.76,125.26 438.12,125.21 438.26,268.94 444.78,268.94 444.78,273.6 469.81,273.37 
	469.81,268.93 473.63,268.87 "/>
<polygon id="A13-30" class="st0" points="509.26,125.26 474.12,125.21 474.08,268.94 481.32,268.94 481.32,273.98 506.4,273.98 
	506.34,268.97 509.08,268.94 "/>
<polygon id="A13-31" class="st0" points="544.76,125.26 509.12,125.21 509.26,268.94 515.78,268.94 515.78,273.6 541.81,273.37 
	541.81,268.57 545.08,268.48 "/>
<polygon id="A13-32" class="st0" points="580.26,125.26 545.12,125.21 544.68,268.49 551.32,268.45 551.32,273.98 576.4,273.98 
	576.34,268.97 580.08,268.94 "/>
<polygon id="A13-33" class="st0" points="615.76,125.26 580.12,125.21 580.26,268.94 586.78,268.94 586.78,273.6 611.81,273.37 
	611.81,268.93 615.63,268.87 "/>
<polygon id="A13-34" class="st0" points="651.26,125.26 615.74,125.21 615.69,268.94 623.02,268.94 623.02,273.98 648.37,273.98 
	648.31,268.97 651.08,268.94 "/>
<polygon id="A13-35" class="st0" points="651.12,125.21 686.43,125.26 686.74,218.86 653.35,267.37 653.35,268.81 651.08,268.94 "/>
<polygon id="A13-36" class="st0" points="750.55,125.21 750.55,128.86 686.74,218.86 687.19,125.21 "/>
</svg>
