<?xml version="1.0" encoding="utf-8"?>
<!-- Generator: Adobe Illustrator 25.0.1, SVG Export Plug-In . SVG Version: 6.00 Build 0)  -->
<svg version="1.1" id="Layer_1" xmlns="http://www.w3.org/2000/svg" xmlns:xlink="http://www.w3.org/1999/xlink" x="0px" y="0px"
	 viewBox="0 0 3370.1 2384.2" style="enable-background:new 0 0 3370.1 2384.2;" xml:space="preserve">
<style type="text/css">
	.st0{fill:none;stroke:#4C4C4C;stroke-miterlimit:10;}
	.st1{display:none;fill:none;stroke:#4C4C4C;stroke-miterlimit:10;}
	.st2{fill:#FFFFFF;}
	.st3{font-family:'MyriadPro-Regular';}
	.st4{font-size:45.7037px;}
</style>
<g id="A-9">
	
		<image style="overflow:visible;enable-background:new    ;" width="14042" height="9934" xlink:href="IMAGES/A9-A10.jpg"  transform="matrix(0.24 0 0 0.24 0 0)">
	</image>
	<polygon id="outline" class="st0" points="2880.6,1748.4 2866,1748.4 2866,1767.4 2767,1767.4 2767,1748.4 2727.4,1748.4 
		2727.4,1767.4 2628,1767.4 2628,1748.4 2590.2,1748.4 2590.2,1767.4 2490.1,1767.4 2490.1,1748.4 2451.6,1748.4 2451.6,1767.4 
		2351.5,1767.4 2351.5,1748.4 2313.7,1748.4 2313.7,1767.4 2214,1767.4 2214,1748.4 2175.5,1748.4 2175.5,1767.4 2076.1,1767.4 
		2076.1,1748.4 2036.9,1748.4 2036.9,1767.4 1937.2,1767.4 1937.2,1748.4 1898.3,1748.4 1898.3,1767.4 1799.6,1767.4 1799.6,1748.4 
		1760.4,1748.4 1760.4,1767.4 1660.7,1767.4 1660.7,1748.4 1621.8,1748.4 1621.8,1767.4 1522.4,1767.4 1522.4,1748.4 1484.3,1748.4 
		1484.3,1767.4 1384.2,1767.4 1384.2,1748.4 1344.6,1748.4 1344.6,1767.4 1246.7,1767.4 1246.7,1748.4 1206.4,1748.4 1206.4,1767.4 
		1109.2,1767.4 1109.2,1748.4 1069.6,1748.4 1069.6,1767.4 970.2,1767.4 970.2,1748.4 929.9,1748.4 929.9,1767.4 832,1767.4 
		832,1748.4 793.1,1748.4 793.1,1767.4 692.3,1767.4 692.3,1748.4 654.8,1748.4 654.8,1767.4 554,1767.4 554,1748.4 515.9,1748.4 
		515.9,1767.4 418,1767.4 418,1748.4 388.4,1748.4 388.4,1185 928.4,1185 2328.1,1185 2328.1,681 2885.4,1061.8 	"/>
	<polygon id="A9-38" class="st0" points="2740.8,964.7 2882.7,1058 2880.6,1748.4 2865.6,1748.4 2865.6,1767.6 2766.2,1767.6 
		2765.9,1749 2740.8,1748.4 	"/>
	<polygon id="A9-37" class="st0" points="2602.8,869.7 2740.7,963 2739.6,1748.4 2727.6,1748.4 2727.6,1767.6 2628.2,1767.6 
		2627.9,1749 2602.8,1748.4 	"/>
	<polygon id="A9-36" class="st0" points="2465.8,776.7 2603.7,870 2602.6,1748.4 2589.6,1748.4 2589.6,1767.6 2490.2,1767.6 
		2489.9,1748 2465.8,1748.4 	"/>
	<polygon id="A9-35" class="st0" points="2328.8,683.1 2466.7,777.1 2465.6,1748.8 2451.6,1748.8 2451.6,1766.6 2352.2,1766.6 
		2351.9,1750.5 2328.8,1751 	"/>
	<polygon id="A9-34" class="st0" points="2328.8,1187.1 2189.3,1187.1 2188.4,1751.1 2213.4,1751.2 2213.1,1766.6 2313,1766.6 
		2313,1751 2328.8,1751 	"/>
	<polygon id="A9-33" class="st0" points="2188.9,1187.1 2051.5,1188.1 2052.7,1751.1 2074.3,1751.2 2074.1,1766.6 2173.2,1766.6 
		2173.2,1751 2188.9,1751 	"/>
	<polygon id="A9-32" class="st0" points="2051.3,1188.1 1913.1,1188.1 1912.2,1751.1 1938,1751.2 1937.7,1766.6 2036.4,1766.6 
		2036.4,1751 2051.3,1751 	"/>
	<polygon id="A9-31" class="st0" points="1913.4,1188.1 1776.2,1188.1 1775.3,1751.1 1800.1,1751.2 1799.8,1766.6 1898.5,1766.6 
		1898.5,1751 1913.4,1751 	"/>
	<polygon id="A9-30" class="st0" points="1776.8,1187.1 1637.3,1187.1 1636.4,1751.1 1661.4,1751.2 1661.1,1766.6 1761,1766.6 
		1761,1751 1776.8,1751 	"/>
	<polygon id="A9-29" class="st0" points="1636.9,1187.1 1499.5,1188.1 1500.7,1751.1 1522.3,1751.2 1522.1,1766.6 1621.2,1766.6 
		1621.2,1751 1636.9,1751 	"/>
	<polygon id="A9-28" class="st0" points="1499.3,1188.1 1361.1,1188.1 1360.2,1751.1 1386,1751.2 1385.7,1766.6 1484.4,1766.6 
		1484.4,1751 1499.3,1751 	"/>
	<polygon id="A9-27" class="st0" points="1361.4,1188.1 1224.2,1188.1 1223.3,1751.1 1248.1,1751.2 1247.8,1766.6 1346.5,1766.6 
		1346.5,1751 1361.4,1751 	"/>
	<polygon id="A9-26" class="st0" points="1221.3,1188.1 1083.1,1188.1 1082.2,1751.1 1108,1751.2 1107.7,1766.6 1206.4,1766.6 
		1206.4,1751 1221.3,1751 	"/>
	<polygon id="A9-25" class="st0" points="1083.4,1188.1 946.2,1188.1 945.3,1751.1 970.1,1751.2 969.8,1766.6 1068.5,1766.6 
		1068.5,1751 1083.4,1751 	"/>
	<polygon id="A9-24" class="st0" points="946.8,1187.1 807.3,1187.1 806.4,1751.1 831.4,1751.2 831.1,1766.6 931,1766.6 931,1751 
		946.8,1751 	"/>
	<polygon id="A9-23" class="st0" points="806.9,1187.1 669.5,1188.1 670.7,1751.1 692.3,1751.2 692.1,1766.6 791.2,1766.6 
		791.2,1751 806.9,1751 	"/>
	<polygon id="A9-22" class="st0" points="669.3,1188.1 531.1,1188.1 530.2,1751.1 556,1751.2 555.7,1766.6 654.4,1766.6 654.4,1751 
		669.3,1751 	"/>
	<polygon id="A9-21" class="st0" points="531.4,1188.1 389.4,1188.1 388.4,1751.1 414.1,1751.2 413.8,1766.6 516,1766.6 516,1751 
		531.4,1751 	"/>
</g>
<g id="A-10">
	<polygon id="A10-07" class="st1" points="2330.4,683.1 2330.4,1247 2190.9,1247 2192.5,592.8 	"/>
	<polygon id="A10-08" class="st1" points="2190.4,1148.6 2053,1147.6 2054.2,584.6 2075.9,584.5 2075.6,569.1 2174.8,569.1 
		2174.8,584.7 2190.4,584.7 	"/>
	<polygon id="A10-09" class="st1" points="2052.9,1147.6 1914.7,1147.6 1913.8,584.6 1939.5,584.5 1939.3,569.1 2037.9,569.1 
		2037.9,584.7 2052.9,584.7 	"/>
	<polygon id="A10-10" class="st1" points="1915,1147.6 1777.8,1147.6 1776.9,584.6 1801.7,584.5 1801.4,569.1 1900,569.1 
		1900,584.7 1915,584.7 	"/>
	<polygon id="A10-11" class="st1" points="1778.4,1148.6 1638.9,1148.6 1638,584.6 1662.9,584.5 1662.6,569.1 1762.5,569.1 
		1762.5,584.7 1778.4,584.7 	"/>
	<polygon id="A10-12" class="st1" points="1638.4,1148.6 1501,1147.6 1502.2,584.6 1523.9,584.5 1523.6,569.1 1622.8,569.1 
		1622.8,584.7 1638.4,584.7 	"/>
	<polygon id="A10-13" class="st1" points="1500.9,1147.6 1362.7,1147.6 1361.8,584.6 1387.5,584.5 1387.3,569.1 1485.9,569.1 
		1485.9,584.7 1500.9,584.7 	"/>
	<polygon id="A10-14" class="st1" points="1363,1147.6 1225.8,1147.6 1224.9,584.6 1249.7,584.5 1249.4,569.1 1348,569.1 
		1348,584.7 1363,584.7 	"/>
	<polygon id="A10-15" class="st1" points="1222.9,1147.6 1084.7,1147.6 1083.8,584.6 1109.5,584.5 1109.3,569.1 1207.9,569.1 
		1207.9,584.7 1222.9,584.7 	"/>
	<polygon id="A10-16" class="st1" points="1085,1147.6 947.8,1147.6 946.9,584.6 971.7,584.5 971.4,569.1 1070,569.1 1070,584.7 
		1085,584.7 	"/>
	<polygon id="A10-17" class="st1" points="948.4,1148.6 808.9,1148.6 808,584.6 832.9,584.5 832.6,569.1 932.5,569.1 932.5,584.7 
		948.4,584.7 	"/>
	<polygon id="A10-18" class="st1" points="808.4,1148.6 671,1147.6 672.2,584.6 693.9,584.5 693.6,569.1 792.8,569.1 792.8,584.7 
		808.4,584.7 	"/>
	<polygon id="A10-19" class="st1" points="670.9,1147.6 532.7,1147.6 531.8,584.6 557.5,584.5 557.3,569.1 655.9,569.1 655.9,584.7 
		670.9,584.7 	"/>
	<polygon id="A10-20_1_" class="st1" points="533,1147.6 390.9,1147.6 390,584.6 415.7,584.5 415.3,569.1 517.5,569.1 517.5,584.7 
		533,584.7 	"/>
	<rect x="1794" y="1971.7" class="st2" width="225.9" height="118.5"/>
	<polygon id="outline_2_" class="st0" points="390,596 396.5,1153.3 2330.4,1153.1 2330.4,683.1 2194.7,589.9 2176.7,589.9 
		2176.7,570.8 2078,570.8 2077.3,589.5 2038.8,590.2 2038.1,570.8 1938.4,570.8 1939.4,589.2 1900.2,589.9 1900.6,570.8 
		1800.1,570.8 1800.8,589.5 1763.4,589.9 1764.1,570.8 1664,570.8 1664.4,590.2 1623.4,589.5 1624.1,572.6 1523.6,570.8 1524,589.9 
		1485.1,589.5 1484.4,570.8 1386.1,570.8 1385.8,589.5 1346.9,589.2 1346.9,570.8 1247.5,570.8 1247.5,589.5 1209,589.2 1209,570.8 
		1110,570.8 1109.6,589.5 1048.8,589.9 1048.4,570.8 949.4,570.8 949.4,589.2 932.2,589.2 932.2,570.8 833.2,570.8 832.8,589.5 
		794.3,590.6 793.9,570.8 695.3,570.8 694.6,589.9 655.7,589.5 655.3,570.8 556,570.8 556.7,589.5 517.8,589.5 517.4,570.8 
		417.7,570.8 418.1,589.9 390,589.9 	"/>
</g>
<text transform="matrix(1.1923 0 0 1 1784.4316 2027.0938)" class="st3 st4">)</text>
</svg>
