<?xml version="1.0" encoding="utf-8"?>
<!-- Generator: Adobe Illustrator 25.0.1, SVG Export Plug-In . SVG Version: 6.00 Build 0)  -->
<svg version="1.1" id="A-12" xmlns="http://www.w3.org/2000/svg" xmlns:xlink="http://www.w3.org/1999/xlink" x="0px" y="0px"
	 viewBox="0 0 1170.2 613.7" style="enable-background:new 0 0 1170.2 613.7;" xml:space="preserve">
<style type="text/css">
	.st0{fill:none;stroke:#4C4C4C;stroke-miterlimit:10;}
</style>
<image style="overflow:visible;enable-background:new    ;" width="4876" height="2557" xlink:href="A 12.jpg"  transform="matrix(0.24 0 0 0.24 0 0)">
</image>
<polygon id="outline_2_" class="st0" points="55.8,97.5 1115.8,95.5 1115.8,484.6 1102.5,484.5 1102.5,500.8 1007.6,500.8 
	1007.4,484.5 983.5,484.6 983.5,500.8 889,500.8 888.6,484.4 867,484.3 866.5,500.8 771.4,500.8 771.7,484.6 749.5,484.8 749,500.8 
	654.3,500.8 654.1,484.6 632.5,484.6 632.3,500.8 537.3,500.8 537.6,484.6 515.3,484.8 515.1,500.8 420.5,500.8 420.1,484.8 
	398.1,484.8 398.1,500.8 303.5,500.8 302.9,485 282,484.8 281.5,500.8 186.5,500.8 186.6,485.2 164.5,485.2 164.1,500.8 69.1,500.8 
	68.9,484.8 55.8,484.6 "/>
<polygon id="A12-12" class="st0" points="177.4,97 56.8,97 56,484.5 69.3,484.5 69.4,500.9 164.3,501.6 164.3,484.5 177.4,484.5 "/>
<polygon id="A12-13" class="st0" points="295.4,97 177.8,97 177.4,484.5 186,484.6 186,501.4 281.9,501.6 281.9,484.8 294.4,484.5 
	"/>
<polygon id="A12-14" class="st0" points="412.4,97 295.8,97 294.4,484.5 303.6,484.5 303.6,501.4 398.6,501.6 398.6,484.5 
	411.6,484.6 "/>
<polygon id="A12-15" class="st0" points="527.2,97 412.4,97 411.6,484.6 420.1,484.6 420.1,501.2 515.6,501.1 515.4,484.9 
	527.2,484.8 "/>
<polygon id="A12-16" class="st0" points="644.4,97 527.8,97 527,484.5 537.3,484.5 537.4,500.9 632.3,501.6 632.3,484.5 
	644.4,484.5 "/>
<polygon id="A12-17" class="st0" points="761.4,97 644.8,97 644.4,484.5 655,484.6 655,501.4 749.9,501.6 749.9,484.8 761.4,484.5 
	"/>
<polygon id="A12-18" class="st0" points="879.7,97 761.8,97 761.4,484.5 771.6,484.5 771.6,501.4 866.6,501.6 866.6,484.5 
	879.7,484.6 "/>
<polygon id="A12-19" class="st0" points="998.2,96.8 879.7,97 879.7,484.6 888.1,484.6 888.1,501.2 984.6,501.1 984.4,484.9 
	998.2,484.8 "/>
<polygon id="A12-20" class="st0" points="1117.2,96.8 998.7,97 998.7,484.6 1007.1,484.6 1007.1,501.2 1103.6,501.1 1103.4,484.9 
	1117.2,484.8 "/>
</svg>
