<?xml version="1.0" encoding="utf-8"?>
<!-- Generator: Adobe Illustrator 25.0.1, SVG Export Plug-In . SVG Version: 6.00 Build 0)  -->
<svg version="1.1" id="A5" xmlns="http://www.w3.org/2000/svg" xmlns:xlink="http://www.w3.org/1999/xlink" x="0px" y="0px"
	 viewBox="0 0 848.74 335.48" style="enable-background:new 0 0 848.74 335.48;" xml:space="preserve">
<style type="text/css">
	.st0{fill:none;stroke:#4C4C4C;stroke-miterlimit:10;}
</style>
<image style="overflow:visible;" width="3371" height="1286" xlink:href="IMAGES/A5.jpg"  transform="matrix(0.24 0 0 0.24 18.8671 13.8252)">
</image>
<polygon id="outline" class="st0" points="783.23,57.11 783.23,203.63 755.59,203.63 755.59,198.95 747.55,199.07 747.55,203.63 
	720.67,203.63 720.67,198.95 712.99,198.95 712.99,203.63 685.75,203.63 685.75,199.43 677.83,199.43 677.83,203.63 650.47,203.63 
	650.47,198.95 642.55,198.83 642.55,203.63 615.43,203.63 615.43,198.95 607.51,198.83 607.51,203.63 580.39,203.63 580.39,198.95 
	572.23,198.95 572.23,203.63 545.47,203.63 545.47,198.83 537.31,198.83 537.31,203.63 510.19,203.63 510.19,198.71 502.51,198.71 
	502.51,203.63 475.15,203.63 475.15,198.95 467.11,199.19 467.11,203.63 440.11,203.63 440.11,198.95 431.95,198.95 431.95,203.63 
	405.07,203.63 405.07,198.83 396.79,198.83 396.79,203.63 369.91,203.63 369.91,199.07 361.87,199.19 361.87,203.63 334.63,203.63 
	334.63,199.19 326.71,199.07 326.71,203.63 299.59,203.87 299.59,199.07 291.91,199.07 291.91,203.87 264.67,203.87 264.67,199.31 
	256.51,199.31 256.51,203.87 229.63,203.87 229.63,198.95 221.35,198.95 221.35,203.87 194.47,203.87 194.47,199.07 186.43,199.07 
	186.43,203.87 159.31,203.87 159.31,199.07 151.03,199.19 151.03,203.87 124.27,203.87 124.27,199.07 116.11,198.83 116.11,203.87 
	88.87,203.87 88.87,199.55 80.23,199.43 80.23,55.91 167.35,55.91 270.31,55.91 369.79,55.91 467.23,55.91 572.59,55.91 
	783.19,55.91 "/>
<polygon id="A5-23" class="st0" points="80.56,56.27 115.87,56.36 116.11,203.99 88.99,203.99 88.99,199.43 80.59,199.43 "/>
<polygon id="A5-24" class="st0" points="150.91,56.27 151.39,203.99 124.03,203.99 124.03,199.25 116.1,199.18 115.87,56.36 "/>
<polygon id="A5-25" class="st0" points="185.95,56.48 186.19,203.99 159.07,203.99 159.07,199.43 151.37,199.42 150.91,56.45 "/>
<polygon id="A5-26" class="st0" points="221.47,56.46 221.47,203.99 194.35,203.99 194.35,198.95 186.37,198.95 185.95,56.48 "/>
<polygon id="A5-27" class="st0" points="256.27,56.12 256.75,203.99 229.39,203.99 229.39,199.55 221.47,199.48 220.99,56.48 "/>
<polygon id="A5-28" class="st0" points="291.07,56.12 256.27,56.12 256.73,198.94 264.73,198.94 264.91,203.99 292.03,203.99 "/>
<polygon id="A5-29" class="st0" points="326.11,56.12 326.11,203.99 300.19,203.99 300.19,199.13 292,199.03 291.07,56.12 "/>
<polygon id="A5-30" class="st0" points="326.11,199.13 334.75,199.13 334.75,203.99 362.11,203.99 362.11,132.71 362.11,56.12 
	326.11,56.12 "/>
<polygon id="A5-31" class="st0" points="397.39,203.99 370.03,203.99 370.03,198.77 362.11,198.77 362.11,56.12 397.39,56.12 "/>
<polygon id="A5-32" class="st0" points="404.95,203.99 404.95,199.31 397.39,199.31 397.39,56.12 431.95,56.12 431.95,203.99 "/>
<polygon id="A5-33" class="st0" points="467.05,203.99 440.23,203.99 440.23,199.31 431.95,199.31 431.95,56.12 467.05,56.12 "/>
<polygon id="A5-34" class="st0" points="502.15,203.99 502.15,198.77 502.15,56.12 467.05,56.12 467.05,199.49 475.15,199.67 
	475.33,203.99 "/>
<polygon id="A5-35" class="st0" points="536.89,56.12 502.15,56.12 502.15,199.67 509.89,199.67 510.07,203.99 536.89,203.99 "/>
<polygon id="A5-36" class="st0" points="571.99,56.12 536.89,56.12 536.89,199.49 545.35,199.49 545.35,203.99 571.71,203.99 "/>
<polygon id="A5-37" class="st0" points="607.27,56.12 571.99,56.12 571.45,199.67 580.63,199.67 580.63,203.99 607.27,203.99 "/>
<polygon id="A5-38" class="st0" points="642.55,56.12 642.73,203.99 615.55,203.99 615.55,199.13 607.27,199.13 607.27,56.12 "/>
<polygon id="A5-39" class="st0" points="642.72,198.94 650.65,199.13 650.65,203.99 677.83,203.99 677.29,56.12 642.55,56.12 "/>
<polygon id="A5-40" class="st0" points="712.93,203.99 685.93,203.99 685.93,198.77 677.81,198.77 677.29,56.12 712.93,56.12 "/>
<polygon id="A5-41" class="st0" points="748.21,203.99 720.85,203.99 720.85,199.31 712.93,199.31 712.93,56.12 748.21,56.12 "/>
<polygon id="A5-42" class="st0" points="783.31,203.99 755.95,203.99 755.95,199.13 748.21,199.13 748.21,56.12 783.31,56.12 "/>
</svg>
