<?xml version="1.0" encoding="utf-8"?>
<!-- Generator: Adobe Illustrator 25.0.1, SVG Export Plug-In . SVG Version: 6.00 Build 0)  -->
<svg version="1.1" id="A-9" xmlns="http://www.w3.org/2000/svg" xmlns:xlink="http://www.w3.org/1999/xlink" x="0px" y="0px"
	 viewBox="0 0 3331 1996" style="enable-background:new 0 0 3331 1996;" xml:space="preserve">
<style type="text/css">
	.st0{fill:none;stroke:#4C4C4C;stroke-miterlimit:10;}
</style>
<image style="overflow:visible;" width="14042" height="9934" xlink:href="A9.jpg"  transform="matrix(0.24 0 0 0.24 -19 -185)">
</image>
<polygon id="outline" class="st0" points="2863.6,1563.4 2849,1563.4 2849,1582.4 2750,1582.4 2750,1563.4 2710.4,1563.4 
	2710.4,1582.4 2611,1582.4 2611,1563.4 2573.2,1563.4 2573.2,1582.4 2473.1,1582.4 2473.1,1563.4 2434.6,1563.4 2434.6,1582.4 
	2334.5,1582.4 2334.5,1563.4 2296.7,1563.4 2296.7,1582.4 2197,1582.4 2197,1563.4 2158.5,1563.4 2158.5,1582.4 2059.1,1582.4 
	2059.1,1563.4 2019.9,1563.4 2019.9,1582.4 1920.2,1582.4 1920.2,1563.4 1881.3,1563.4 1881.3,1582.4 1782.6,1582.4 1782.6,1563.4 
	1743.4,1563.4 1743.4,1582.4 1643.7,1582.4 1643.7,1563.4 1604.8,1563.4 1604.8,1582.4 1505.4,1582.4 1505.4,1563.4 1467.3,1563.4 
	1467.3,1582.4 1367.2,1582.4 1367.2,1563.4 1327.6,1563.4 1327.6,1582.4 1229.7,1582.4 1229.7,1563.4 1189.4,1563.4 1189.4,1582.4 
	1092.2,1582.4 1092.2,1563.4 1052.6,1563.4 1052.6,1582.4 953.2,1582.4 953.2,1563.4 912.9,1563.4 912.9,1582.4 815,1582.4 
	815,1563.4 776.1,1563.4 776.1,1582.4 675.3,1582.4 675.3,1563.4 637.8,1563.4 637.8,1582.4 537,1582.4 537,1563.4 498.9,1563.4 
	498.9,1582.4 401,1582.4 401,1563.4 371.4,1563.4 371.4,1000 911.4,1000 2311.1,1000 2311.1,496 2868.4,876.8 "/>
<polygon id="A9-38" class="st0" points="2723.8,779.7 2865.7,873 2863.6,1563.4 2848.6,1563.4 2848.6,1582.6 2749.2,1582.6 
	2748.9,1564 2723.8,1563.4 "/>
<polygon id="A9-37" class="st0" points="2585.8,684.7 2723.7,778 2722.6,1563.4 2710.6,1563.4 2710.6,1582.6 2611.2,1582.6 
	2610.9,1564 2585.8,1563.4 "/>
<polygon id="A9-36" class="st0" points="2448.8,591.7 2586.7,685 2585.6,1563.4 2572.6,1563.4 2572.6,1582.6 2473.2,1582.6 
	2472.9,1563 2448.8,1563.4 "/>
<polygon id="A9-35" class="st0" points="2311.8,498.1 2449.7,592.1 2448.6,1563.8 2434.6,1563.8 2434.6,1581.6 2335.2,1581.6 
	2334.9,1565.5 2311.8,1566 "/>
<polygon id="A9-34" class="st0" points="2311.8,1002.1 2172.3,1002.1 2171.4,1566.1 2196.4,1566.2 2196.1,1581.6 2296,1581.6 
	2296,1566 2311.8,1566 "/>
<polygon id="A9-33" class="st0" points="2171.9,1002.1 2034.5,1003.1 2035.7,1566.1 2057.3,1566.2 2057.1,1581.6 2156.2,1581.6 
	2156.2,1566 2171.9,1566 "/>
<polygon id="A9-32" class="st0" points="2034.3,1003.1 1896.1,1003.1 1895.2,1566.1 1921,1566.2 1920.7,1581.6 2019.4,1581.6 
	2019.4,1566 2034.3,1566 "/>
<polygon id="A9-31" class="st0" points="1896.4,1003.1 1759.2,1003.1 1758.3,1566.1 1783.1,1566.2 1782.8,1581.6 1881.5,1581.6 
	1881.5,1566 1896.4,1566 "/>
<polygon id="A9-30" class="st0" points="1759.8,1002.1 1620.3,1002.1 1619.4,1566.1 1644.4,1566.2 1644.1,1581.6 1744,1581.6 
	1744,1566 1759.8,1566 "/>
<polygon id="A9-29" class="st0" points="1619.9,1002.1 1482.5,1003.1 1483.7,1566.1 1505.3,1566.2 1505.1,1581.6 1604.2,1581.6 
	1604.2,1566 1619.9,1566 "/>
<polygon id="A9-28" class="st0" points="1482.3,1003.1 1344.1,1003.1 1343.2,1566.1 1369,1566.2 1368.7,1581.6 1467.4,1581.6 
	1467.4,1566 1482.3,1566 "/>
<polygon id="A9-27" class="st0" points="1344.4,1003.1 1207.2,1003.1 1206.3,1566.1 1231.1,1566.2 1230.8,1581.6 1329.5,1581.6 
	1329.5,1566 1344.4,1566 "/>
<polygon id="A9-26" class="st0" points="1204.3,1003.1 1066.1,1003.1 1065.2,1566.1 1091,1566.2 1090.7,1581.6 1189.4,1581.6 
	1189.4,1566 1204.3,1566 "/>
<polygon id="A9-25" class="st0" points="1066.4,1003.1 929.2,1003.1 928.3,1566.1 953.1,1566.2 952.8,1581.6 1051.5,1581.6 
	1051.5,1566 1066.4,1566 "/>
<polygon id="A9-24" class="st0" points="929.8,1002.1 790.3,1002.1 789.4,1566.1 814.4,1566.2 814.1,1581.6 914,1581.6 914,1566 
	929.8,1566 "/>
<polygon id="A9-23" class="st0" points="789.9,1002.1 652.5,1003.1 653.7,1566.1 675.3,1566.2 675.1,1581.6 774.2,1581.6 
	774.2,1566 789.9,1566 "/>
<polygon id="A9-22" class="st0" points="652.3,1003.1 514.1,1003.1 513.2,1566.1 539,1566.2 538.7,1581.6 637.4,1581.6 637.4,1566 
	652.3,1566 "/>
<polygon id="A9-21" class="st0" points="514.4,1003.1 372.4,1003.1 371.4,1566.1 397.1,1566.2 396.8,1581.6 499,1581.6 499,1566 
	514.4,1566 "/>
</svg>
