<?xml version="1.0" encoding="utf-8"?>
<!-- Generator: Adobe Illustrator 25.0.1, SVG Export Plug-In . SVG Version: 6.00 Build 0)  -->
<svg version="1.1" id="Layer_1" xmlns="http://www.w3.org/2000/svg" xmlns:xlink="http://www.w3.org/1999/xlink" x="0px" y="0px"
	 viewBox="0 0 1800 1800" style="enable-background:new 0 0 1800 1800;" xml:space="preserve">
<style type="text/css">
	.st0{fill:none;stroke:#010101;stroke-miterlimit:10;}
	.st1{fill:none;stroke:#000000;stroke-miterlimit:10;}
</style>
<image style="overflow:visible;" width="7500" height="7500" xlink:href="C3237008.jpg"  transform="matrix(-1.469576e-17 -0.24 0.24 -1.469576e-17 0 1799.9994)">
</image>
<rect id="C10" x="856.96" y="328.04" class="st0" width="57.6" height="259.2"/>
<polygon id="C7" class="st0" points="800.8,613.16 745.36,613.16 746.08,874.52 800.8,874.52 "/>
<rect id="D8" x="678.4" y="613.16" class="st0" width="54.72" height="261.36"/>
<rect id="D7" x="604.24" y="613.16" class="st0" width="53.28" height="261.36"/>
<rect id="E8" x="535.12" y="613.16" class="st0" width="53.28" height="261.36"/>
<rect id="F7" x="460.24" y="613.16" class="st0" width="52.56" height="261.36"/>
<rect id="F8" x="391.84" y="613.16" class="st0" width="55.44" height="261.36"/>
<rect id="C5" x="745.36" y="900.5" class="st0" width="55.44" height="260.58"/>
<polygon id="D6" class="st0" points="733.12,900.5 733.12,1161.08 678.4,1161.08 678.4,900 "/>
<rect id="D5" x="604.24" y="900.5" class="st0" width="53.28" height="260.58"/>
<polygon id="E6" class="st0" points="588.4,900.5 588.4,1161.08 534.12,1161.08 535.12,900.5 "/>
<polygon id="E5" class="st0" points="513.8,898.5 513.8,1157.76 460.24,1157.76 460.24,898 "/>
<polygon id="F6" class="st0" points="447.28,898 391.84,898 391.48,1158.2 447.28,1158.2 "/>
<rect id="F5" x="317.68" y="898" class="st0" width="51.12" height="258.76"/>
<polygon id="G6" class="st0" points="305.44,898 305.44,1156.76 255.04,1156.76 255.04,975.32 296.8,898 "/>
<rect id="B6" x="990.88" y="894.68" class="st0" width="51.84" height="168.48"/>
<rect id="A7" x="1174.48" y="1060.28" class="st0" width="57.6" height="102.96"/>
<rect id="C3" x="745.36" y="1183.4" class="st0" width="48.24" height="129.6"/>
<rect id="D4" x="678.4" y="1183.4" class="st1" width="50.88" height="129.6"/>
<polygon id="E4" class="st1" points="537.28,1180.52 592.96,1180.52 592.96,1234.28 537.28,1235.2 "/>
<rect id="E4_1_" x="541.6" y="1238.6" class="st1" width="46.8" height="66.24"/>
<polygon id="D3" class="st1" points="659.68,1178.6 659.68,1236.2 597.28,1236.2 597.36,1178.6 "/>
<rect id="D3_1_" x="604.24" y="1238.6" class="st1" width="47.76" height="66.24"/>
<rect id="E3" x="460.24" y="1189.64" class="st1" width="49.2" height="119.04"/>
<rect id="F4" x="396.64" y="1189.64" class="st1" width="50.64" height="119.04"/>
<polygon id="F3" class="st1" points="317.68,1189.64 368.8,1189.64 368.8,1308.68 317.68,1306.76 "/>
<rect id="G4" x="255.04" y="1189.64" class="st1" width="50.4" height="119.04"/>
<rect id="G2" x="255.04" y="1323.56" class="st1" width="50.4" height="52.32"/>
<rect id="F1" x="317.68" y="1323.56" class="st1" width="46.32" height="52.32"/>
<rect id="F1_1_" x="315.04" y="1386.92" class="st1" width="47.04" height="59.04"/>
<polygon id="G2_1_" class="st1" points="303.04,1386.92 303.04,1445.96 255.04,1444.04 255.04,1386.92 "/>
<rect id="F2" x="389.92" y="1331.24" class="st1" width="57.36" height="108.48"/>
<rect id="E1" x="455.68" y="1331.24" class="st1" width="53.76" height="108.48"/>
<polygon id="E2" class="st1" points="539.2,1363.88 539.2,1434.92 577.12,1434.92 577.12,1420.04 583.84,1420.04 596.32,1402.28 
	596.32,1363.88 "/>
<polygon id="D1" class="st1" points="604.24,1338.92 660.64,1338.92 662.56,1445.96 604.24,1445.96 "/>
<rect id="D2_1_" x="681.76" y="1323.56" class="st1" width="47.52" height="52.8"/>
<rect id="D2" x="681.76" y="1385.48" class="st1" width="47.52" height="60.48"/>
<rect id="C1_1_" x="740.32" y="1385.48" class="st1" width="47.04" height="62.4"/>
<polygon id="C1" class="st1" points="789.28,1321.56 789.28,1376.36 742.24,1376.36 742.24,1321.64 "/>
<rect id="B1" x="916" y="1319.56" class="st1" width="50.76" height="128.32"/>
</svg>
