<?xml version="1.0" encoding="utf-8"?>
<!-- Generator: Adobe Illustrator 25.0.1, SVG Export Plug-In . SVG Version: 6.00 Build 0)  -->
<svg version="1.1" id="Layer_1" xmlns="http://www.w3.org/2000/svg" xmlns:xlink="http://www.w3.org/1999/xlink" x="0px" y="0px"
	 viewBox="0 0 1800 1800" style="enable-background:new 0 0 1800 1800;" xml:space="preserve">
<style type="text/css">
	.st0{fill:none;stroke:#010101;stroke-miterlimit:10;}
	.st1{fill:none;stroke:#000000;stroke-miterlimit:10;}
</style>
<image style="overflow:visible;" width="7506" height="7505" xlink:href="5BB4A48F.jpg"  transform="matrix(0.24 0 0 0.24 -0.72 -2.64)">
</image>
<rect id="C10" x="857" y="324" class="st0" width="57.6" height="259.2"/>
<polygon id="C7" class="st0" points="800.8,609.2 745.4,609.2 746.1,870.5 800.8,870.5 "/>
<rect id="D8" x="678.4" y="609.2" class="st0" width="54.7" height="261.4"/>
<rect id="D7" x="604.2" y="609.2" class="st0" width="53.3" height="261.4"/>
<rect id="E8" x="535.1" y="609.2" class="st0" width="53.3" height="261.4"/>
<rect id="F7" x="460.2" y="609.2" class="st0" width="52.6" height="261.4"/>
<rect id="F8" x="391.8" y="609.2" class="st0" width="55.4" height="261.4"/>
<rect id="C5" x="745.4" y="896.5" class="st0" width="55.4" height="260.6"/>
<polygon id="D6" class="st0" points="733.1,896.5 733.1,1157.1 678.4,1157.1 678.4,896 "/>
<rect id="D5" x="604.2" y="896.5" class="st0" width="53.3" height="260.6"/>
<polygon id="E6" class="st0" points="588.4,896.5 588.4,1157.1 534.1,1157.1 535.1,896.5 "/>
<polygon id="E5" class="st0" points="513.8,894.5 513.8,1153.8 460.2,1153.8 460.2,894 "/>
<polygon id="F6" class="st0" points="447.3,894 391.8,894 391.5,1154.2 447.3,1154.2 "/>
<rect id="F5" x="317.7" y="894" class="st0" width="51.1" height="258.8"/>
<polygon id="G6" class="st0" points="305.4,894 305.4,1152.8 255,1152.8 255,971.3 296.8,894 "/>
<rect id="B6" x="990.9" y="890.7" class="st0" width="51.8" height="168.5"/>
<rect id="A7" x="1174.5" y="1056.3" class="st0" width="57.6" height="103"/>
<rect id="C3" x="745.4" y="1179.4" class="st0" width="48.2" height="129.6"/>
<rect id="D4" x="678.4" y="1179.4" class="st1" width="50.9" height="129.6"/>
<polygon id="E4" class="st1" points="537.3,1176.5 593,1176.5 593,1230.3 537.3,1231.2 "/>
<rect id="E4_1_" x="541.6" y="1234.6" class="st1" width="46.8" height="66.2"/>
<polygon id="D3" class="st1" points="659.7,1174.6 659.7,1232.2 597.3,1232.2 597.4,1174.6 "/>
<rect id="D3_1_" x="604.2" y="1234.6" class="st1" width="47.8" height="66.2"/>
<rect id="E3" x="460.2" y="1185.6" class="st1" width="49.2" height="119"/>
<rect id="F4" x="396.6" y="1185.6" class="st1" width="50.6" height="119"/>
<polygon id="F3" class="st1" points="317.7,1185.6 368.8,1185.6 368.8,1304.7 317.7,1302.8 "/>
<rect id="G4" x="255" y="1185.6" class="st1" width="50.4" height="119"/>
<rect id="G2" x="255" y="1319.6" class="st1" width="50.4" height="52.3"/>
<rect id="F1" x="317.7" y="1319.6" class="st1" width="46.3" height="52.3"/>
<rect id="F1_1_" x="315" y="1382.9" class="st1" width="47" height="59"/>
<polygon id="G2_1_" class="st1" points="303,1382.9 303,1442 255,1440 255,1382.9 "/>
<rect id="F2" x="389.9" y="1327.2" class="st1" width="57.4" height="108.5"/>
<rect id="E1" x="455.7" y="1327.2" class="st1" width="53.8" height="108.5"/>
<polygon id="E2" class="st1" points="539.2,1359.9 539.2,1430.9 577.1,1430.9 577.1,1416 583.8,1416 596.3,1398.3 596.3,1359.9 "/>
<polygon id="D1" class="st1" points="604.2,1334.9 660.6,1334.9 662.6,1442 604.2,1442 "/>
<rect id="D2_1_" x="681.8" y="1319.6" class="st1" width="47.5" height="52.8"/>
<rect id="D2" x="681.8" y="1381.5" class="st1" width="47.5" height="60.5"/>
<rect id="C1_1_" x="740.3" y="1381.5" class="st1" width="47" height="62.4"/>
<polygon id="C1" class="st1" points="789.3,1317.6 789.3,1372.4 742.2,1372.4 742.2,1317.6 "/>
<rect id="B1" x="916" y="1315.6" class="st1" width="50.8" height="128.3"/>
</svg>
