<?xml version="1.0" encoding="utf-8"?>
<!-- Generator: Adobe Illustrator 25.0.1, SVG Export Plug-In . SVG Version: 6.00 Build 0)  -->
<svg version="1.1" id="E-9" xmlns="http://www.w3.org/2000/svg" xmlns:xlink="http://www.w3.org/1999/xlink" x="0px" y="0px"
	 viewBox="0 0 813 403.8" style="enable-background:new 0 0 813 403.8;" xml:space="preserve">
<style type="text/css">
	.st0{fill:none;stroke:#4C4C4C;stroke-miterlimit:10;}
</style>
<image style="overflow:visible;" width="3509" height="2480" xlink:href="E-9.jpg"  transform="matrix(0.24 0 0 0.24 -14 -76)">
</image>
<polygon id="outline" class="st0" points="750.43,100.65 20.04,100.65 20.04,258.26 32.17,258.26 32.44,264.98 54,264.98 
	53.73,258.7 69.36,258.48 69.36,264.98 90.38,264.98 90.65,258.26 104.94,258.48 105.48,264.98 127.04,264.98 126.77,258.05 
	141.59,258.26 141.86,264.98 163.42,264.98 163.15,258.91 178.25,258.7 178.51,264.98 199.54,264.98 199.54,258.91 214.9,258.91 
	214.9,264.98 236.46,264.98 236.46,258.48 251.01,258.48 251.01,264.98 272.58,264.98 272.58,258.26 286.86,258.26 286.86,264.98 
	308.42,264.98 308.42,258.26 323.51,258.26 323.51,264.98 345.61,264.98 345.61,258.26 360.44,258.26 360.44,264.98 382.54,264.98 
	382.54,258.48 396.55,258.48 396.55,264.98 418.65,264.98 418.65,258.48 432.94,258.48 432.94,264.98 454.77,264.98 454.5,258.26 
	469.86,258.26 469.86,264.98 491.42,264.98 491.42,258.7 505.71,258.7 505.71,264.98 527.27,264.98 527.27,258.91 541.55,258.91 
	541.55,264.98 563.65,264.98 563.65,258.91 578.21,258.91 578.21,264.98 600.31,264.98 600.31,258.7 615.13,258.7 615.13,264.98 
	636.42,264.98 636.42,258.05 651.51,258.05 651.51,264.98 673.34,264.98 673.34,258.7 688.44,258.7 688.44,264.98 709.73,264.98 
	709.73,258.48 725.36,258.48 725.36,264.98 746.65,264.98 746.65,258.26 750.43,258.26 "/>
<polygon id="E9-21" class="st0" points="20.04,99.56 57.23,99.56 57.23,258.42 54,258.42 54,264.98 32.44,264.98 32.17,258.64 
	20.04,258.64 "/>
<polygon id="E9-22" class="st0" points="57.1,99.56 94.29,99.56 94.29,258.42 91.06,258.42 91.06,264.98 69.5,264.98 69.23,258.64 
	57.1,258.64 "/>
<polygon id="E9-23" class="st0" points="94.29,99.56 130.23,99.56 130.23,258.42 127.1,258.42 127.1,264.98 106.26,264.98 
	106,258.64 94.29,258.64 "/>
<polygon id="E9-24" class="st0" points="130.23,99.56 166.16,99.56 166.16,258.42 163.04,258.42 163.04,264.98 142.2,264.98 
	141.94,258.64 130.23,258.64 "/>
<polygon id="E9-25" class="st0" points="166.16,99.56 203.22,99.56 203.22,258.42 200,258.42 200,264.98 178.51,264.98 
	178.25,258.64 166.16,258.64 "/>
<polygon id="E9-26" class="st0" points="203.22,99.56 239.16,99.56 239.16,258.42 236.03,258.42 236.03,264.98 215.19,264.98 
	214.93,258.64 203.22,258.64 "/>
<polygon id="E9-27" class="st0" points="239.16,99.56 276.21,99.56 276.21,258.42 272.99,258.42 272.99,264.98 251.51,264.98 
	251.24,258.64 239.16,258.64 "/>
<polygon id="E9-28" class="st0" points="276.21,99.56 312.15,99.56 312.15,258.42 309.03,258.42 309.03,264.98 288.18,264.98 
	287.93,258.64 276.21,258.64 "/>
<polygon id="E9-29" class="st0" points="312.15,99.56 349.21,99.56 349.21,258.42 345.98,258.42 345.98,264.98 324.5,264.98 
	324.23,258.64 312.15,258.64 "/>
<polygon id="E9-30" class="st0" points="349.21,99.56 385.14,99.56 385.14,258.42 382.02,258.42 382.02,264.98 361.18,264.98 
	360.92,258.64 349.21,258.64 "/>
<polygon id="E9-31" class="st0" points="385.14,99.56 421.08,99.56 421.08,258.42 417.96,258.42 417.96,264.98 397.11,264.98 
	396.86,258.64 385.14,258.64 "/>
<polygon id="E9-32" class="st0" points="421.08,99.56 458.14,99.56 458.14,258.42 454.91,258.42 454.91,264.98 433.43,264.98 
	433.16,258.64 421.08,258.64 "/>
<polygon id="E9-33" class="st0" points="458.14,99.56 495.19,99.56 495.19,258.42 491.97,258.42 491.97,264.98 470.49,264.98 
	470.22,258.64 458.14,258.64 "/>
<polygon id="E9-34" class="st0" points="494.28,99.56 531.13,99.56 531.13,258.42 527.93,258.42 527.93,264.98 506.56,264.98 
	506.29,258.64 494.28,258.64 "/>
<polygon id="E9-35" class="st0" points="531.13,99.56 567.42,99.56 567.42,258.42 564.27,258.42 564.27,264.98 543.22,264.98 
	542.97,258.64 531.13,258.64 "/>
<polygon id="E9-36" class="st0" points="567.42,99.56 604.12,99.56 604.12,258.42 600.93,258.42 600.93,264.98 579.65,264.98 
	579.38,258.64 567.42,258.64 "/>
<polygon id="E9-37" class="st0" points="604.12,99.56 640.06,99.56 640.06,258.42 636.94,258.42 636.94,264.98 616.09,264.98 
	615.84,258.64 604.12,258.64 "/>
<polygon id="E9-38" class="st0" points="640.06,99.56 676.83,99.56 676.83,258.42 673.64,258.42 673.64,264.98 652.31,264.98 
	652.05,258.64 640.06,258.64 "/>
<polygon id="E9-39" class="st0" points="676.83,99.56 712.96,99.56 712.96,258.42 709.82,258.42 709.82,264.98 688.87,264.98 
	688.62,258.64 676.83,258.64 "/>
<polygon id="E9-40" class="st0" points="712.96,99.56 750.43,99.56 750.43,258.42 747.17,258.42 747.17,264.98 725.45,264.98 
	725.18,258.64 712.96,258.64 "/>
</svg>
