<?xml version="1.0" encoding="utf-8"?>
<!-- Generator: Adobe Illustrator 25.0.1, SVG Export Plug-In . SVG Version: 6.00 Build 0)  -->
<svg version="1.1" id="E-12" xmlns="http://www.w3.org/2000/svg" xmlns:xlink="http://www.w3.org/1999/xlink" x="0px" y="0px"
	 viewBox="0 0 9791 13788" style="enable-background:new 0 0 9791 13788;" xml:space="preserve">
<style type="text/css">
	.st0{fill:none;stroke:#4D4D4D;stroke-miterlimit:10;}
</style>
<image style="overflow:visible;" width="9791" height="13788" xlink:href="E12.jpg" >
</image>
<polygon id="E12-16" class="st0" points="8297,7055 7081.05,7055 7081.05,12149.88 7195.12,12149.68 7192.7,12331.16 
	8075.9,12331.16 8075.9,12146.6 8304.64,12143.93 "/>
<polygon id="E12-17" class="st0" points="7073.57,7055 5911.41,7055 5907.77,12147.42 6028.74,12148.45 6026.24,12331.16 
	6854.82,12331.16 6854.82,12146.6 7081.05,12146.6 "/>
<polygon id="E12-18" class="st0" points="5904.12,7055 4743.69,7055 4743.69,12148.65 4852.58,12148.45 4850.09,12331.16 
	5691.71,12331.16 5691.71,12146.6 5907.77,12146.39 "/>
<polygon id="E12-19" class="st0" points="4736.21,7055 3570.6,7055 3567.34,12149.88 3683.14,12148.45 3680.64,12331.16 
	4515.55,12331.16 4515.55,12146.6 4743.69,12147.62 "/>
<polygon id="E12-20" class="st0" points="3564.08,7055 2367.99,7055 2360.32,12147.62 2528.45,12148.45 2525.96,12331.16 
	3380.61,12331.16 3380.61,12146.6 3568.11,12148.86 "/>
<polygon id="outline" class="st0" points="8297,7055 2367.99,7055 2367.99,12147.62 2528.45,12147.62 2528.45,12331.16 
	3380.61,12331.16 3380.61,12146.6 3683.14,12146.6 3683.14,12331.16 4515.55,12331.16 4515.55,12146.6 4852.58,12146.6 
	4852.58,12331.16 5691.71,12331.16 5691.71,12146.6 6028.74,12146.6 6028.74,12331.16 6854.82,12331.16 6854.82,12146.6 
	7195.12,12146.6 7195.12,12331.16 8075.9,12331.16 8075.9,12146.6 8304.64,12146.6 "/>
</svg>
