<?xml version="1.0" encoding="utf-8"?>
<!-- Generator: Adobe Illustrator 25.0.1, SVG Export Plug-In . SVG Version: 6.00 Build 0)  -->
<svg version="1.1" id="E-8" xmlns="http://www.w3.org/2000/svg" xmlns:xlink="http://www.w3.org/1999/xlink" x="0px" y="0px"
	 viewBox="0 0 2384.2 1684.1" style="enable-background:new 0 0 2384.2 1684.1;" xml:space="preserve">
<style type="text/css">
	.st0{fill:none;stroke:#4C4C4C;stroke-miterlimit:10;}
</style>
<image style="overflow:visible;" width="9934" height="7017" xlink:href="E 8.jpg"  transform="matrix(0.24 0 0 0.24 0 0)">
</image>
<path id="outline" class="st0" d="M1914,879.3v534.4h-48.6v6.2h-59.5v-6.2h-94.4v6.2H1652v-8.2h-35.5v8.2h-57.6c0,0,0-5.3,0-5.8
	s-101.8,0-101.8,0v5.8H1399v-6.2h-48v6.2h-56.6v-6.7h-102.3v6.7h-57v-5.8H1090v5.8h-58.1l-0.5-6.7H930.6v6.7H873v-6.7h-10.6v6.7
	h-57.1v-6.2H665.1v6.2H607v-7.7h-42.1v7.7h-59.5v-8.2H406v8.2h-58.6v-7.2h-46.1v7.2h-56.2v-8.6H142.9v8.6H84.3v-7.7H72.1V879.3
	h1836.8H1914z"/>
<polygon id="E8-14" class="st0" points="1914,1413 1874.2,1413 1874.2,1419.5 1816.7,1419.5 1816.7,1413.8 1780.8,1413.8 
	1780.8,877.4 1912.2,875.9 "/>
<polygon id="E8-13" class="st0" points="1649.4,1414.5 1713,1414.5 1713,1419.5 1770.9,1419.5 1770.9,1413.8 1780.8,1413.8 
	1780.8,877.4 1649.4,877.4 "/>
<polygon id="E8-12" class="st0" points="1517.6,877.4 1649.4,877.4 1649.4,1417.1 1593.4,1417.3 1593.2,1411 1520.5,1410.8 "/>
<polygon id="E8-11" class="st0" points="1386.6,877.4 1517.6,877.4 1520.5,1410 1457.1,1410 1457.1,1419.5 1398.8,1419.5 
	1398.8,1410.5 1394.8,1410.4 1396.3,1198.2 1389.1,1198.2 "/>
<polygon id="E8-10" class="st0" points="1258.5,877.4 1386.6,877.4 1386.6,1152 1347.7,1152 1347.7,1159.5 1291.9,1159.5 
	1291.9,1149.8 1258.5,1150 "/>
<polygon id="E8-09" class="st0" points="1124.6,877.4 1258.5,877.4 1258.5,1150 1246.1,1150 1246.1,1159.5 1187.8,1159.5 
	1187.8,1150.5 1125.5,1150.3 "/>
<polygon id="E8-08" class="st0" points="993,877.4 1124.6,877.4 1124.6,1412 1087.8,1412 1087.8,1419.5 1030.4,1419.5 
	1030.4,1409.8 993,1410 "/>
<polygon id="E8-07" class="st0" points="861.4,877.4 993,877.4 993,1410.8 981.5,1410.8 981.5,1419.5 923.9,1419.5 923.9,1410.8 
	861.4,1410.8 "/>
<polygon id="E8-06" class="st0" points="728.5,877.4 861.4,877.4 861.4,1419.5 804.3,1419.5 804.3,1412.2 730.9,1412.2 "/>
<polygon id="E8-05" class="st0" points="599.4,877.4 730.9,877.4 730.9,1411.2 666.1,1411.2 666.1,1419.5 610.5,1419.5 
	610.5,1411.2 599.4,1411.2 "/>
<polygon id="E8-04" class="st0" points="466.4,877.4 599.4,877.4 599.4,1411.7 560.3,1411.7 560.3,1418.5 502.7,1418.5 
	502.7,1411.7 469.3,1410.7 "/>
<polygon id="E8-03" class="st0" points="335.4,877.4 469.3,877.4 469.3,1411.6 455.5,1411.6 455.5,1419.5 398.3,1419.5 
	398.3,1411.7 335.4,1411.7 "/>
<polygon id="E8-02" class="st0" points="204.3,877.4 335.4,877.4 335.4,1411.2 296.8,1411.2 296.8,1419.5 239.7,1419.5 
	239.7,1411.2 204.3,1411.2 "/>
<polygon id="E8-01" class="st0" points="72.3,877.4 204.3,877.4 204.3,1411.2 192.4,1411 192.4,1419.5 134.3,1419.5 134.3,1410.5 
	72.3,1410.2 "/>
</svg>
