<?xml version="1.0" encoding="utf-8"?>
<!-- Generator: Adobe Illustrator 25.0.1, SVG Export Plug-In . SVG Version: 6.00 Build 0)  -->
<svg version="1.1" id="E-10" xmlns="http://www.w3.org/2000/svg" xmlns:xlink="http://www.w3.org/1999/xlink" x="0px" y="0px"
	 viewBox="0 0 1920 1080" style="enable-background:new 0 0 1920 1080;" xml:space="preserve">
<style type="text/css">
	.st0{fill:none;stroke:#4C4C4C;stroke-miterlimit:10;}
</style>
<image style="overflow:visible;" width="7282" height="5147" xlink:href="AEE7255B.jpg"  transform="matrix(0.24 0 0 0.24 84.96 -77.04)">
</image>
<polygon id="outline" class="st0" points="1726.67,273.39 222.22,273.39 222.22,620.49 247.2,620.49 247.76,635.29 292.18,635.29 
	291.62,621.44 323.81,620.95 323.81,635.29 367.11,635.29 367.67,620.49 397.1,620.95 398.21,635.29 442.61,635.29 442.07,620 
	472.59,620.49 473.15,635.29 517.57,635.29 517.01,621.92 548.09,621.44 548.64,635.29 591.94,635.29 591.94,621.92 623.6,621.92 
	623.6,635.29 668,635.29 668,620.95 697.98,620.95 697.98,635.29 742.4,635.29 742.4,620.49 771.82,620.49 771.82,635.29 
	816.24,635.29 816.24,620.49 847.32,620.49 847.32,635.29 892.83,635.29 892.83,620.49 923.37,620.49 923.37,635.29 968.9,635.29 
	968.9,620.95 997.77,620.95 997.77,635.29 1043.28,635.29 1043.28,620.95 1072.71,620.95 1072.71,635.29 1117.68,635.29 
	1117.12,620.49 1148.76,620.49 1148.76,635.29 1193.18,635.29 1193.18,621.44 1222.6,621.44 1222.6,635.29 1267,635.29 1267,621.92 
	1296.42,621.92 1296.42,635.29 1341.95,635.29 1341.95,621.92 1371.94,621.92 1371.94,635.29 1417.45,635.29 1417.45,621.44 
	1447.99,621.44 1447.99,635.29 1491.85,635.29 1491.85,620 1522.93,620 1522.93,635.29 1567.9,635.29 1567.9,621.44 1598.98,621.44 
	1598.98,635.29 1642.84,635.29 1642.84,620.95 1675.03,620.95 1675.03,635.29 1718.89,635.29 1718.89,620.49 1726.67,620.49 "/>
<polygon id="E10-01" class="st0" points="222.22,291.22 298.83,291.22 298.83,621.64 292.18,621.64 292.18,635.29 247.76,635.29 
	247.2,622.1 222.22,622.1 "/>
<polygon id="E10-02" class="st0" points="298.54,291.22 375.16,291.22 375.16,621.64 368.5,621.64 368.5,635.29 324.08,635.29 
	323.54,622.1 298.54,622.1 "/>
<polygon id="E10-03" class="st0" points="375.16,291.22 449.18,291.22 449.18,621.64 442.75,621.64 442.75,635.29 399.83,635.29 
	399.29,622.1 375.16,622.1 "/>
<polygon id="E10-04" class="st0" points="449.18,291.22 523.21,291.22 523.21,621.64 516.78,621.64 516.78,635.29 473.85,635.29 
	473.31,622.1 449.18,622.1 "/>
<polygon id="E10-05" class="st0" points="523.21,291.22 599.53,291.22 599.53,621.64 592.9,621.64 592.9,635.29 548.64,635.29 
	548.09,622.1 523.21,622.1 "/>
<polygon id="E10-06" class="st0" points="599.53,291.22 673.56,291.22 673.56,621.64 667.13,621.64 667.13,635.29 624.2,635.29 
	623.66,622.1 599.53,622.1 "/>
<polygon id="E10-07" class="st0" points="673.56,291.22 749.88,291.22 749.88,621.64 743.24,621.64 743.24,635.29 698.99,635.29 
	698.44,622.1 673.56,622.1 "/>
<polygon id="E10-08" class="st0" points="749.88,291.22 823.91,291.22 823.91,621.64 817.48,621.64 817.48,635.29 774.55,635.29 
	774.01,622.1 749.88,622.1 "/>
<polygon id="E10-09" class="st0" points="823.91,291.22 900.23,291.22 900.23,621.64 893.59,621.64 893.59,635.29 849.34,635.29 
	848.81,622.1 823.91,622.1 "/>
<polygon id="E10-10" class="st0" points="900.23,291.22 974.26,291.22 974.26,621.64 967.83,621.64 967.83,635.29 924.9,635.29 
	924.36,622.1 900.23,622.1 "/>
<polygon id="E10-11" class="st0" points="974.26,291.22 1048.29,291.22 1048.29,621.64 1041.85,621.64 1041.85,635.29 
	998.93,635.29 998.39,622.1 974.26,622.1 "/>
<polygon id="E10-12" class="st0" points="1048.29,291.22 1124.61,291.22 1124.61,621.64 1117.97,621.64 1117.97,635.29 
	1073.72,635.29 1073.16,622.1 1048.29,622.1 "/>
<polygon id="E10-13" class="st0" points="1124.61,291.22 1200.95,291.22 1200.95,621.64 1194.31,621.64 1194.31,635.29 
	1150.06,635.29 1149.5,622.1 1124.61,622.1 "/>
<polygon id="E10-14" class="st0" points="1199.07,291.22 1274.96,291.22 1274.96,621.64 1268.36,621.64 1268.36,635.29 
	1224.34,635.29 1223.8,622.1 1199.07,622.1 "/>
<polygon id="E10-15" class="st0" points="1274.96,291.22 1349.73,291.22 1349.73,621.64 1343.21,621.64 1343.21,635.29 
	1299.87,635.29 1299.34,622.1 1274.96,622.1 "/>
<polygon id="E10-16" class="st0" points="1349.73,291.22 1425.31,291.22 1425.31,621.64 1418.75,621.64 1418.75,635.29 
	1374.91,635.29 1374.36,622.1 1349.73,622.1 "/>
<polygon id="E10-17" class="st0" points="1425.31,291.22 1499.33,291.22 1499.33,621.64 1492.9,621.64 1492.9,635.29 
	1449.98,635.29 1449.44,622.1 1425.31,622.1 "/>
<polygon id="E10-18" class="st0" points="1499.33,291.22 1575.06,291.22 1575.06,621.64 1568.5,621.64 1568.5,635.29 
	1524.56,635.29 1524.04,622.1 1499.33,622.1 "/>
<polygon id="E10-19" class="st0" points="1575.06,291.22 1649.5,291.22 1649.5,621.64 1643.02,621.64 1643.02,635.29 
	1599.89,635.29 1599.35,622.1 1575.06,622.1 "/>
<polygon id="E10-20" class="st0" points="1649.5,291.22 1726.67,291.22 1726.67,621.64 1719.97,621.64 1719.97,635.29 
	1675.22,635.29 1674.66,622.1 1649.5,622.1 "/>
</svg>
