<?xml version="1.0" encoding="utf-8"?>
<!-- Generator: Adobe Illustrator 25.0.1, SVG Export Plug-In . SVG Version: 6.00 Build 0)  -->
<svg version="1.1" id="E-5" xmlns="http://www.w3.org/2000/svg" xmlns:xlink="http://www.w3.org/1999/xlink" x="0px" y="0px"
	 viewBox="0 0 716 469" style="enable-background:new 0 0 716 469;" xml:space="preserve">
<style type="text/css">
	.st0{fill:none;stroke:#4C4C4C;stroke-miterlimit:10;}
</style>
<image style="overflow:visible;enable-background:new    ;" width="3300" height="2550" xlink:href="E-5 2nd floor.jpg"  transform="matrix(0.24 0 0 0.24 -60 -88)">
</image>
<rect id="E5-240" x="28.5" y="63.8" class="st0" width="33" height="135.1"/>
<rect id="E5-239" x="61.5" y="63.8" class="st0" width="32.6" height="135.1"/>
<rect id="E5-238" x="94.1" y="63.8" class="st0" width="33.4" height="135.1"/>
<rect id="E5-237" x="127.5" y="63.8" class="st0" width="32.6" height="135.1"/>
<rect id="E5-236" x="160.1" y="63.8" class="st0" width="34.4" height="135.1"/>
<rect id="E5-235" x="194.5" y="63.8" class="st0" width="32.6" height="135.1"/>
<rect id="E5-234" x="227.1" y="63.8" class="st0" width="33.4" height="135.1"/>
<rect id="E5-233" x="260.5" y="63.8" class="st0" width="32.6" height="135.1"/>
<rect id="E5-232" x="293.5" y="63.8" class="st0" width="33" height="135.1"/>
<rect id="E5-231" x="326.5" y="63.8" class="st0" width="32.6" height="135.1"/>
<rect id="E5-230" x="359.1" y="63.8" class="st0" width="33.4" height="135.1"/>
<rect id="E5-229" x="392.5" y="63.8" class="st0" width="32.6" height="135.1"/>
<rect id="E5-228" x="425.1" y="63.8" class="st0" width="34.4" height="135.1"/>
<rect id="E5-227" x="459.5" y="63.8" class="st0" width="32.6" height="135.1"/>
<rect id="E5-226" x="492.1" y="63.8" class="st0" width="33.4" height="135.1"/>
<rect id="E5-225" x="525.5" y="63.8" class="st0" width="32.6" height="135.1"/>
<rect id="E5-224" x="558.1" y="63.8" class="st0" width="32.7" height="135.1"/>
<rect id="E5-223" x="590.8" y="63.8" class="st0" width="33.1" height="135.1"/>
<rect id="E5-222" x="623.9" y="63.8" class="st0" width="32.9" height="135.1"/>
<rect id="E5-221" x="656.8" y="63.8" class="st0" width="34.3" height="135.1"/>
<polygon id="outline" class="st0" points="691.1,199 28.5,199 28.5,63.8 691.1,63.8 "/>
</svg>
