<?xml version="1.0" encoding="utf-8"?>
<!-- Generator: Adobe Illustrator 25.0.1, SVG Export Plug-In . SVG Version: 6.00 Build 0)  -->
<svg version="1.1" id="E-5" xmlns="http://www.w3.org/2000/svg" xmlns:xlink="http://www.w3.org/1999/xlink" x="0px" y="0px"
	 viewBox="0 0 1920 1080" style="enable-background:new 0 0 1920 1080;" xml:space="preserve">
<style type="text/css">
	.st0{fill:none;stroke:#4C4C4C;stroke-miterlimit:10;}
</style>
<image style="overflow:visible;" width="3300" height="2550" xlink:href="E-5.jpg"  transform="matrix(0.5132 0 0 0.5132 113.1915 -114.352)">
</image>
<rect id="outline_2_" x="302.55" y="255.96" class="st0" width="1395.74" height="284.04"/>
<rect id="E5-140" x="302.55" y="255.96" class="st0" width="70.65" height="284.04"/>
<rect id="E5-139" x="372.72" y="255.96" class="st0" width="70.65" height="284.04"/>
<rect id="E5-138" x="442.89" y="255.96" class="st0" width="70.65" height="284.04"/>
<rect id="E5-137" x="514.08" y="255.96" class="st0" width="69.47" height="284.04"/>
<rect id="E5-136" x="583.07" y="255.96" class="st0" width="69.47" height="284.04"/>
<rect id="E5-135" x="652.06" y="255.96" class="st0" width="69.47" height="284.04"/>
<rect id="E5-134" x="721.54" y="255.96" class="st0" width="70.65" height="284.04"/>
<rect id="E5-133" x="791.71" y="255.96" class="st0" width="70.65" height="284.04"/>
<rect id="E5-132" x="861.87" y="255.96" class="st0" width="70.65" height="284.04"/>
<rect id="E5-131" x="932.05" y="255.96" class="st0" width="68.38" height="284.04"/>
<rect id="E5-130" x="1000.43" y="255.96" class="st0" width="69.05" height="284.04"/>
<rect id="E5-129" x="1069.48" y="255.96" class="st0" width="72.22" height="284.04"/>
<rect id="E5-128" x="1141.21" y="255.96" class="st0" width="69.47" height="284.04"/>
<rect id="E5-127" x="1210.69" y="255.96" class="st0" width="67.39" height="284.04"/>
<rect id="E5-126" x="1278.08" y="255.96" class="st0" width="68.96" height="284.04"/>
<rect id="E5-125" x="1349.12" y="255.96" class="st0" width="68.95" height="284.04"/>
<rect id="E5-123" x="1488.4" y="255.96" class="st0" width="68.77" height="284.04"/>
<rect id="E5-124" x="1415.99" y="255.96" class="st0" width="72.88" height="284.04"/>
<rect id="E5-122" x="1557.17" y="255.96" class="st0" width="69.94" height="284.04"/>
<rect id="E5-121" x="1628.36" y="255.96" class="st0" width="69.94" height="284.04"/>
</svg>
