<?xml version="1.0" encoding="utf-8"?>
<!-- Generator: Adobe Illustrator 25.0.1, SVG Export Plug-In . SVG Version: 6.00 Build 0)  -->
<svg version="1.1" id="E-6" xmlns="http://www.w3.org/2000/svg" xmlns:xlink="http://www.w3.org/1999/xlink" x="0px" y="0px"
	 viewBox="0 0 713 478" style="enable-background:new 0 0 713 478;" xml:space="preserve">
<style type="text/css">
	.st0{fill:none;stroke:#4C4C4C;stroke-miterlimit:10;}
</style>
<image style="overflow:visible;enable-background:new    ;" width="3300" height="2550" xlink:href="E-6 2nd floor.jpg"  transform="matrix(0.24 0 0 0.24 -62 -78.5)">
</image>
<rect id="E6-220" x="654.8" y="236.8" class="st0" width="34.3" height="135.1"/>
<rect id="E6-219" x="621.9" y="236.8" class="st0" width="32.9" height="135.1"/>
<rect id="E6-218" x="588.8" y="236.8" class="st0" width="33.1" height="135.1"/>
<rect id="E6-217" x="555.1" y="236.8" class="st0" width="32.7" height="135.1"/>
<rect id="E6-216" x="522.3" y="236.8" class="st0" width="33.8" height="135.1"/>
<rect id="E6-215" x="490.1" y="236.8" class="st0" width="32.2" height="135.1"/>
<rect id="E6-214" x="457.5" y="236.8" class="st0" width="32.6" height="135.1"/>
<rect id="E6-213" x="423.1" y="236.8" class="st0" width="34.4" height="135.1"/>
<rect id="E6-212" x="390.5" y="236.8" class="st0" width="32.6" height="135.1"/>
<rect id="E6-211" x="357.1" y="236.8" class="st0" width="33.4" height="135.1"/>
<rect id="E6-210" x="324.5" y="236.8" class="st0" width="32.6" height="135.1"/>
<rect id="E6-209" x="291.5" y="236.8" class="st0" width="33" height="135.1"/>
<rect id="E6-208" x="258.5" y="236.8" class="st0" width="32.6" height="135.1"/>
<rect id="E6-207" x="225.1" y="236.8" class="st0" width="33.4" height="135.1"/>
<rect id="E6-206" x="192.5" y="236.8" class="st0" width="32.6" height="135.1"/>
<rect id="E6-205" x="158.1" y="236.8" class="st0" width="34.4" height="135.1"/>
<rect id="E6-204" x="125.5" y="236.5" class="st0" width="33" height="135"/>
<rect id="E6-203" x="92.1" y="236.8" class="st0" width="33.4" height="135.1"/>
<rect id="E6-202" x="59.5" y="236.8" class="st0" width="32.6" height="135.1"/>
<rect id="E6-201" x="26.5" y="236.8" class="st0" width="33" height="135.1"/>
<polygon id="outline" class="st0" points="688.1,372 25.5,372 25.5,236.5 688.1,236.5 "/>
</svg>
