<?xml version="1.0" encoding="utf-8"?>
<!-- Generator: Adobe Illustrator 25.0.1, SVG Export Plug-In . SVG Version: 6.00 Build 0)  -->
<svg version="1.1" xmlns="http://www.w3.org/2000/svg" xmlns:xlink="http://www.w3.org/1999/xlink" x="0px" y="0px"
	 viewBox="0 0 3154 2550" style="enable-background:new 0 0 3154 2550;" xml:space="preserve">
<style type="text/css">
	.st0{display:none;}
	.st1{display:inline;fill:none;stroke:#4C4C4C;stroke-width:0.5941;stroke-miterlimit:5.9414;}
	.st2{fill:none;stroke:#4C4C4C;stroke-width:0.5941;stroke-miterlimit:5.9414;}
</style>
<g id="Layer_3" class="st0">
	
		<image style="display:inline;overflow:visible;" width="3300" height="2550" xlink:href="D-7 ground floor.jpg"  transform="matrix(0.4582 0 0 0.4447 748 701)">
	</image>
	<polygon id="D7-40" class="st1" points="884,1232.06 951.4,1232.06 951.32,969.28 882,969 	"/>
	<polygon id="D7-39" class="st1" points="1013.17,1232.06 1013.17,969.79 951.4,969.28 951.47,1232.06 	"/>
	<polygon id="D7-38" class="st1" points="1015.87,1233 1082.89,1233 1082.89,969.28 1013.17,969.79 	"/>
	<polygon id="D7-37" class="st1" points="1082.89,969.28 1144.32,969.15 1144.32,1232.06 1082.89,1232.06 	"/>
	<rect id="D7-36" x="1144.32" y="969.15" class="st1" width="66.03" height="262.89"/>
	<rect id="D7-35" x="1210.35" y="971.46" class="st1" width="65.57" height="260.58"/>
	<rect id="D7-34" x="1275.92" y="971.46" class="st1" width="65.57" height="260.58"/>
	<rect id="D7-33" x="1341.5" y="971.46" class="st1" width="66.49" height="260.58"/>
	<rect id="D7-32" x="1408.37" y="971.46" class="st1" width="64.36" height="260.58"/>
	<rect id="D7-31" x="1472.7" y="971.46" class="st1" width="65.57" height="260.58"/>
	<rect id="D7-30" x="1538.28" y="971.46" class="st1" width="66.49" height="260.58"/>
	<polygon id="D7-29" class="st1" points="1672.95,1233 1670.42,969.79 1603.4,969.28 1603.47,1232.06 	"/>
	<polygon id="D7-28" class="st1" points="1672.95,1233 1735.31,1233 1735.31,969.28 1670.42,969.79 	"/>
	<polygon id="D7-27" class="st1" points="1735.31,969.28 1801.56,969.15 1801.56,1232.06 1735.31,1232.06 	"/>
	<rect id="D7-26" x="1801.56" y="969.15" class="st1" width="66.03" height="262.89"/>
	<rect id="D7-25" x="1867.6" y="971.46" class="st1" width="65.57" height="260.58"/>
	<rect id="D7-24" x="1933.17" y="971.46" class="st1" width="65.57" height="260.58"/>
	<rect id="D7-23" x="1998.74" y="971.46" class="st1" width="66.49" height="260.58"/>
	<rect id="D7-22" x="2065.61" y="971.46" class="st1" width="64.36" height="260.58"/>
	<rect id="D7-21" x="2129.97" y="971.46" class="st1" width="65.57" height="260.58"/>
	<polygon id="outline_2_" class="st1" points="883,961 931.74,961 931.74,969.14 953.48,969.14 953.48,961 1001.99,961 
		1001.99,969.14 1016.42,969.14 1016.42,962.35 1062.18,962.35 1062.18,969.14 1085.52,969.14 1085.52,962.35 1324.66,962.35 
		1324.66,969.14 1347.08,969.14 1347.08,961.9 1456.24,961.9 1456.24,969.14 1477.52,969.14 1477.52,961 1525.35,961 
		1525.35,969.14 1549.83,969.14 1549.83,962.13 1597.65,962.13 1597.65,969.14 1619.62,969.14 1619.62,961.9 1666.31,961.9 
		1666.31,969.14 1681.41,969.14 1681.41,961 1727.87,961 1727.87,969.14 1750.06,969.14 1750.06,961.68 1825.8,961.68 
		1990.57,961.68 1990.57,969.14 2012.77,969.14 2012.77,961.68 2060.14,961.68 2060.14,969.14 2075.46,969.14 2075.46,962.81 
		2121.22,962.81 2121.22,969.14 2143.19,969.14 2143.19,961 2194,961 2194,1233 883,1233 	"/>
</g>
<g id="Layer_4" class="st0">
	
		<image style="display:inline;overflow:visible;" width="3300" height="2550" xlink:href="D-8-ground-floor.jpg"  transform="matrix(1 0 0 1 -146 0)">
	</image>
	<polygon id="D8-01" class="st1" points="151.16,1310.06 287.17,1310.06 287.17,1894.32 147,1895.14 	"/>
	<polygon id="D8-02" class="st1" points="433.17,1310.06 433.17,1893.09 287.17,1894.32 287.17,1310.06 	"/>
	<polygon id="D8-03" class="st1" points="438.57,1308 574.59,1308 574.59,1894.32 433.17,1893.09 	"/>
	<polygon id="D8-04" class="st1" points="574.59,1894.32 718.92,1894.73 718.92,1310.06 574.59,1310.06 	"/>
	<rect id="D8-05" x="718.92" y="1310.06" class="st1" width="143.92" height="584.68"/>
	<rect id="D8-06" x="863.25" y="1310.06" class="st1" width="143.08" height="579.74"/>
	<rect id="D8-07" x="1005.92" y="1310.06" class="st1" width="143.08" height="579.74"/>
	<rect id="D8-08" x="1149" y="1310.06" class="st1" width="145.16" height="579.74"/>
	<rect id="D8-09" x="1295" y="1310.06" class="st1" width="140.17" height="579.74"/>
	<rect id="D8-10" x="1435.17" y="1310.06" class="st1" width="143.08" height="579.74"/>
	<rect id="D8-11" x="1578.25" y="1310.06" class="st1" width="145.16" height="579.74"/>
	<polygon id="D8-12" class="st1" points="1871.91,1308 1866.08,1893.09 1720.09,1894.32 1720.09,1310.06 	"/>
	<polygon id="D8-13" class="st1" points="1871.91,1308 2007.5,1308 2007.5,1894.32 1866.08,1893.09 	"/>
	<polygon id="D8-14" class="st1" points="2007.5,1894.32 2152.25,1894.73 2152.25,1310.06 2007.5,1310.06 	"/>
	<rect id="D8-15" x="2152.25" y="1310.06" class="st1" width="143.92" height="584.68"/>
	<rect id="D8-16" x="2296.17" y="1310.06" class="st1" width="143.08" height="579.74"/>
	<rect id="D8-17" x="2439.25" y="1310.06" class="st1" width="143.08" height="579.74"/>
	<rect id="D8-18" x="2581.92" y="1310.06" class="st1" width="145.16" height="579.74"/>
	<rect id="D8-19" x="2727.91" y="1310.06" class="st1" width="140.17" height="579.74"/>
	<rect id="D8-20" x="2868.08" y="1310.06" class="st1" width="143.08" height="579.74"/>
	<polygon id="outline_3_" class="st1" points="148.25,1912 254.73,1912 254.73,1893.91 302.15,1893.91 302.15,1912 408.21,1912 
		408.21,1893.91 439.82,1893.91 439.82,1908.71 539.65,1908.71 539.65,1893.91 590.81,1893.91 590.81,1908.71 1113.23,1908.71 
		1113.23,1893.91 1161.9,1893.91 1161.9,1909.94 1400.65,1909.94 1400.65,1893.91 1446.82,1893.91 1446.82,1912 1551.63,1912 
		1551.63,1893.91 1604.87,1893.91 1604.87,1909.53 1709.27,1909.53 1709.27,1893.91 1757.52,1893.91 1757.52,1909.94 
		1859.43,1909.94 1859.43,1893.91 1892.29,1893.91 1892.29,1912 1993.78,1912 1993.78,1893.91 2042.44,1893.91 2042.44,1910.36 
		2207.99,1910.36 2567.78,1910.36 2567.78,1893.91 2616.44,1893.91 2616.44,1910.36 2719.59,1910.36 2719.59,1893.91 
		2753.28,1893.91 2753.28,1907.89 2853.11,1907.89 2853.11,1893.91 2901.36,1893.91 2901.36,1912 3012,1912 3012,1308 148.25,1308 	
		"/>
</g>
<g id="Layer_5" class="st0">
	
		<image style="display:inline;overflow:visible;" width="3300" height="2550" xlink:href="D-5 ground floor.jpg"  transform="matrix(0.8984 0 0 0.8984 95 130)">
	</image>
	<polygon id="D5-40" class="st1" points="363.92,1193.15 495.99,1193.15 495.84,674.35 360,673.79 	"/>
	<polygon id="D5-39" class="st1" points="617.04,1193.15 617.04,675.35 495.99,674.35 496.14,1193.15 	"/>
	<polygon id="D5-38" class="st1" points="622.33,1195 753.66,1195 753.66,674.35 617.04,675.35 	"/>
	<polygon id="D5-37" class="st1" points="753.66,674.35 874.03,674.09 874.03,1193.15 753.66,1193.15 	"/>
	<rect id="D5-36" x="874.03" y="674.09" class="st1" width="129.39" height="519.02"/>
	<rect id="D5-35" x="1003.43" y="678.65" class="st1" width="128.5" height="514.46"/>
	<rect id="D5-34" x="1131.92" y="678.65" class="st1" width="128.5" height="514.46"/>
	<rect id="D5-33" x="1260.42" y="678.65" class="st1" width="130.29" height="514.46"/>
	<rect id="D5-32" x="1391.46" y="678.65" class="st1" width="126.11" height="514.46"/>
	<rect id="D5-31" x="1517.53" y="678.65" class="st1" width="128.5" height="514.46"/>
	<rect id="D5-30" x="1646.03" y="678.65" class="st1" width="130.29" height="514.46"/>
	<polygon id="D5-29" class="st1" points="1909.92,1195 1904.97,675.35 1773.64,674.35 1773.78,1193.15 	"/>
	<polygon id="D5-28" class="st1" points="1909.92,1195 2032.12,1195 2032.12,674.35 1904.97,675.35 	"/>
	<polygon id="D5-27" class="st1" points="2032.12,674.35 2161.96,674.09 2161.96,1193.15 2032.12,1193.15 	"/>
	<rect id="D5-26" x="2161.96" y="674.09" class="st1" width="129.39" height="519.02"/>
	<rect id="D5-25" x="2291.36" y="678.65" class="st1" width="128.5" height="514.46"/>
	<rect id="D5-24" x="2419.85" y="678.65" class="st1" width="128.5" height="514.46"/>
	<rect id="D5-23" x="2548.35" y="678.65" class="st1" width="130.29" height="514.46"/>
	<rect id="D5-22" x="2679.39" y="678.65" class="st1" width="126.11" height="514.46"/>
	<rect id="D5-21" x="2805.5" y="678.65" class="st1" width="128.5" height="514.46"/>
	<polygon id="outline_4_" class="st1" points="361.96,658 457.47,658 457.47,674.08 500.07,674.08 500.07,658 595.14,658 
		595.14,674.08 623.41,674.08 623.41,660.67 713.08,660.67 713.08,674.08 758.81,674.08 758.81,660.67 1227.43,660.67 
		1227.43,674.08 1271.37,674.08 1271.37,659.78 1485.27,659.78 1485.27,674.08 1526.98,674.08 1526.98,658 1620.7,658 
		1620.7,674.08 1668.66,674.08 1668.66,660.23 1762.38,660.23 1762.38,674.08 1805.43,674.08 1805.43,659.78 1896.92,659.78 
		1896.92,674.08 1926.5,674.08 1926.5,658 2017.55,658 2017.55,674.08 2061.04,674.08 2061.04,659.34 2209.46,659.34 
		2532.34,659.34 2532.34,674.08 2575.84,674.08 2575.84,659.34 2668.67,659.34 2668.67,674.08 2698.69,674.08 2698.69,661.56 
		2788.36,661.56 2788.36,674.08 2831.41,674.08 2831.41,658 2930.97,658 2930.97,1195 361.96,1195 	"/>
</g>
<g id="Layer_6" class="st0">
	
		<image style="display:inline;overflow:visible;" width="3300" height="2550" xlink:href="E-5 ground floor.jpg"  transform="matrix(0.8867 0 0 0.8867 114 144.5)">
	</image>
	<polygon id="E5-40" class="st1" points="373.87,1193.15 504.41,1193.15 504.26,674.35 370,673.79 	"/>
	<polygon id="E5-39" class="st1" points="624.04,1193.15 624.04,675.35 504.41,674.35 504.55,1193.15 	"/>
	<polygon id="E5-38" class="st1" points="629.27,1195 759.07,1195 759.07,674.35 624.04,675.35 	"/>
	<polygon id="E5-37" class="st1" points="759.07,674.35 878.04,674.09 878.04,1193.15 759.07,1193.15 	"/>
	<rect id="E5-36" x="878.04" y="674.09" class="st1" width="127.89" height="519.02"/>
	<rect id="E5-35" x="1005.93" y="678.65" class="st1" width="127" height="514.46"/>
	<rect id="E5-34" x="1132.93" y="678.65" class="st1" width="127" height="514.46"/>
	<rect id="E5-33" x="1259.93" y="678.65" class="st1" width="128.77" height="514.46"/>
	<rect id="E5-32" x="1389.44" y="678.65" class="st1" width="124.64" height="514.46"/>
	<rect id="E5-31" x="1514.04" y="678.65" class="st1" width="127" height="514.46"/>
	<rect id="E5-30" x="1641.04" y="678.65" class="st1" width="128.77" height="514.46"/>
	<polygon id="E5-29" class="st1" points="1901.86,1195 1896.96,675.35 1767.16,674.35 1767.31,1193.15 	"/>
	<polygon id="E5-28" class="st1" points="1901.86,1195 2022.63,1195 2022.63,674.35 1896.96,675.35 	"/>
	<polygon id="E5-27" class="st1" points="2022.63,674.35 2150.96,674.09 2150.96,1193.15 2022.63,1193.15 	"/>
	<rect id="E5-26" x="2150.96" y="674.09" class="st1" width="127.89" height="519.02"/>
	<rect id="E5-25" x="2278.85" y="678.65" class="st1" width="127" height="514.46"/>
	<rect id="E5-24" x="2405.85" y="678.65" class="st1" width="127" height="514.46"/>
	<rect id="E5-23" x="2532.85" y="678.65" class="st1" width="128.77" height="514.46"/>
	<rect id="E5-22" x="2662.35" y="678.65" class="st1" width="124.64" height="514.46"/>
	<rect id="E5-21" x="2787" y="678.65" class="st1" width="127" height="514.46"/>
	<polygon id="outline_1_" class="st1" points="371.94,658 466.33,658 466.33,674.08 508.44,674.08 508.44,658 602.4,658 
		602.4,674.08 630.34,674.08 630.34,660.67 718.96,660.67 718.96,674.08 764.16,674.08 764.16,660.67 1227.32,660.67 
		1227.32,674.08 1270.75,674.08 1270.75,659.78 1482.15,659.78 1482.15,674.08 1523.38,674.08 1523.38,658 1616.01,658 
		1616.01,674.08 1663.41,674.08 1663.41,660.23 1756.04,660.23 1756.04,674.08 1798.59,674.08 1798.59,659.78 1889.01,659.78 
		1889.01,674.08 1918.25,674.08 1918.25,658 2008.23,658 2008.23,674.08 2051.22,674.08 2051.22,659.34 2197.91,659.34 
		2517.02,659.34 2517.02,674.08 2560.01,674.08 2560.01,659.34 2651.76,659.34 2651.76,674.08 2681.43,674.08 2681.43,661.56 
		2770.06,661.56 2770.06,674.08 2812.61,674.08 2812.61,658 2911.01,658 2911.01,1195 371.94,1195 	"/>
</g>
<g id="Layer_7">
	
		<image style="overflow:visible;" width="3300" height="2550" xlink:href="E-6 ground floor.jpg"  transform="matrix(0.9519 0 0 0.9519 6.2941 61.2727)">
	</image>
	<polygon id="E6-01" class="st2" points="290.96,1309.94 420.32,1309.94 420.32,1861.32 287,1862.09 	"/>
	<polygon id="E6-02" class="st2" points="559.18,1309.94 559.18,1860.15 420.32,1861.32 420.32,1309.94 	"/>
	<polygon id="E6-03" class="st2" points="564.33,1308 693.69,1308 693.69,1861.32 559.18,1860.15 	"/>
	<polygon id="E6-04" class="st2" points="693.69,1861.32 830.97,1861.7 830.97,1309.94 693.69,1309.94 	"/>
	<rect id="E6-05" x="830.97" y="1309.94" class="st2" width="136.88" height="551.76"/>
	<rect id="E6-06" x="968.25" y="1309.94" class="st2" width="136.09" height="547.11"/>
	<rect id="E6-07" x="1103.95" y="1309.94" class="st2" width="136.09" height="547.11"/>
	<rect id="E6-08" x="1240.04" y="1309.94" class="st2" width="138.07" height="547.11"/>
	<rect id="E6-09" x="1378.9" y="1309.94" class="st2" width="133.32" height="547.11"/>
	<rect id="E6-10" x="1512.22" y="1309.94" class="st2" width="136.09" height="547.11"/>
	<rect id="E6-11" x="1648.31" y="1309.94" class="st2" width="138.07" height="547.11"/>
	<polygon id="E6-12" class="st2" points="1927.62,1308 1922.08,1860.15 1783.22,1861.32 1783.22,1309.94 	"/>
	<polygon id="E6-13" class="st2" points="1927.62,1308 2056.59,1308 2056.59,1861.32 1922.08,1860.15 	"/>
	<polygon id="E6-14" class="st2" points="2056.59,1861.32 2194.26,1861.7 2194.26,1309.94 2056.59,1309.94 	"/>
	<rect id="E6-15" x="2194.26" y="1309.94" class="st2" width="136.88" height="551.76"/>
	<rect id="E6-16" x="2331.15" y="1309.94" class="st2" width="136.09" height="547.11"/>
	<rect id="E6-17" x="2467.24" y="1309.94" class="st2" width="136.09" height="547.11"/>
	<rect id="E6-18" x="2602.93" y="1309.94" class="st2" width="138.07" height="547.11"/>
	<rect id="E6-19" x="2741.8" y="1309.94" class="st2" width="133.32" height="547.11"/>
	<rect id="E6-20" x="2875.12" y="1309.94" class="st2" width="136.09" height="547.11"/>
	<polygon id="outline_5_" class="st2" points="288.19,1878 389.46,1878 389.46,1860.93 434.56,1860.93 434.56,1878 535.45,1878 
		535.45,1860.93 565.51,1860.93 565.51,1874.9 660.46,1874.9 660.46,1860.93 709.12,1860.93 709.12,1874.9 1206.01,1874.9 
		1206.01,1860.93 1252.3,1860.93 1252.3,1876.06 1479.39,1876.06 1479.39,1860.93 1523.3,1860.93 1523.3,1878 1622.99,1878 
		1622.99,1860.93 1673.63,1860.93 1673.63,1875.67 1772.93,1875.67 1772.93,1860.93 1818.82,1860.93 1818.82,1876.06 
		1915.75,1876.06 1915.75,1860.93 1947,1860.93 1947,1878 2043.53,1878 2043.53,1860.93 2089.82,1860.93 2089.82,1876.45 
		2247.28,1876.45 2589.48,1876.45 2589.48,1860.93 2635.77,1860.93 2635.77,1876.45 2733.88,1876.45 2733.88,1860.93 
		2765.93,1860.93 2765.93,1874.12 2860.87,1874.12 2860.87,1860.93 2906.77,1860.93 2906.77,1878 3012,1878 3012,1308 288.19,1308 	
		"/>
</g>
</svg>
