<?xml version="1.0" encoding="utf-8"?>
<!-- Generator: Adobe Illustrator 25.0.1, SVG Export Plug-In . SVG Version: 6.00 Build 0)  -->
<svg version="1.1" id="E-6" xmlns="http://www.w3.org/2000/svg" xmlns:xlink="http://www.w3.org/1999/xlink" x="0px" y="0px"
	 viewBox="0 0 1920 1080" style="enable-background:new 0 0 1920 1080;" xml:space="preserve">
<style type="text/css">
	.st0{fill:none;stroke:#4C4C4C;stroke-miterlimit:10;}
</style>
<image style="overflow:visible;enable-background:new    ;" width="3300" height="2550" xlink:href="E-6.jpg"  transform="matrix(0.4973 0 0 0.4973 139.4743 -94.0426)">
</image>
<rect id="outline_1_" x="321.42" y="592" class="st0" width="1357.73" height="295.2"/>
<rect id="E6-101" x="321.42" y="592" class="st0" width="68.73" height="295.2"/>
<rect id="E6-102" x="389.68" y="592" class="st0" width="68.73" height="295.2"/>
<rect id="E6-103" x="457.94" y="592" class="st0" width="68.73" height="295.2"/>
<rect id="E6-104" x="527.18" y="592" class="st0" width="67.58" height="295.2"/>
<rect id="E6-105" x="594.3" y="592" class="st0" width="67.58" height="295.2"/>
<rect id="E6-106" x="661.41" y="592" class="st0" width="67.58" height="295.2"/>
<rect id="E6-107" x="728.99" y="592" class="st0" width="68.73" height="295.2"/>
<rect id="E6-108" x="797.25" y="592" class="st0" width="68.73" height="295.2"/>
<rect id="E6-109" x="865.51" y="592" class="st0" width="68.73" height="295.2"/>
<rect id="E6-110" x="933.77" y="592" class="st0" width="68.73" height="295.2"/>
<rect id="E6-111" x="1000.28" y="592" class="st0" width="67.17" height="295.2"/>
<rect id="E6-112" x="1067.45" y="592" class="st0" width="70.26" height="295.2"/>
<rect id="E6-113" x="1137.24" y="592" class="st0" width="67.58" height="295.2"/>
<rect id="E6-114" x="1202.01" y="592" class="st0" width="68.37" height="295.2"/>
<rect id="E6-115" x="1273.56" y="592" class="st0" width="63.91" height="295.2"/>
<rect id="E6-116" x="1337.46" y="592" class="st0" width="67.08" height="295.2"/>
<rect id="E6-117" x="1404.54" y="592" class="st0" width="70.89" height="295.2"/>
<rect id="E6-118" x="1474.97" y="592" class="st0" width="66.9" height="295.2"/>
<rect id="E6-119" x="1541.86" y="592" class="st0" width="68.04" height="295.2"/>
<rect id="E6-120" x="1611.11" y="592" class="st0" width="68.04" height="295.2"/>
</svg>
