<?xml version="1.0" encoding="utf-8"?>
<!-- Generator: Adobe Illustrator 25.0.1, SVG Export Plug-In . SVG Version: 6.00 Build 0)  -->
<svg version="1.1" id="E-7" xmlns="http://www.w3.org/2000/svg" xmlns:xlink="http://www.w3.org/1999/xlink" x="0px" y="0px"
	 viewBox="0 0 729 461" style="enable-background:new 0 0 729 461;" xml:space="preserve">
<style type="text/css">
	.st0{fill:none;stroke:#4C4C4C;stroke-miterlimit:10;}
</style>
<image style="overflow:visible;enable-background:new    ;" width="3300" height="2550" xlink:href="E-7 2nd floor.jpg"  transform="matrix(0.24 0 0 0.24 -52 -91)">
</image>
<rect id="E7-240" x="35.5" y="59.8" class="st0" width="33" height="135.1"/>
<rect id="E7-239" x="68.5" y="59.8" class="st0" width="32.6" height="135.1"/>
<rect id="E7-238" x="101.1" y="59.8" class="st0" width="33.4" height="135.1"/>
<rect id="E7-237" x="134.5" y="59.8" class="st0" width="32.6" height="135.1"/>
<rect id="E7-236" x="167.1" y="59.8" class="st0" width="34.4" height="135.1"/>
<rect id="E7-235" x="201.5" y="59.8" class="st0" width="32.6" height="135.1"/>
<rect id="E7-234" x="234.1" y="59.8" class="st0" width="33.4" height="135.1"/>
<rect id="E7-233" x="267.5" y="59.8" class="st0" width="32.6" height="135.1"/>
<rect id="E7-232" x="300.5" y="59.8" class="st0" width="33" height="135.1"/>
<rect id="E7-231" x="333.5" y="59.8" class="st0" width="32.6" height="135.1"/>
<rect id="E7-230" x="366.1" y="59.8" class="st0" width="33.4" height="135.1"/>
<rect id="E7-229" x="399.5" y="59.8" class="st0" width="32.6" height="135.1"/>
<rect id="E7-228" x="432.1" y="59.8" class="st0" width="34.4" height="135.1"/>
<rect id="E7-227" x="466.5" y="59.8" class="st0" width="32.6" height="135.1"/>
<rect id="E7-226" x="499.1" y="59.8" class="st0" width="33.4" height="135.1"/>
<rect id="E7-225" x="532.5" y="59.8" class="st0" width="32.6" height="135.1"/>
<rect id="E7-224" x="565.1" y="59.8" class="st0" width="32.7" height="135.1"/>
<rect id="E7-223" x="597.8" y="59.8" class="st0" width="33.1" height="135.1"/>
<rect id="E7-222" x="630.9" y="59.8" class="st0" width="32.9" height="135.1"/>
<rect id="E7-221" x="663.8" y="59.8" class="st0" width="34.3" height="135.1"/>
<polygon id="outline" class="st0" points="698.1,195 35.5,195 35.5,59.8 698.1,59.8 "/>
</svg>
