<?xml version="1.0" encoding="utf-8"?>
<!-- Generator: Adobe Illustrator 25.0.1, SVG Export Plug-In . SVG Version: 6.00 Build 0)  -->
<svg version="1.1" id="E-7" xmlns="http://www.w3.org/2000/svg" xmlns:xlink="http://www.w3.org/1999/xlink" x="0px" y="0px"
	 viewBox="0 0 1920 1080" style="enable-background:new 0 0 1920 1080;" xml:space="preserve">
<style type="text/css">
	.st0{fill:none;stroke:#4C4C4C;stroke-miterlimit:10;}
</style>
<image style="overflow:visible;" width="3300" height="2550" xlink:href="E-7 first floor.jpg"  transform="matrix(0.5342 0 0 0.5342 78.5621 -141.1111)">
</image>
<rect id="outline_2_" x="277.78" y="243.33" class="st0" width="1455.04" height="296.67"/>
<rect id="E7-140" x="277.78" y="243.33" class="st0" width="73.65" height="296.67"/>
<rect id="E7-139" x="350.93" y="243.33" class="st0" width="73.65" height="296.67"/>
<rect id="E7-138" x="424.08" y="243.33" class="st0" width="73.65" height="296.67"/>
<rect id="E7-137" x="498.3" y="243.33" class="st0" width="72.42" height="296.67"/>
<rect id="E7-136" x="570.22" y="243.33" class="st0" width="72.42" height="296.67"/>
<rect id="E7-135" x="642.14" y="243.33" class="st0" width="72.42" height="296.67"/>
<rect id="E7-134" x="714.57" y="243.33" class="st0" width="73.65" height="296.67"/>
<rect id="E7-133" x="787.72" y="243.33" class="st0" width="73.65" height="296.67"/>
<rect id="E7-132" x="860.86" y="243.33" class="st0" width="73.65" height="296.67"/>
<rect id="E7-131" x="934.02" y="243.33" class="st0" width="71.29" height="296.67"/>
<rect id="E7-130" x="1005.31" y="243.33" class="st0" width="71.98" height="296.67"/>
<rect id="E7-129" x="1077.29" y="243.33" class="st0" width="75.29" height="296.67"/>
<rect id="E7-128" x="1152.07" y="243.33" class="st0" width="72.42" height="296.67"/>
<rect id="E7-127" x="1224.5" y="243.33" class="st0" width="70.25" height="296.67"/>
<rect id="E7-126" x="1294.76" y="243.33" class="st0" width="71.89" height="296.67"/>
<rect id="E7-125" x="1368.81" y="243.33" class="st0" width="71.88" height="296.67"/>
<rect id="E7-123" x="1514.01" y="243.33" class="st0" width="71.69" height="296.67"/>
<rect id="E7-124" x="1438.53" y="243.33" class="st0" width="75.98" height="296.67"/>
<rect id="E7-122" x="1585.7" y="243.33" class="st0" width="72.91" height="296.67"/>
<rect id="E7-121" x="1659.92" y="243.33" class="st0" width="72.91" height="296.67"/>
</svg>
