<?xml version="1.0" encoding="utf-8"?>
<!-- Generator: Adobe Illustrator 25.0.1, SVG Export Plug-In . SVG Version: 6.00 Build 0)  -->
<svg version="1.1" id="Layer_9" xmlns="http://www.w3.org/2000/svg" xmlns:xlink="http://www.w3.org/1999/xlink" x="0px" y="0px"
	 viewBox="0 0 3154 2550" style="enable-background:new 0 0 3154 2550;" xml:space="preserve">
<style type="text/css">
	.st0{fill:none;stroke:#4C4C4C;stroke-width:0.5941;stroke-miterlimit:5.9414;}
</style>
<image style="overflow:visible;" width="3300" height="2550" xlink:href="E-8 ground floor.jpg"  transform="matrix(0.9455 0 0 0.9455 -46 70)">
</image>
<polygon id="E8-01" class="st0" points="236.94,1311.93 365.69,1311.93 365.69,1859.43 233,1860.2 "/>
<polygon id="E8-02" class="st0" points="503.88,1311.93 503.88,1858.28 365.69,1859.43 365.69,1311.93 "/>
<polygon id="E8-03" class="st0" points="509,1310 637.75,1310 637.75,1859.43 503.88,1858.28 "/>
<polygon id="E8-04" class="st0" points="637.75,1859.43 774.38,1859.82 774.38,1311.93 637.75,1311.93 "/>
<rect id="E8-05" x="774.38" y="1311.93" class="st0" width="136.23" height="547.89"/>
<rect id="E8-06" x="911" y="1311.93" class="st0" width="135.44" height="543.27"/>
<rect id="E8-07" x="1046.05" y="1311.93" class="st0" width="135.44" height="543.27"/>
<rect id="E8-08" x="1181.49" y="1311.93" class="st0" width="137.41" height="543.27"/>
<rect id="E8-09" x="1319.69" y="1311.93" class="st0" width="132.69" height="543.27"/>
<rect id="E8-10" x="1452.38" y="1311.93" class="st0" width="135.44" height="543.27"/>
<rect id="E8-11" x="1587.82" y="1311.93" class="st0" width="137.41" height="543.27"/>
<polygon id="E8-12" class="st0" points="1865.79,1310 1860.28,1858.28 1722.08,1859.43 1722.08,1311.93 "/>
<polygon id="E8-13" class="st0" points="1865.79,1310 1994.15,1310 1994.15,1859.43 1860.28,1858.28 "/>
<polygon id="E8-14" class="st0" points="1994.15,1859.43 2131.16,1859.82 2131.16,1311.93 1994.15,1311.93 "/>
<rect id="E8-15" x="2131.16" y="1311.93" class="st0" width="136.23" height="547.89"/>
<rect id="E8-16" x="2267.39" y="1311.93" class="st0" width="135.44" height="543.27"/>
<rect id="E8-17" x="2402.84" y="1311.93" class="st0" width="135.44" height="543.27"/>
<rect id="E8-18" x="2537.89" y="1311.93" class="st0" width="137.41" height="543.27"/>
<rect id="E8-19" x="2676.08" y="1311.93" class="st0" width="132.69" height="543.27"/>
<rect id="E8-20" x="2808.77" y="1311.93" class="st0" width="135.44" height="543.27"/>
<polygon id="outline_7_" class="st0" points="234.18,1876 334.98,1876 334.98,1859.05 379.86,1859.05 379.86,1876 480.26,1876 
	480.26,1859.05 510.18,1859.05 510.18,1872.92 604.68,1872.92 604.68,1859.05 653.11,1859.05 653.11,1872.92 1147.63,1872.92 
	1147.63,1859.05 1193.7,1859.05 1193.7,1874.07 1419.7,1874.07 1419.7,1859.05 1463.4,1859.05 1463.4,1876 1562.62,1876 
	1562.62,1859.05 1613.02,1859.05 1613.02,1873.69 1711.84,1873.69 1711.84,1859.05 1757.52,1859.05 1757.52,1874.07 
	1853.98,1874.07 1853.98,1859.05 1885.08,1859.05 1885.08,1876 1981.15,1876 1981.15,1859.05 2027.22,1859.05 2027.22,1874.46 
	2183.92,1874.46 2524.5,1874.46 2524.5,1859.05 2570.56,1859.05 2570.56,1874.46 2668.21,1874.46 2668.21,1859.05 2700.1,1859.05 
	2700.1,1872.15 2794.59,1872.15 2794.59,1859.05 2840.27,1859.05 2840.27,1876 2945,1876 2945,1310 234.18,1310 "/>
</svg>
