<?xml version="1.0" encoding="utf-8"?>
<!-- Generator: Adobe Illustrator 25.0.1, SVG Export Plug-In . SVG Version: 6.00 Build 0)  -->
<svg version="1.1" xmlns="http://www.w3.org/2000/svg" xmlns:xlink="http://www.w3.org/1999/xlink" x="0px" y="0px"
	 viewBox="0 0 2294.4 1622.64" style="enable-background:new 0 0 2294.4 1622.64;" xml:space="preserve">
<style type="text/css">
	.st0{display:none;fill:none;stroke:#4C4C4C;stroke-miterlimit:10;}
	.st1{fill:none;stroke:#4C4C4C;stroke-miterlimit:10;}
</style>
<g id="D-7">
	
		<image style="overflow:visible;" width="9560" height="6761" xlink:href="D7- 2ND FLOOR.jpg"  transform="matrix(0.24 0 0 0.24 0 0)">
	</image>
	<rect id="D7-254" x="1703.07" y="277.1" class="st0" width="115.92" height="466.67"/>
	<rect id="D7-253" x="1590.77" y="277.1" class="st0" width="112.3" height="466.67"/>
	<rect id="D7-252" x="1473.82" y="277.1" class="st0" width="116.96" height="466.67"/>
	<rect id="D7-251" x="1359.41" y="277.1" class="st0" width="114.44" height="466.67"/>
	<rect id="D7-250" x="1241.27" y="277.1" class="st0" width="118.1" height="466.67"/>
	<rect id="D7-249" x="1126.86" y="277.1" class="st0" width="114.44" height="466.67"/>
	<rect id="D7-248" x="1018" y="277.1" class="st0" width="108.86" height="466.67"/>
	<rect id="D7-247" x="904.74" y="277.1" class="st0" width="113.26" height="466.67"/>
	<rect id="D7-246" x="790" y="277.1" class="st0" width="114.74" height="466.67"/>
	<rect id="D7-245" x="671.57" y="277.1" class="st0" width="118.43" height="466.67"/>
	<rect id="D7-244" x="556.83" y="277.1" class="st0" width="114.74" height="466.67"/>
	<rect id="D7-243" x="442.09" y="277.1" class="st0" width="114.78" height="466.67"/>
	<rect id="D7-242" x="329.79" y="277.1" class="st0" width="112.3" height="466.67"/>
	<rect id="D7-241" x="213.87" y="277.1" class="st0" width="115.92" height="466.67"/>
	<rect id="outline_1_" x="213.87" y="277.1" class="st0" width="1605.13" height="466.67"/>
</g>
<g id="E-8">
	<rect id="outline_2_" x="213.87" y="833.48" class="st1" width="1605.13" height="214.92"/>
	<rect id="outline2" x="213.87" y="1093.48" class="st1" width="1605.13" height="214.92"/>
	<rect id="E8-227" x="1701.07" y="833.48" class="st1" width="115.92" height="214.92"/>
	<rect id="E8-228" x="1588.77" y="833.48" class="st1" width="112.3" height="214.92"/>
	<rect id="E8-229" x="1471.82" y="833.48" class="st1" width="116.96" height="214.92"/>
	<rect id="E8-230" x="1357.41" y="833.48" class="st1" width="114.44" height="214.92"/>
	<rect id="E8-231" x="1246.16" y="833.48" class="st1" width="111.21" height="214.92"/>
	<rect id="E8-232" x="1129.52" y="833.48" class="st1" width="116.64" height="214.92"/>
	<rect id="E8-233" x="1016" y="833.48" class="st1" width="113.52" height="214.92"/>
	<rect id="E8-234" x="902.74" y="833.48" class="st1" width="113.26" height="214.92"/>
	<rect id="E8-235" x="788" y="833.48" class="st1" width="63.04" height="214.92"/>
	<rect id="E8-236" x="669.57" y="833.48" class="st1" width="118.43" height="214.92"/>
	<rect id="E8-237" x="554.83" y="833.48" class="st1" width="114.74" height="214.92"/>
	<rect id="E8-238" x="440.09" y="833.48" class="st1" width="114.78" height="214.92"/>
	<rect id="E8-239" x="327.79" y="833.48" class="st1" width="112.3" height="214.92"/>
	<rect id="E8-240" x="211.87" y="833.48" class="st1" width="115.92" height="214.92"/>
	<rect id="E8-214" x="1701.07" y="1091.48" class="st1" width="115.92" height="214.92"/>
	<rect id="E8-213" x="1588.77" y="1091.48" class="st1" width="112.3" height="214.92"/>
	<rect id="E8-212" x="1471.82" y="1091.48" class="st1" width="116.96" height="214.92"/>
	<polygon id="E8-211" class="st1" points="1357.41,1091.48 1471.85,1091.48 1471.85,1306.4 1365.41,1306.4 1366.04,1117.8 
		1357.41,1118.28 	"/>
	<rect id="E8-208" x="1016" y="1091.48" class="st1" width="113.52" height="214.92"/>
	<rect id="E8-207" x="902.74" y="1091.48" class="st1" width="113.26" height="214.92"/>
	<rect id="E8-206" x="850.52" y="1091.48" class="st1" width="50.52" height="214.92"/>
	<rect id="E8-205" x="669.57" y="1091.48" class="st1" width="118.43" height="214.92"/>
	<rect id="E8-204" x="554.83" y="1091.48" class="st1" width="114.74" height="214.92"/>
	<rect id="E8-203" x="440.09" y="1091.48" class="st1" width="114.78" height="214.92"/>
	<rect id="E8-202" x="327.79" y="1091.48" class="st1" width="112.3" height="214.92"/>
	<rect id="E8-201" x="211.87" y="1091.48" class="st1" width="115.92" height="214.92"/>
</g>
</svg>
