<?xml version="1.0" encoding="utf-8"?>
<!-- Generator: Adobe Illustrator 25.0.1, SVG Export Plug-In . SVG Version: 6.00 Build 0)  -->
<svg version="1.1" id="Layer_2" xmlns="http://www.w3.org/2000/svg" xmlns:xlink="http://www.w3.org/1999/xlink" x="0px" y="0px"
	 viewBox="0 0 1920 1080" style="enable-background:new 0 0 1920 1080;" xml:space="preserve">
<style type="text/css">
	.st0{fill:none;stroke:#4C4C4C;stroke-miterlimit:10;}
</style>
<image style="overflow:visible;" width="3300" height="2550" xlink:href="E-8.jpg"  transform="matrix(0.5345 0 0 0.5345 23.6562 -176.6361)">
</image>
<rect id="outline_1_" x="222.51" y="563.2" class="st0" width="1086.13" height="296.64"/>
<rect id="E8-101" x="222.51" y="563.2" class="st0" width="73.47" height="296.64"/>
<rect id="E8-102" x="295.48" y="563.2" class="st0" width="73.47" height="296.64"/>
<rect id="E8-103" x="368.45" y="563.2" class="st0" width="73.47" height="296.64"/>
<rect id="E8-104" x="442.46" y="563.2" class="st0" width="72.24" height="296.64"/>
<rect id="E8-105" x="514.21" y="563.2" class="st0" width="72.24" height="296.64"/>
<rect id="E8-106" x="585.95" y="563.2" class="st0" width="72.24" height="296.64"/>
<rect id="E8-107" x="658.19" y="563.2" class="st0" width="73.47" height="296.64"/>
<rect id="E8-108" x="731.16" y="563.2" class="st0" width="73.47" height="296.64"/>
<rect id="E8-109" x="804.13" y="563.2" class="st0" width="73.47" height="296.64"/>
<rect id="E8-110" x="877.1" y="563.2" class="st0" width="73.47" height="296.64"/>
<rect id="E8-111" x="950.57" y="563.2" class="st0" width="69.43" height="296.64"/>
<rect id="E8-112" x="1020" y="563.2" class="st0" width="75.11" height="296.64"/>
<rect id="E8-113" x="1094.6" y="563.2" class="st0" width="72.24" height="296.64"/>
<rect id="E8-114" x="1166.84" y="563.2" class="st0" width="70.08" height="296.64"/>
<rect id="E8-115" x="1236.92" y="563.2" class="st0" width="71.72" height="296.64"/>
</svg>
