<?xml version="1.0" encoding="utf-8"?>
<!-- Generator: Adobe Illustrator 25.0.1, SVG Export Plug-In . SVG Version: 6.00 Build 0)  -->
<svg version="1.1" id="F-10" xmlns="http://www.w3.org/2000/svg" xmlns:xlink="http://www.w3.org/1999/xlink" x="0px" y="0px"
	 viewBox="0 0 1920 1080" style="enable-background:new 0 0 1920 1080;" xml:space="preserve">
<style type="text/css">
	.st0{fill:none;stroke:#4C4C4C;stroke-miterlimit:10;}
</style>
<image style="overflow:visible;" width="3509" height="2480" xlink:href="f-10.jpg"  transform="matrix(0.5105 0 0 0.5105 64.3353 -93.0146)">
</image>
<polygon id="outline" class="st0" points="1689.79,308.06 274.89,308.06 274.89,614.26 298.39,614.26 298.92,627.32 340.68,627.32 
	340.16,615.1 370.44,614.67 370.44,627.32 411.16,627.32 411.69,614.26 439.36,614.67 440.42,627.32 482.16,627.32 481.66,613.83 
	510.37,614.26 510.89,627.32 552.66,627.32 552.13,615.52 581.37,615.1 581.89,627.32 622.61,627.32 622.61,615.52 652.39,615.52 
	652.39,627.32 694.13,627.32 694.13,614.67 722.33,614.67 722.33,627.32 764.11,627.32 764.11,614.26 791.79,614.26 791.79,627.32 
	833.56,627.32 833.56,614.26 862.78,614.26 862.78,627.32 905.58,627.32 905.58,614.26 934.31,614.26 934.31,627.32 977.13,627.32 
	977.13,614.67 1004.28,614.67 1004.28,627.32 1047.08,627.32 1047.08,614.67 1074.76,614.67 1074.76,627.32 1117.05,627.32 
	1116.53,614.26 1146.28,614.26 1146.28,627.32 1188.06,627.32 1188.06,615.1 1215.72,615.1 1215.72,627.32 1257.48,627.32 
	1257.48,615.52 1285.16,615.52 1285.16,627.32 1327.98,627.32 1327.98,615.52 1356.18,615.52 1356.18,627.32 1398.98,627.32 
	1398.98,615.1 1427.69,615.1 1427.69,627.32 1468.95,627.32 1468.95,613.83 1498.17,613.83 1498.17,627.32 1540.47,627.32 
	1540.47,615.1 1569.71,615.1 1569.71,627.32 1610.96,627.32 1610.96,614.67 1641.23,614.67 1641.23,627.32 1682.47,627.32 
	1682.47,614.26 1689.79,614.26 "/>
<polygon id="F10-01" class="st0" points="274.89,307.02 346.94,307.02 346.94,615.61 340.68,615.61 340.68,628.36 298.92,628.36 
	298.39,616.04 274.89,616.04 "/>
<polygon id="F10-02" class="st0" points="346.67,307.02 418.73,307.02 418.73,615.61 412.46,615.61 412.46,628.36 370.7,628.36 
	370.19,616.04 346.67,616.04 "/>
<polygon id="F10-03" class="st0" points="418.73,307.02 488.35,307.02 488.35,615.61 482.3,615.61 482.3,628.36 441.92,628.36 
	441.42,616.04 418.73,616.04 "/>
<polygon id="F10-04" class="st0" points="488.35,307.02 557.97,307.02 557.97,615.61 551.92,615.61 551.92,628.36 511.55,628.36 
	511.04,616.04 488.35,616.04 "/>
<polygon id="F10-05" class="st0" points="557.97,307.02 629.75,307.02 629.75,615.61 623.5,615.61 623.5,628.36 581.89,628.36 
	581.37,616.04 557.97,616.04 "/>
<polygon id="F10-06" class="st0" points="629.75,307.02 699.37,307.02 699.37,615.61 693.32,615.61 693.32,628.36 652.95,628.36 
	652.45,616.04 629.75,616.04 "/>
<polygon id="F10-07" class="st0" points="699.37,307.02 771.15,307.02 771.15,615.61 764.9,615.61 764.9,628.36 723.29,628.36 
	722.77,616.04 699.37,616.04 "/>
<polygon id="F10-08" class="st0" points="771.15,307.02 840.77,307.02 840.77,615.61 834.72,615.61 834.72,628.36 794.35,628.36 
	793.85,616.04 771.15,616.04 "/>
<polygon id="F10-10" class="st0" points="912.55,307.02 982.16,307.02 982.16,615.61 976.12,615.61 976.12,628.36 935.76,628.36 
	935.24,616.04 912.55,616.04 "/>
<polygon id="F10-11" class="st0" points="982.16,307.02 1051.79,307.02 1051.79,615.61 1045.74,615.61 1045.74,628.36 
	1005.37,628.36 1004.86,616.04 982.16,616.04 "/>
<polygon id="F10-12" class="st0" points="1051.79,307.02 1123.56,307.02 1123.56,615.61 1117.33,615.61 1117.33,628.36 
	1075.7,628.36 1075.18,616.04 1051.79,616.04 "/>
<polygon id="F10-13" class="st0" points="1123.56,307.02 1195.37,307.02 1195.37,615.61 1189.13,615.61 1189.13,628.36 
	1147.51,628.36 1146.98,616.04 1123.56,616.04 "/>
<polygon id="F10-14" class="st0" points="1193.59,307.02 1264.96,307.02 1264.96,615.61 1258.77,615.61 1258.77,628.36 
	1217.37,628.36 1216.86,616.04 1193.59,616.04 "/>
<polygon id="F10-15" class="st0" points="1264.96,307.02 1335.29,307.02 1335.29,615.61 1329.17,615.61 1329.17,628.36 
	1288.39,628.36 1287.9,616.04 1264.96,616.04 "/>
<polygon id="F10-16" class="st0" points="1335.29,307.02 1406.36,307.02 1406.36,615.61 1400.21,615.61 1400.21,628.36 
	1358.97,628.36 1358.45,616.04 1335.29,616.04 "/>
<polygon id="F10-17" class="st0" points="1406.36,307.02 1475.99,307.02 1475.99,615.61 1469.94,615.61 1469.94,628.36 
	1429.57,628.36 1429.06,616.04 1406.36,616.04 "/>
<polygon id="F10-18" class="st0" points="1475.99,307.02 1547.21,307.02 1547.21,615.61 1541.04,615.61 1541.04,628.36 
	1499.71,628.36 1499.23,616.04 1475.99,616.04 "/>
<polygon id="F10-19" class="st0" points="1547.21,307.02 1617.22,307.02 1617.22,615.61 1611.13,615.61 1611.13,628.36 
	1570.56,628.36 1570.05,616.04 1547.21,616.04 "/>
<polygon id="F10-20" class="st0" points="1617.22,307.02 1689.79,307.02 1689.79,615.61 1683.49,615.61 1683.49,628.36 
	1641.4,628.36 1640.87,616.04 1617.22,616.04 "/>
</svg>
