<?xml version="1.0" encoding="utf-8"?>
<!-- Generator: Adobe Illustrator 25.0.1, SVG Export Plug-In . SVG Version: 6.00 Build 0)  -->
<svg version="1.1" xmlns="http://www.w3.org/2000/svg" xmlns:xlink="http://www.w3.org/1999/xlink" x="0px" y="0px"
	 viewBox="0 0 1920 1066" style="enable-background:new 0 0 1920 1066;" xml:space="preserve">
<style type="text/css">
	.st0{display:none;}
	.st1{display:inline;fill:none;stroke:#4C4C4C;stroke-width:0.5941;stroke-miterlimit:5.9414;}
	.st2{fill:none;stroke:#4C4C4C;stroke-width:0.5941;stroke-miterlimit:5.9414;}
</style>
<g id="Layer_1" class="st0">
	
		<image style="display:inline;overflow:visible;enable-background:new    ;" width="3300" height="2550" xlink:href="C-7 ground floor.jpg"  transform="matrix(0.5212 0 0 0.5107 100 -118.1517)">
	</image>
	<polygon id="C7-40" class="st1" points="256.27,489.93 332.9,489.93 332.82,190.95 254,190.63 	"/>
	<polygon id="C7-39" class="st1" points="403.14,489.93 403.14,191.53 332.9,190.95 332.99,489.93 	"/>
	<polygon id="C7-38" class="st1" points="406.21,491 482.41,491 482.41,190.95 403.14,191.53 	"/>
	<polygon id="C7-37" class="st1" points="482.41,190.95 552.25,190.8 552.25,489.93 482.41,489.93 	"/>
	<rect id="C7-36" x="552.25" y="190.8" class="st1" width="75.08" height="299.11"/>
	<rect id="C7-35" x="627.33" y="193.43" class="st1" width="74.56" height="296.48"/>
	<rect id="C7-34" x="701.88" y="193.43" class="st1" width="74.56" height="296.48"/>
	<rect id="C7-33" x="776.44" y="193.43" class="st1" width="75.6" height="296.48"/>
	<rect id="C7-32" x="852.47" y="193.43" class="st1" width="73.17" height="296.48"/>
	<rect id="C7-31" x="925.62" y="193.43" class="st1" width="74.56" height="296.48"/>
	<rect id="C7-30" x="1000.18" y="193.43" class="st1" width="75.6" height="296.48"/>
	<polygon id="C7-29" class="st1" points="1153.29,491 1150.42,191.53 1074.22,190.95 1074.3,489.93 	"/>
	<polygon id="C7-28" class="st1" points="1153.29,491 1224.2,491 1224.2,190.95 1150.42,191.53 	"/>
	<polygon id="C7-27" class="st1" points="1224.2,190.95 1299.53,190.8 1299.53,489.93 1224.2,489.93 	"/>
	<rect id="C7-26" x="1299.53" y="190.8" class="st1" width="75.08" height="299.11"/>
	<rect id="C7-25" x="1374.61" y="193.43" class="st1" width="74.56" height="296.48"/>
	<rect id="C7-24" x="1449.17" y="193.43" class="st1" width="74.56" height="296.48"/>
	<rect id="C7-23" x="1523.72" y="193.43" class="st1" width="75.6" height="296.48"/>
	<rect id="C7-22" x="1599.75" y="193.43" class="st1" width="73.17" height="296.48"/>
	<rect id="C7-21" x="1672.92" y="193.43" class="st1" width="74.56" height="296.48"/>
	<polygon id="outline" class="st1" points="254.54,182 310.06,182 310.06,191.25 334.83,191.25 334.83,182 390.09,182 
		390.09,191.25 406.53,191.25 406.53,183.54 458.66,183.54 458.66,191.25 485.24,191.25 485.24,183.54 757.67,183.54 757.67,191.25 
		783.21,191.25 783.21,183.03 907.56,183.03 907.56,191.25 931.81,191.25 931.81,182 986.29,182 986.29,191.25 1014.17,191.25 
		1014.17,183.28 1068.66,183.28 1068.66,191.25 1093.68,191.25 1093.68,183.03 1146.87,183.03 1146.87,191.25 1164.07,191.25 
		1164.07,182 1216.99,182 1216.99,191.25 1242.28,191.25 1242.28,182.77 1328.56,182.77 1516.26,182.77 1516.26,191.25 
		1541.55,191.25 1541.55,182.77 1595.51,182.77 1595.51,191.25 1612.97,191.25 1612.97,184.05 1665.09,184.05 1665.09,191.25 
		1690.12,191.25 1690.12,182 1748,182 1748,491 254.54,491 	"/>
</g>
<g id="Layer_2">
	
		<image style="overflow:visible;enable-background:new    ;" width="3300" height="2550" xlink:href="F-6 ground floor.jpg"  transform="matrix(0.4498 0 0 0.4374 203.583 -24.9098)">
	</image>
	<polygon id="F6-01" class="st2" points="339.18,546.07 400.39,546.07 400.39,804.92 337.31,805.28 	"/>
	<polygon id="F6-02" class="st2" points="466.09,546.07 466.09,804.37 400.39,804.92 400.39,546.07 	"/>
	<polygon id="F6-03" class="st2" points="468.53,545.16 529.74,545.16 529.74,804.92 466.09,804.37 	"/>
	<polygon id="F6-04" class="st2" points="529.74,804.92 594.7,805.1 594.7,546.07 529.74,546.07 	"/>
	<rect id="F6-05" x="594.7" y="546.07" class="st2" width="64.77" height="259.03"/>
	<rect id="F6-06" x="659.65" y="546.07" class="st2" width="64.39" height="256.85"/>
	<rect id="F6-07" x="723.86" y="546.07" class="st2" width="64.39" height="256.85"/>
	<rect id="F6-08" x="788.26" y="546.07" class="st2" width="65.33" height="256.85"/>
	<rect id="F6-09" x="853.96" y="546.07" class="st2" width="63.08" height="256.85"/>
	<rect id="F6-10" x="917.04" y="546.07" class="st2" width="64.39" height="256.85"/>
	<rect id="F6-11" x="981.44" y="546.07" class="st2" width="65.33" height="256.85"/>
	<polygon id="F6-12" class="st2" points="1113.6,545.16 1110.98,804.37 1045.27,804.92 1045.27,546.07 	"/>
	<polygon id="F6-13" class="st2" points="1113.6,545.16 1174.62,545.16 1174.62,804.92 1110.98,804.37 	"/>
	<polygon id="F6-14" class="st2" points="1174.62,804.92 1239.77,805.1 1239.77,546.07 1174.62,546.07 	"/>
	<rect id="F6-15" x="1239.77" y="546.07" class="st2" width="64.77" height="259.03"/>
	<rect id="F6-16" x="1304.53" y="546.07" class="st2" width="64.39" height="256.85"/>
	<rect id="F6-17" x="1368.93" y="546.07" class="st2" width="64.39" height="256.85"/>
	<rect id="F6-18" x="1433.14" y="546.07" class="st2" width="65.33" height="256.85"/>
	<rect id="F6-19" x="1498.84" y="546.07" class="st2" width="63.08" height="256.85"/>
	<rect id="F6-20" x="1561.93" y="546.07" class="st2" width="64.39" height="256.85"/>
	<polygon id="outline_1_" class="st2" points="337.87,812.75 385.79,812.75 385.79,804.74 407.13,804.74 407.13,812.75 
		454.86,812.75 454.86,804.74 469.09,804.74 469.09,811.29 514.02,811.29 514.02,804.74 537.04,804.74 537.04,811.29 772.16,811.29 
		772.16,804.74 794.06,804.74 794.06,811.84 901.51,811.84 901.51,804.74 922.29,804.74 922.29,812.75 969.46,812.75 969.46,804.74 
		993.42,804.74 993.42,811.66 1040.4,811.66 1040.4,804.74 1062.12,804.74 1062.12,811.84 1107.98,811.84 1107.98,804.74 
		1122.77,804.74 1122.77,812.75 1168.45,812.75 1168.45,804.74 1190.35,804.74 1190.35,812.02 1264.85,812.02 1426.77,812.02 
		1426.77,804.74 1448.67,804.74 1448.67,812.02 1495.1,812.02 1495.1,804.74 1510.26,804.74 1510.26,810.93 1555.19,810.93 
		1555.19,804.74 1576.9,804.74 1576.9,812.75 1626.69,812.75 1626.69,545.16 337.87,545.16 	"/>
</g>
</svg>
