<?xml version="1.0" encoding="utf-8"?>
<!-- Generator: Adobe Illustrator 25.0.1, SVG Export Plug-In . SVG Version: 6.00 Build 0)  -->
<svg version="1.1" id="F-6" xmlns="http://www.w3.org/2000/svg" xmlns:xlink="http://www.w3.org/1999/xlink" x="0px" y="0px"
	 viewBox="0 0 1920 1080" style="enable-background:new 0 0 1920 1080;" xml:space="preserve">
<style type="text/css">
	.st0{fill:none;stroke:#4C4C4C;stroke-miterlimit:10;}
</style>
<image style="overflow:visible;" width="3300" height="2550" xlink:href="F-6.jpg"  transform="matrix(0.5475 0 0 0.5475 56.5825 -158.0953)">
</image>
<rect id="outline_1_" x="260.32" y="599.2" class="st0" width="1486" height="324.6"/>
<rect id="F6-101" x="260.32" y="599.2" class="st0" width="75.22" height="324.6"/>
<rect id="F6-102" x="335.03" y="599.2" class="st0" width="75.22" height="324.6"/>
<rect id="F6-103" x="409.74" y="599.2" class="st0" width="75.22" height="324.6"/>
<rect id="F6-104" x="485.52" y="599.2" class="st0" width="73.96" height="324.6"/>
<rect id="F6-105" x="558.98" y="599.2" class="st0" width="73.96" height="324.6"/>
<rect id="F6-106" x="632.43" y="599.2" class="st0" width="73.96" height="324.6"/>
<rect id="F6-107" x="706.39" y="599.2" class="st0" width="75.22" height="324.6"/>
<rect id="F6-108" x="781.1" y="599.2" class="st0" width="75.22" height="324.6"/>
<rect id="F6-109" x="855.81" y="599.2" class="st0" width="75.22" height="324.6"/>
<rect id="F6-110" x="930.52" y="599.2" class="st0" width="75.22" height="324.6"/>
<rect id="F6-111" x="1003.31" y="599.2" class="st0" width="73.52" height="324.6"/>
<rect id="F6-112" x="1076.83" y="599.2" class="st0" width="76.9" height="324.6"/>
<rect id="F6-113" x="1153.21" y="599.2" class="st0" width="73.96" height="324.6"/>
<rect id="F6-114" x="1224.1" y="599.2" class="st0" width="74.83" height="324.6"/>
<rect id="F6-115" x="1302.41" y="599.2" class="st0" width="69.95" height="324.6"/>
<rect id="F6-116" x="1372.35" y="599.2" class="st0" width="73.42" height="324.6"/>
<rect id="F6-117" x="1445.76" y="599.2" class="st0" width="77.59" height="324.6"/>
<rect id="F6-118" x="1522.85" y="599.2" class="st0" width="73.22" height="324.6"/>
<rect id="F6-119" x="1596.06" y="599.2" class="st0" width="74.47" height="324.6"/>
<rect id="F6-120" x="1671.85" y="599.2" class="st0" width="74.47" height="324.6"/>
</svg>
