<?xml version="1.0" encoding="utf-8"?>
<!-- Generator: Adobe Illustrator 25.0.1, SVG Export Plug-In . SVG Version: 6.00 Build 0)  -->
<svg version="1.1" id="F-6" xmlns="http://www.w3.org/2000/svg" xmlns:xlink="http://www.w3.org/1999/xlink" x="0px" y="0px"
	 viewBox="0 0 726 483" style="enable-background:new 0 0 726 483;" xml:space="preserve">
<style type="text/css">
	.st0{fill:none;stroke:#4C4C4C;stroke-miterlimit:10;}
</style>
<image style="overflow:visible;enable-background:new    ;" width="3300" height="2550" xlink:href="F-6 2nd floor.jpg"  transform="matrix(0.24 0 0 0.24 -58 -66)">
</image>
<rect id="F6-220" x="658" y="249" class="st0" width="34.3" height="135.1"/>
<rect id="F6-219" x="625.1" y="249" class="st0" width="32.9" height="135.1"/>
<rect id="F6-218" x="592" y="249" class="st0" width="33.1" height="135.1"/>
<rect id="F6-217" x="559.3" y="249" class="st0" width="32.7" height="135.1"/>
<rect id="F6-216" x="525.5" y="249" class="st0" width="33.8" height="135.1"/>
<rect id="F6-215" x="493.3" y="249" class="st0" width="32.2" height="135.1"/>
<rect id="F6-214" x="460.7" y="249" class="st0" width="32.6" height="135.1"/>
<rect id="F6-213" x="426.3" y="249" class="st0" width="34.4" height="135.1"/>
<rect id="F6-212" x="393.7" y="249" class="st0" width="32.6" height="135.1"/>
<rect id="F6-211" x="360.3" y="249" class="st0" width="33.4" height="135.1"/>
<rect id="F6-210" x="327.7" y="249" class="st0" width="32.6" height="135.1"/>
<rect id="F6-209" x="294.7" y="249" class="st0" width="33" height="135.1"/>
<rect id="F6-208" x="261.7" y="249" class="st0" width="32.6" height="135.1"/>
<rect id="F6-207" x="228.3" y="249" class="st0" width="33.4" height="135.1"/>
<rect id="F6-206" x="195.7" y="249" class="st0" width="32.6" height="135.1"/>
<rect id="F6-205" x="161.3" y="249" class="st0" width="34.4" height="135.1"/>
<rect id="F6-204" x="128.7" y="248.7" class="st0" width="33" height="135"/>
<rect id="F6-203" x="95.3" y="249" class="st0" width="33.4" height="135.1"/>
<rect id="F6-202" x="62.7" y="249" class="st0" width="32.6" height="135.1"/>
<rect id="F6-201" x="29.7" y="249" class="st0" width="33" height="135.1"/>
<polygon id="outline" class="st0" points="692.3,384.1 29.7,384.1 29.7,249 692.3,249 "/>
</svg>
