<?xml version="1.0" encoding="utf-8"?>
<!-- Generator: Adobe Illustrator 25.0.1, SVG Export Plug-In . SVG Version: 6.00 Build 0)  -->
<svg version="1.1" id="F-8" xmlns="http://www.w3.org/2000/svg" xmlns:xlink="http://www.w3.org/1999/xlink" x="0px" y="0px"
	 viewBox="0 0 1920 1080" style="enable-background:new 0 0 1920 1080;" xml:space="preserve">
<style type="text/css">
	.st0{fill:none;stroke:#4C4C4C;stroke-miterlimit:10;}
</style>
<image style="overflow:visible;" width="3300" height="2550" xlink:href="F-8 first floor.jpg"  transform="matrix(0.5279 0 0 0.5279 88.8889 -133.1313)">
</image>
<rect id="outline_1_" x="282.22" y="599.2" class="st0" width="1440" height="295.24"/>
<rect id="F8-101" x="282.22" y="599.2" class="st0" width="72.89" height="295.24"/>
<rect id="F8-102" x="354.62" y="599.2" class="st0" width="72.89" height="295.24"/>
<rect id="F8-103" x="427.01" y="599.2" class="st0" width="72.89" height="295.24"/>
<rect id="F8-104" x="500.45" y="599.2" class="st0" width="71.67" height="295.24"/>
<rect id="F8-105" x="571.64" y="599.2" class="st0" width="71.67" height="295.24"/>
<rect id="F8-106" x="642.81" y="599.2" class="st0" width="71.67" height="295.24"/>
<rect id="F8-107" x="714.49" y="599.2" class="st0" width="72.89" height="295.24"/>
<rect id="F8-108" x="786.88" y="599.2" class="st0" width="72.89" height="295.24"/>
<rect id="F8-109" x="859.28" y="599.2" class="st0" width="72.89" height="295.24"/>
<rect id="F8-110" x="931.68" y="599.2" class="st0" width="72.89" height="295.24"/>
<rect id="F8-111" x="1002.22" y="599.2" class="st0" width="71.24" height="295.24"/>
<rect id="F8-112" x="1073.46" y="599.2" class="st0" width="74.52" height="295.24"/>
<rect id="F8-113" x="1147.48" y="599.2" class="st0" width="71.67" height="295.24"/>
<rect id="F8-114" x="1216.17" y="599.2" class="st0" width="72.51" height="295.24"/>
<rect id="F8-115" x="1292.06" y="599.2" class="st0" width="67.78" height="295.24"/>
<rect id="F8-116" x="1359.83" y="599.2" class="st0" width="71.14" height="295.24"/>
<rect id="F8-117" x="1430.97" y="599.2" class="st0" width="75.19" height="295.24"/>
<rect id="F8-118" x="1505.67" y="599.2" class="st0" width="70.95" height="295.24"/>
<rect id="F8-119" x="1576.61" y="599.2" class="st0" width="72.16" height="295.24"/>
<rect id="F8-120" x="1650.06" y="599.2" class="st0" width="72.16" height="295.24"/>
</svg>
