<?xml version="1.0" encoding="utf-8"?>
<!-- Generator: Adobe Illustrator 25.0.1, SVG Export Plug-In . SVG Version: 6.00 Build 0)  -->
<svg version="1.1" id="F-8" xmlns="http://www.w3.org/2000/svg" xmlns:xlink="http://www.w3.org/1999/xlink" x="0px" y="0px"
	 viewBox="0 0 734.4 476" style="enable-background:new 0 0 734.4 476;" xml:space="preserve">
<style type="text/css">
	.st0{fill:none;stroke:#4C4C4C;stroke-miterlimit:10;}
</style>
<image style="overflow:visible;enable-background:new    ;" width="3300" height="2550" xlink:href="F-8 2nd floor.jpg"  transform="matrix(0.24 0 0 0.24 -46.5208 -79.4375)">
</image>
<rect id="F8-220" x="670.8" y="236.8" class="st0" width="34.3" height="135.1"/>
<rect id="F8-219" x="637.9" y="236.8" class="st0" width="32.9" height="135.1"/>
<rect id="F8-218" x="604.8" y="236.8" class="st0" width="33.1" height="135.1"/>
<rect id="F8-217" x="572.1" y="236.8" class="st0" width="32.7" height="135.1"/>
<rect id="F8-216" x="538.3" y="236.8" class="st0" width="33.8" height="135.1"/>
<rect id="F8-215" x="506.1" y="236.8" class="st0" width="32.2" height="135.1"/>
<rect id="F8-214" x="472.1" y="236.8" class="st0" width="33.1" height="135.1"/>
<rect id="F8-213" x="439.1" y="236.8" class="st0" width="34.4" height="135.1"/>
<rect id="F8-212" x="406.5" y="236.8" class="st0" width="32.6" height="135.1"/>
<rect id="F8-211" x="373.1" y="236.8" class="st0" width="33.4" height="135.1"/>
<rect id="F8-210" x="340.5" y="236.8" class="st0" width="32.6" height="135.1"/>
<rect id="F8-209" x="307.5" y="236.8" class="st0" width="33" height="135.1"/>
<rect id="F8-208" x="274.5" y="236.8" class="st0" width="32.6" height="135.1"/>
<rect id="F8-207" x="241.1" y="236.8" class="st0" width="33.4" height="135.1"/>
<rect id="F8-206" x="208.5" y="236.8" class="st0" width="32.6" height="135.1"/>
<rect id="F8-205" x="174.1" y="236.8" class="st0" width="34.4" height="135.1"/>
<rect id="F8-204" x="141.5" y="236.5" class="st0" width="33" height="135"/>
<rect id="F8-203" x="108.1" y="236.8" class="st0" width="33.4" height="135.1"/>
<rect id="F8-202" x="75.5" y="236.8" class="st0" width="32.6" height="135.1"/>
<rect id="F8-201" x="42.5" y="236.8" class="st0" width="33" height="135.1"/>
<polygon id="outline" class="st0" points="703.1,372 40.5,372 40.5,236.5 703.1,236.5 "/>
</svg>
