<?xml version="1.0" encoding="utf-8"?>
<!-- Generator: Adobe Illustrator 25.0.1, SVG Export Plug-In . SVG Version: 6.00 Build 0)  -->
<svg version="1.1" id="F-8" xmlns="http://www.w3.org/2000/svg" xmlns:xlink="http://www.w3.org/1999/xlink" x="0px" y="0px"
	 viewBox="0 0 1920 1080" style="enable-background:new 0 0 1920 1080;" xml:space="preserve">
<style type="text/css">
	.st0{fill:none;stroke:#4C4C4C;stroke-miterlimit:10;}
</style>
<image style="overflow:visible;" width="3300" height="2550" xlink:href="F-8 ground floor.jpg"  transform="matrix(0.4109 0 0 0.416 282 9.6533)">
</image>
<polygon id="F8-01" class="st0" points="404.8,553.3 460.6,553.3 460.5,798.8 403.2,799 "/>
<polygon id="F8-02" class="st0" points="520.5,553.3 520.5,798.3 460.5,798.8 460.6,553.3 "/>
<polygon id="F8-03" class="st0" points="522.8,552.4 578.6,552.4 578.6,798.8 520.5,798.3 "/>
<polygon id="F8-04" class="st0" points="578.6,798.8 637.8,798.9 637.8,553.3 578.6,553.3 "/>
<rect id="F8-05" x="637.8" y="553.3" class="st0" width="59.1" height="245.6"/>
<rect id="F8-06" x="696.9" y="553.3" class="st0" width="58.7" height="243.4"/>
<rect id="F8-07" x="755.6" y="553.3" class="st0" width="58.7" height="243.4"/>
<rect id="F8-08" x="814.3" y="553.3" class="st0" width="59.5" height="243.4"/>
<rect id="F8-09" x="874.1" y="553.3" class="st0" width="57.6" height="243.4"/>
<rect id="F8-10" x="931.7" y="553.3" class="st0" width="58.7" height="243.4"/>
<rect id="F8-11" x="990.3" y="553.3" class="st0" width="59.5" height="243.4"/>
<polygon id="F8-12" class="st0" points="1110.8,552.4 1108.6,798.3 1048.6,798.8 1048.7,553.3 "/>
<polygon id="F8-13" class="st0" points="1110.8,552.4 1166.6,552.4 1166.6,798.8 1108.6,798.3 "/>
<polygon id="F8-14" class="st0" points="1166.6,798.8 1225.9,798.9 1225.9,553.3 1166.6,553.3 "/>
<rect id="F8-15" x="1225.9" y="553.3" class="st0" width="59.1" height="245.6"/>
<rect id="F8-16" x="1285" y="553.3" class="st0" width="58.7" height="243.4"/>
<rect id="F8-17" x="1343.6" y="553.3" class="st0" width="58.7" height="243.4"/>
<rect id="F8-18" x="1402.3" y="553.3" class="st0" width="59.5" height="243.4"/>
<rect id="F8-19" x="1462.1" y="553.3" class="st0" width="57.6" height="243.4"/>
<rect id="F8-20" x="1519.7" y="553.3" class="st0" width="58.7" height="243.4"/>
<polygon id="outline" class="st0" points="403.6,806.1 447.3,806.1 447.3,798.5 466.8,798.5 466.8,806.1 510.3,806.1 510.3,798.5 
	523.2,798.5 523.2,804.8 564.2,804.8 564.2,798.5 585.1,798.5 585.1,804.8 799.5,804.8 799.5,798.5 819.6,798.5 819.6,805.3 
	917.4,805.3 917.4,798.5 936.5,798.5 936.5,806.1 979.4,806.1 979.4,798.5 1001.3,798.5 1001.3,805.1 1044.2,805.1 1044.2,798.5 
	1063.9,798.5 1063.9,805.3 1105.7,805.3 1105.7,798.5 1119.3,798.5 1119.3,806.1 1160.9,806.1 1160.9,798.5 1180.8,798.5 
	1180.8,805.5 1248.7,805.5 1396.4,805.5 1396.4,798.5 1416.3,798.5 1416.3,805.5 1458.8,805.5 1458.8,798.5 1472.5,798.5 
	1472.5,804.4 1513.5,804.4 1513.5,798.5 1533.2,798.5 1533.2,806.1 1578.8,806.1 1578.8,552.4 403.6,552.4 "/>
</svg>
