<?xml version="1.0" encoding="utf-8"?>
<!-- Generator: Adobe Illustrator 25.0.1, SVG Export Plug-In . SVG Version: 6.00 Build 0)  -->
<svg version="1.1" id="A-3" xmlns="http://www.w3.org/2000/svg" xmlns:xlink="http://www.w3.org/1999/xlink" x="0px" y="0px"
	 viewBox="0 0 1920 1080" style="enable-background:new 0 0 1920 1080;" xml:space="preserve">
<style type="text/css">
	.st0{fill:none;stroke:#4C4C4C;stroke-miterlimit:10;}
</style>
<image style="overflow:visible;" width="2480" height="3509" xlink:href="A-3.jpg"  transform="matrix(0.3427 0 0 0.3427 534.7057 -61.1111)">
</image>
<polygon id="outline" class="st0" points="1282.7,104.3 1282.7,304.4 592.6,304.4 592.6,102.8 "/>
<polygon id="A3-01" class="st0" points="1282.7,104.3 1282.7,304.4 1183.1,304.4 1183.1,102.8 "/>
<rect id="A3-02_NA" x="1087.8" y="102.8" class="st0" width="95.3" height="201.5"/>
<polygon id="A3-03_NA" class="st0" points="1087.8,102.8 1087.8,304.4 988.2,304.4 988.2,101.4 "/>
<polygon id="A3-04_NA" class="st0" points="988.2,102.8 988.2,304.4 887.1,304.4 888.6,102.8 "/>
<polygon id="A3-05_NA" class="st0" points="888.6,102.8 887.1,304.4 787.5,304.4 787.5,102.8 "/>
<rect id="A3-06_NA" x="692.2" y="102.8" class="st0" width="95.3" height="201.5"/>
<rect id="A3-07_NA" x="592.6" y="102.8" class="st0" width="99.6" height="201.5"/>
</svg>
