<?xml version="1.0" encoding="utf-8"?>
<!-- Generator: Adobe Illustrator 25.0.1, SVG Export Plug-In . SVG Version: 6.00 Build 0)  -->
<svg version="1.1" id="A-8" xmlns="http://www.w3.org/2000/svg" xmlns:xlink="http://www.w3.org/1999/xlink" x="0px" y="0px"
	 viewBox="0 0 1313.77 1080" style="enable-background:new 0 0 1313.77 1080;" xml:space="preserve">
<style type="text/css">
	.st0{fill:none;stroke:#4C4C4C;stroke-miterlimit:10;}
</style>
<image style="overflow:visible;" width="2851" height="2343" xlink:href="A8-Model (1).jpg"  transform="matrix(0.4608 0 0 0.4608 0 0.16)">
</image>
<polygon id="outline" class="st0" points="1078.97,725.56 1078.97,171.52 159.89,171.52 159.89,725.56 175.01,725.56 175.01,740.68 
	253.85,740.68 253.85,725.56 326.21,725.56 326.21,740.68 406.13,740.68 406.13,722.32 435.29,722.32 435.29,740.68 515.21,740.68 
	515.21,723.4 544.37,723.4 544.37,740.68 623.21,740.68 623.21,722.32 652.37,722.32 652.37,740.68 731.21,740.68 731.21,724.48 
	760.37,724.48 760.37,740.68 840.29,740.68 840.29,722.32 870.53,722.32 870.53,740.68 948.29,740.68 948.29,722.32 976.37,722.32 
	976.37,740.68 1057.37,740.68 1057.37,725.56 "/>
<polygon id="A8-10" class="st0" points="1076.81,174.76 966.65,174.76 966.65,721.12 978.65,721.12 978.65,740.32 1055.45,740.32 
	1055.45,721.6 1076.81,721.6 "/>
<polygon id="A8-11A" class="st0" points="966.09,174.76 909.61,174.76 909.61,740.32 953.91,740.32 953.91,722.48 966.65,722.48 "/>
<polygon id="A8-11B" class="st0" points="860.09,174.76 909.61,174.76 909.61,740.32 870.77,740.32 870.77,722.48 859.61,722.48 "/>
<polygon id="A8-12" class="st0" points="859.81,174.76 749.65,174.76 749.65,721.12 761.65,721.12 761.65,740.32 838.45,740.32 
	838.45,721.6 859.81,721.6 "/>
<polygon id="A8-13A" class="st0" points="749.09,174.76 692.61,174.76 692.61,740.32 736.91,740.32 736.91,722.48 749.65,722.48 "/>
<polygon id="A8-13B" class="st0" points="643.09,174.76 692.61,174.76 692.61,740.32 653.77,740.32 653.77,722.48 642.61,722.48 "/>
<polygon id="A8-14" class="st0" points="643.81,174.76 533.65,174.76 533.65,721.12 545.65,721.12 545.65,740.32 622.45,740.32 
	622.45,721.6 643.81,721.6 "/>
<polygon id="A8-15A" class="st0" points="533.09,174.76 476.61,174.76 476.61,740.32 520.91,740.32 520.91,722.48 533.65,722.48 "/>
<polygon id="A8-15B" class="st0" points="427.09,174.76 476.61,174.76 476.61,740.32 437.77,740.32 437.77,722.48 426.61,722.48 "/>
<polygon id="A8-16" class="st0" points="426.84,174.76 314.65,174.76 314.65,721.12 326.87,721.12 326.87,740.32 405.09,740.32 
	405.09,721.6 426.84,721.6 "/>
<polygon id="A8-17" class="st0" points="314.65,174.76 162.65,174.76 162.65,721.12 174.2,721.12 174.2,740.32 253.17,740.32 
	253.17,721.6 314.65,721.6 "/>
</svg>
