<?xml version="1.0" encoding="utf-8"?>
<!-- Generator: Adobe Illustrator 25.0.1, SVG Export Plug-In . SVG Version: 6.00 Build 0)  -->
<svg version="1.1" id="Layer_1" xmlns="http://www.w3.org/2000/svg" xmlns:xlink="http://www.w3.org/1999/xlink" x="0px" y="0px"
	 viewBox="0 0 842.2 595.2" style="enable-background:new 0 0 842.2 595.2;" xml:space="preserve">
<style type="text/css">
	.st0{fill:none;stroke:#353535;stroke-miterlimit:10;}
	.st1{fill:none;stroke:#000000;stroke-width:2;stroke-miterlimit:10;}
	.st2{display:none;}
	.st3{display:inline;fill:none;stroke:#4C4C4C;stroke-miterlimit:10;}
</style>
<g id="A-1">
	
		<image style="overflow:visible;" width="3509" height="2480" xlink:href="../../A-1.jpg"  transform="matrix(0.2591 0 0 0.2591 -8.8169 8.7561)">
	</image>
	<polygon id="outline_3_" class="st0" points="353.4,369.8 360.4,369.8 360.4,374 386.2,374 386.2,369 392.9,369.5 392.9,374 
		418.7,374 418.7,369.5 425.4,369.5 425.4,374 451.9,374 451.9,239.9 122.6,239.9 122.6,369.2 130.4,369.4 130.4,374 156.9,374 
		156.9,369.6 163.3,369.6 163.2,374 189.5,374 189.5,369.2 196.3,369.4 196.3,374 222.5,374 222.5,370 228.9,370 228.9,374 
		254.9,374 254.9,369.8 261.7,369.8 261.9,374 287.9,374 287.9,369.8 294.4,369.8 294.7,374 320.1,374 320.1,370.1 326.7,370 
		326.7,374 353.2,374 	"/>
	<polygon id="A1-11" class="st1" points="121.9,240.4 156.2,240.4 156.2,369.5 156.2,374.5 129.7,374.5 129.7,369.9 121.9,369.8 	
		"/>
	<polygon id="A1-12" class="st1" points="155.9,240.4 188.4,240.4 188.8,374.5 162.4,374.5 162.6,370.1 156.2,370.1 	"/>
	<polygon id="A1-13" class="st1" points="188.4,240.4 221.3,240.4 221.8,374.5 195.6,374.5 195.6,369.9 188.8,369.8 	"/>
	<polygon id="A1-14" class="st1" points="254.2,240.4 221.3,240.4 221.8,370.5 228.2,370.5 228.2,374.5 254.2,374.5 254.2,295.2 	
		"/>
	<polygon id="A1-15" class="st1" points="287.2,240.4 254.2,240.4 254.2,370.3 260.9,370.3 261.2,374.5 287.2,374.5 	"/>
	<polygon id="A1-16" class="st1" points="319.4,240.4 287.2,240.4 287.2,370.3 293.7,370.3 294,374.5 319.4,374.5 	"/>
	<polygon id="A1-17" class="st1" points="319.4,240.4 352.7,240.4 352.7,370.3 352.7,374.5 326.4,374.5 326.4,370 319.4,369.2 	"/>
	<polygon id="A1-18" class="st1" points="385.4,240.4 385.4,374.5 359.7,374.5 359.7,370.3 352.7,370.3 352.7,240.4 	"/>
	<polygon id="A1-19" class="st1" points="417.9,240.4 417.9,374.5 392.2,374.5 392.2,370 385.4,369.5 385.4,240.4 	"/>
	<polygon id="A1-20" class="st1" points="451.2,240.4 417.9,240.4 417.9,370 424.7,370 424.7,374.5 451.2,374.5 	"/>
</g>
<g id="A-2" class="st2">
	<polygon id="outline" class="st3" points="455.8,213.1 728.9,212.7 728.9,339.4 704.1,339.4 704,335.4 698.6,335.3 698.5,339.4 
		674.4,339.4 674.3,335.2 668.4,335.3 668.5,339.4 644.3,339.4 644.4,335.4 638.2,335.3 638.2,339.4 613.7,339.4 613.7,335.1 
		608,335.3 607.8,339.4 583.3,339.4 583.5,335.2 577.4,335.3 577.4,339.4 553.2,339.4 553.2,334.9 547.1,335.1 547.3,339.4 
		522.7,339.4 522.8,335.2 516.7,335.2 516.7,339.4 492.8,339.4 492.8,335.2 486.6,335.1 486.6,339.4 462.2,339.4 462.2,334.9 
		456.2,334.9 456.2,339.4 431.9,339.4 431.9,335.5 425.7,335.5 425.7,213.1 	"/>
	<polygon id="A2-01" class="st3" points="426.4,213.9 455.2,213.9 455.2,339.7 432.1,339.7 432.1,335.4 425.6,335.1 	"/>
	<polygon id="A2-02" class="st3" points="456,213.9 486.4,213.9 486.4,339.7 462.3,339.7 462.3,335.5 455.2,335.5 	"/>
	<polygon id="A2-03" class="st3" points="516.5,213.9 486.4,213.9 486.4,335.8 492.4,335.8 492.5,339.7 516.5,339.7 	"/>
	<polygon id="A2-04" class="st3" points="546.5,213.9 547.4,339.7 522.8,339.7 522.8,335.3 516.5,334.9 516.5,213.9 	"/>
	<polygon id="A2-05" class="st3" points="577,213.1 546.5,213.1 547.4,335.5 553.2,335.5 553.6,339.7 577.7,339.7 	"/>
	<polygon id="A2-06" class="st3" points="607.4,213.1 577,213.1 577.7,335.3 583.4,335.3 583.8,339.7 607.4,339.7 	"/>
	<polygon id="A2-07" class="st3" points="637.6,213.1 638.2,339.7 613.7,339.7 613.7,334.9 607.4,335.1 607.4,213.1 	"/>
	<polygon id="A2-08" class="st3" points="668.2,213.1 668.6,339.7 644.3,339.7 644.3,335.5 638.1,335.5 637.6,213.1 	"/>
	<polygon id="A2-09" class="st3" points="698.6,213.1 698.8,339.7 674.3,339.7 674.3,335.1 668.6,335.1 668.2,213.1 	"/>
	<polygon id="A2-10" class="st3" points="729.4,335.7 728.3,335.7 728.3,339.7 704,339.7 704,335.5 698.8,335.5 698.6,213.1 
		729.4,213.1 	"/>
	
		<image style="display:inline;overflow:visible;enable-background:new    ;" width="3509" height="2480" xlink:href="../../A-1.jpg"  transform="matrix(2.891734e-02 0 0 2.891734e-02 383.4245 331.2312)">
	</image>
</g>
</svg>
