<?xml version="1.0" encoding="utf-8"?>
<!-- Generator: Adobe Illustrator 25.0.1, SVG Export Plug-In . SVG Version: 6.00 Build 0)  -->
<svg version="1.1" id="Layer_1" xmlns="http://www.w3.org/2000/svg" xmlns:xlink="http://www.w3.org/1999/xlink" x="0px" y="0px"
	 viewBox="0 0 3326.4 1915.2" style="enable-background:new 0 0 3326.4 1915.2;" xml:space="preserve">
<style type="text/css">
	.st0{fill:none;stroke:#4C4C4C;stroke-miterlimit:10;}
</style>
<image style="overflow:visible;" width="14042" height="9934" xlink:href="A10.jpg"  transform="matrix(0.24 0 0 0.24 -19.08 -220.16)">
</image>
<polygon id="A10-07" class="st0" points="2308.4,462.48 2308.4,931.11 2168.9,931.11 2168.4,368.7 "/>
<polygon id="A10-08" class="st0" points="2170.4,932.6 2033,931.6 2034.2,368.6 2055.9,368.5 2055.6,353.1 2154.8,353.1 
	2154.8,368.7 2170.4,368.7 "/>
<polygon id="A10-09" class="st0" points="2032.9,931.6 1894.7,931.6 1893.8,368.6 1919.5,368.5 1919.3,353.1 2017.9,353.1 
	2017.9,368.7 2032.9,368.7 "/>
<polygon id="A10-10" class="st0" points="1895,931.6 1757.8,931.6 1756.9,368.6 1781.7,368.5 1781.4,353.1 1880,353.1 1880,368.7 
	1895,368.7 "/>
<polygon id="A10-11" class="st0" points="1758.4,932.6 1618.9,932.6 1618,368.6 1642.9,368.5 1642.6,353.1 1742.5,353.1 
	1742.5,368.7 1758.4,368.7 "/>
<polygon id="A10-12" class="st0" points="1618.4,932.6 1481,931.6 1482.2,368.6 1503.9,368.5 1503.6,353.1 1602.8,353.1 
	1602.8,368.7 1618.4,368.7 "/>
<polygon id="A10-13" class="st0" points="1480.9,931.6 1342.7,931.6 1341.8,368.6 1367.5,368.5 1367.3,353.1 1465.9,353.1 
	1465.9,368.7 1480.9,368.7 "/>
<polygon id="A10-14" class="st0" points="1343,931.6 1204.24,931.6 1203.33,368.6 1228.41,368.5 1228.11,353.1 1327.83,353.1 
	1327.83,368.7 1343,368.7 "/>
<polygon id="A10-15" class="st0" points="1202.9,931.6 1041.29,931.6 1040.24,368.6 1070.29,368.5 1070.06,353.1 1185.36,353.1 
	1185.36,368.7 1202.9,368.7 "/>
<polygon id="A10-16" class="st0" points="1040.24,931.6 927.64,931.6 926.9,368.6 947.25,368.5 947.01,353.1 1027.93,353.1 
	1027.93,368.7 1040.24,368.7 "/>
<polygon id="A10-17" class="st0" points="928.4,932.6 788.9,932.6 788,368.6 812.9,368.5 812.6,353.1 912.5,353.1 912.5,368.7 
	928.4,368.7 "/>
<polygon id="A10-18" class="st0" points="788.4,932.6 651,931.6 652.2,368.6 673.9,368.5 673.6,353.1 772.8,353.1 772.8,368.7 
	788.4,368.7 "/>
<polygon id="A10-19" class="st0" points="650.9,931.6 512.7,931.6 511.8,368.6 537.5,368.5 537.3,353.1 635.9,353.1 635.9,368.7 
	650.9,368.7 "/>
<polygon id="A10-20_1_" class="st0" points="513,931.6 370.9,931.6 370,368.6 395.7,368.5 395.3,353.1 497.5,353.1 497.5,368.7 
	513,368.7 "/>
<polygon id="outline_2_" class="st0" points="370,378.11 370.9,931.6 2308.4,931.1 2308.4,464.57 2172.84,372.06 2154.86,372.06 
	2154.86,353.1 2056.26,353.1 2055.56,371.66 2017.1,372.36 2016.4,353.1 1916.8,353.1 1917.8,371.36 1878.64,372.06 1879.04,353.1 
	1778.65,353.1 1779.35,371.66 1741.98,372.06 1742.68,353.1 1642.69,353.1 1643.09,372.36 1602.13,371.66 1602.83,354.89 
	1502.43,353.1 1502.83,372.06 1463.97,371.66 1463.27,353.1 1365.07,353.1 1364.77,371.66 1325.91,371.36 1325.91,353.1 
	1226.62,353.1 1226.62,371.66 1188.16,371.36 1188.16,353.1 1089.26,353.1 1088.86,371.66 1028.12,372.06 1027.72,353.1 
	928.82,353.1 928.82,371.36 911.64,371.36 911.64,353.1 812.74,353.1 812.34,371.66 773.88,372.75 773.48,353.1 674.99,353.1 
	674.29,372.06 635.43,371.66 635.03,353.1 535.83,353.1 536.53,371.66 497.67,371.66 497.27,353.1 397.67,353.1 398.07,372.06 
	370,372.06 "/>
</svg>
