<?xml version="1.0" encoding="utf-8"?>
<!-- Generator: Adobe Illustrator 25.0.1, SVG Export Plug-In . SVG Version: 6.00 Build 0)  -->
<svg version="1.1" id="Layer_1" xmlns="http://www.w3.org/2000/svg" xmlns:xlink="http://www.w3.org/1999/xlink" x="0px" y="0px"
	 viewBox="0 0 842.2 595.2" style="enable-background:new 0 0 842.2 595.2;" xml:space="preserve">
<style type="text/css">
	.st0{fill:none;stroke:#4C4C4C;stroke-miterlimit:10;}
</style>
<g id="A-2">
	
		<image style="overflow:visible;" width="3509" height="2480" xlink:href="../../A-2.jpg"  transform="matrix(0.2602 0 0 0.2602 -35.4862 -25.08)">
	</image>
	<polygon id="outline" class="st0" points="458.8,207.2 755.2,206.8 755.2,343.1 728.3,343.1 728.2,338.7 722.4,338.6 722.3,343.1 
		696.1,343.1 696,338.5 689.5,338.6 689.6,343.1 663.4,343.1 663.5,338.7 656.7,338.6 656.7,343.1 630.1,343.1 630.1,338.4 
		624,338.6 623.8,343.1 597.2,343.1 597.4,338.5 590.8,338.6 590.8,343.1 564.5,343.1 564.5,338.2 557.9,338.4 558.1,343.1 
		531.4,343.1 531.5,338.5 524.8,338.5 524.8,343.1 499,343.1 499,338.5 492.2,338.4 492.2,343.1 465.8,343.1 465.8,338.2 
		459.2,338.1 459.2,343.1 432.8,343.1 432.8,338.8 426.1,338.8 426.1,207.2 	"/>
	<polygon id="A2-11" class="st0" points="426.8,208.1 458.1,208.1 458.1,343.3 433.1,343.3 433.1,338.7 426,338.4 	"/>
	<polygon id="A2-12" class="st0" points="459,208.1 492,208.1 492,343.3 465.9,343.3 465.9,338.8 458.1,338.8 	"/>
	<polygon id="A2-13" class="st0" points="524.7,208.1 492,208.1 492,339.2 498.5,339.2 498.7,343.3 524.7,343.3 	"/>
	<polygon id="A2-14" class="st0" points="557.3,208.1 558.3,343.3 531.5,343.3 531.5,338.6 524.7,338.2 524.7,208.1 	"/>
	<polygon id="A2-15" class="st0" points="590.3,207.2 557.3,207.2 558.2,338.8 564.5,338.8 564.9,343.3 591.1,343.3 	"/>
	<polygon id="A2-16" class="st0" points="623.3,207.2 590.3,207.2 591.1,338.6 597.3,338.6 597.7,343.3 623.3,343.3 	"/>
	<polygon id="A2-17" class="st0" points="656.1,207.2 656.7,343.3 630.1,343.3 630.1,338.2 623.3,338.4 623.3,207.2 	"/>
	<polygon id="A2-18" class="st0" points="689.3,207.2 689.7,343.3 663.4,343.3 663.4,338.8 656.7,338.8 656.1,207.2 	"/>
	<polygon id="A2-19" class="st0" points="722.4,207.2 722.5,343.3 696,343.3 696,338.4 689.7,338.4 689.3,207.2 	"/>
	<polygon id="A2-20" class="st0" points="755.8,339 754.6,339 754.6,343.3 728.2,343.3 728.2,338.8 722.5,338.8 722.4,207.2 
		755.8,207.2 	"/>
</g>
</svg>
