<?xml version="1.0" encoding="utf-8"?>
<!-- Generator: Adobe Illustrator 25.0.1, SVG Export Plug-In . SVG Version: 6.00 Build 0)  -->
<svg version="1.1" id="A11" xmlns="http://www.w3.org/2000/svg" xmlns:xlink="http://www.w3.org/1999/xlink" x="0px" y="0px"
	 viewBox="0 0 842.16 595.2" style="enable-background:new 0 0 842.16 595.2;" xml:space="preserve">
<style type="text/css">
	.st0{fill:none;stroke:#4C4C4C;stroke-miterlimit:10;}
</style>
<image style="overflow:visible;" width="3509" height="2480" xlink:href="DF41AD4C.jpg"  transform="matrix(0.24 0 0 0.24 0 0)">
</image>
<polygon id="A11-01" class="st0" points="175.23,170.98 104,170.98 103.56,381.92 113,382.2 113,391.76 162.22,391.87 
	162.43,382.17 175.23,381.92 "/>
<polygon id="A11-02" class="st0" points="244.23,170.98 175.65,170.98 175.23,381.92 182.32,382.2 182.32,391.76 231.7,391.87 
	231.91,382.17 244.23,381.92 "/>
<polygon id="A11-03" class="st0" points="314.23,170.98 245.65,170.98 245.23,381.92 252.32,382.2 252.32,391.76 301.7,391.87 
	301.91,382.17 314.23,381.92 "/>
<polygon id="A11-04" class="st0" points="382.23,170.98 313.65,170.98 313.23,381.92 320.32,382.2 320.32,391.76 369.7,391.87 
	369.91,382.17 382.23,381.92 "/>
<polygon id="A11-05" class="st0" points="452.43,170.98 382.66,170.98 382.23,381.92 389.44,382.2 389.44,391.76 439.69,391.87 
	439.9,382.17 452.43,381.92 "/>
<polygon id="A11-06" class="st0" points="522.23,170.98 452.66,170.98 452.23,381.92 459.42,382.2 459.42,391.76 509.52,391.87 
	509.73,382.17 522.23,381.92 "/>
<polygon id="A11-07" class="st0" points="590.44,170.98 522.65,170.98 522.23,381.92 529.24,382.2 529.24,391.76 578.06,391.87 
	578.26,382.17 590.44,381.92 "/>
<polygon id="A11-08" class="st0" points="660.23,170.98 590.66,170.98 590.23,381.92 597.42,382.2 597.42,391.76 647.52,391.87 
	647.73,382.17 660.23,381.92 "/>
<polygon id="A11-09" class="st0" points="730.76,170.98 660.66,170.98 660.23,381.92 667.48,382.2 667.48,391.76 717.95,391.87 
	718.17,382.17 730.76,381.92 "/>
<polygon id="outline_1_" class="st0" points="104,170.98 104.12,378.99 104.12,381.28 112.17,381.28 112.01,391.4 162.36,391.4 
	162.53,381.41 181.61,381.41 181.27,392.4 231.46,391.4 231.63,381.41 250.7,381.28 251.04,392.4 300.89,392.4 301.05,382.42 
	320.56,382.48 320.64,392.39 370.16,391.94 370.16,381.95 389.68,382.13 389.66,391.94 439.43,391.8 439.52,382.31 459.14,382.22 
	459.05,391.94 508.64,391.76 508.37,381.55 528.35,382.4 528.17,391.94 577.95,391.4 577.95,381.55 597.75,381.53 598,391.93 
	647.15,391.67 646.97,381.96 667.3,382.3 667.09,391.84 716.78,392.14 716.72,382.22 731.12,382.22 731.12,170.98 "/>
</svg>
